%TF.GenerationSoftware,KiCad,Pcbnew,5.1.7*%
%TF.CreationDate,2020-10-23T00:09:38-07:00*%
%TF.ProjectId,n64_basic,6e36345f-6261-4736-9963-2e6b69636164,rev?*%
%TF.SameCoordinates,Original*%
%TF.FileFunction,Legend,Top*%
%TF.FilePolarity,Positive*%
%FSLAX46Y46*%
G04 Gerber Fmt 4.6, Leading zero omitted, Abs format (unit mm)*
G04 Created by KiCad (PCBNEW 5.1.7) date 2020-10-23 00:09:38*
%MOMM*%
%LPD*%
G01*
G04 APERTURE LIST*
%ADD10C,0.200000*%
%ADD11C,0.152400*%
%ADD12C,0.508000*%
%ADD13C,0.120000*%
G04 APERTURE END LIST*
D10*
X139366761Y-98901809D02*
X140795333Y-98901809D01*
X141081047Y-98997047D01*
X141271523Y-99187523D01*
X141366761Y-99473238D01*
X141366761Y-99663714D01*
X141366761Y-96997047D02*
X141366761Y-97949428D01*
X139366761Y-97949428D01*
X141176285Y-95187523D02*
X141271523Y-95282761D01*
X141366761Y-95568476D01*
X141366761Y-95758952D01*
X141271523Y-96044666D01*
X141081047Y-96235142D01*
X140890571Y-96330380D01*
X140509619Y-96425619D01*
X140223904Y-96425619D01*
X139842952Y-96330380D01*
X139652476Y-96235142D01*
X139462000Y-96044666D01*
X139366761Y-95758952D01*
X139366761Y-95568476D01*
X139462000Y-95282761D01*
X139557238Y-95187523D01*
X139366761Y-93758952D02*
X140795333Y-93758952D01*
X141081047Y-93854190D01*
X141271523Y-94044666D01*
X141366761Y-94330380D01*
X141366761Y-94520857D01*
X141366761Y-91854190D02*
X141366761Y-92806571D01*
X139366761Y-92806571D01*
X141176285Y-90044666D02*
X141271523Y-90139904D01*
X141366761Y-90425619D01*
X141366761Y-90616095D01*
X141271523Y-90901809D01*
X141081047Y-91092285D01*
X140890571Y-91187523D01*
X140509619Y-91282761D01*
X140223904Y-91282761D01*
X139842952Y-91187523D01*
X139652476Y-91092285D01*
X139462000Y-90901809D01*
X139366761Y-90616095D01*
X139366761Y-90425619D01*
X139462000Y-90139904D01*
X139557238Y-90044666D01*
X139366761Y-88616095D02*
X140795333Y-88616095D01*
X141081047Y-88711333D01*
X141271523Y-88901809D01*
X141366761Y-89187523D01*
X141366761Y-89378000D01*
X141366761Y-86711333D02*
X141366761Y-87663714D01*
X139366761Y-87663714D01*
X141176285Y-84901809D02*
X141271523Y-84997047D01*
X141366761Y-85282761D01*
X141366761Y-85473238D01*
X141271523Y-85758952D01*
X141081047Y-85949428D01*
X140890571Y-86044666D01*
X140509619Y-86139904D01*
X140223904Y-86139904D01*
X139842952Y-86044666D01*
X139652476Y-85949428D01*
X139462000Y-85758952D01*
X139366761Y-85473238D01*
X139366761Y-85282761D01*
X139462000Y-84997047D01*
X139557238Y-84901809D01*
X139366761Y-83473238D02*
X140795333Y-83473238D01*
X141081047Y-83568476D01*
X141271523Y-83758952D01*
X141366761Y-84044666D01*
X141366761Y-84235142D01*
X141366761Y-81568476D02*
X141366761Y-82520857D01*
X139366761Y-82520857D01*
X141176285Y-79758952D02*
X141271523Y-79854190D01*
X141366761Y-80139904D01*
X141366761Y-80330380D01*
X141271523Y-80616095D01*
X141081047Y-80806571D01*
X140890571Y-80901809D01*
X140509619Y-80997047D01*
X140223904Y-80997047D01*
X139842952Y-80901809D01*
X139652476Y-80806571D01*
X139462000Y-80616095D01*
X139366761Y-80330380D01*
X139366761Y-80139904D01*
X139462000Y-79854190D01*
X139557238Y-79758952D01*
D11*
X131516361Y-97784557D02*
X132135638Y-97784557D01*
X131826000Y-98094195D02*
X131826000Y-97474919D01*
X130645504Y-95617695D02*
X130645504Y-94804895D01*
X130839028Y-94804895D01*
X130955142Y-94843600D01*
X131032552Y-94921009D01*
X131071257Y-94998419D01*
X131109961Y-95153238D01*
X131109961Y-95269352D01*
X131071257Y-95424171D01*
X131032552Y-95501580D01*
X130955142Y-95578990D01*
X130839028Y-95617695D01*
X130645504Y-95617695D01*
X131806647Y-95617695D02*
X131806647Y-95191942D01*
X131767942Y-95114533D01*
X131690533Y-95075828D01*
X131535714Y-95075828D01*
X131458304Y-95114533D01*
X131806647Y-95578990D02*
X131729238Y-95617695D01*
X131535714Y-95617695D01*
X131458304Y-95578990D01*
X131419600Y-95501580D01*
X131419600Y-95424171D01*
X131458304Y-95346761D01*
X131535714Y-95308057D01*
X131729238Y-95308057D01*
X131806647Y-95269352D01*
X132077580Y-95075828D02*
X132387219Y-95075828D01*
X132193695Y-94804895D02*
X132193695Y-95501580D01*
X132232400Y-95578990D01*
X132309809Y-95617695D01*
X132387219Y-95617695D01*
X133006495Y-95617695D02*
X133006495Y-95191942D01*
X132967790Y-95114533D01*
X132890380Y-95075828D01*
X132735561Y-95075828D01*
X132658152Y-95114533D01*
X133006495Y-95578990D02*
X132929085Y-95617695D01*
X132735561Y-95617695D01*
X132658152Y-95578990D01*
X132619447Y-95501580D01*
X132619447Y-95424171D01*
X132658152Y-95346761D01*
X132735561Y-95308057D01*
X132929085Y-95308057D01*
X133006495Y-95269352D01*
X131143223Y-92367100D02*
X131065814Y-92328395D01*
X130949700Y-92328395D01*
X130833585Y-92367100D01*
X130756176Y-92444509D01*
X130717471Y-92521919D01*
X130678766Y-92676738D01*
X130678766Y-92792852D01*
X130717471Y-92947671D01*
X130756176Y-93025080D01*
X130833585Y-93102490D01*
X130949700Y-93141195D01*
X131027109Y-93141195D01*
X131143223Y-93102490D01*
X131181928Y-93063785D01*
X131181928Y-92792852D01*
X131027109Y-92792852D01*
X131530271Y-93141195D02*
X131530271Y-92328395D01*
X131994728Y-93141195D01*
X131994728Y-92328395D01*
X132381776Y-93141195D02*
X132381776Y-92328395D01*
X132575300Y-92328395D01*
X132691414Y-92367100D01*
X132768823Y-92444509D01*
X132807528Y-92521919D01*
X132846233Y-92676738D01*
X132846233Y-92792852D01*
X132807528Y-92947671D01*
X132768823Y-93025080D01*
X132691414Y-93102490D01*
X132575300Y-93141195D01*
X132381776Y-93141195D01*
D12*
X130689047Y-85694761D02*
X128149047Y-85694761D01*
X128149047Y-84727142D01*
X128270000Y-84485238D01*
X128390952Y-84364285D01*
X128632857Y-84243333D01*
X128995714Y-84243333D01*
X129237619Y-84364285D01*
X129358571Y-84485238D01*
X129479523Y-84727142D01*
X129479523Y-85694761D01*
X130689047Y-81824285D02*
X130689047Y-83275714D01*
X130689047Y-82550000D02*
X128149047Y-82550000D01*
X128511904Y-82791904D01*
X128753809Y-83033809D01*
X128874761Y-83275714D01*
D13*
%TO.C,D1*%
X96352500Y-89877000D02*
X98592500Y-89877000D01*
X98592500Y-89877000D02*
X98592500Y-85637000D01*
X98592500Y-85637000D02*
X96352500Y-85637000D01*
X96352500Y-85637000D02*
X96352500Y-89877000D01*
X97472500Y-91797000D02*
X97472500Y-89877000D01*
X97472500Y-83717000D02*
X97472500Y-85637000D01*
X96352500Y-89157000D02*
X98592500Y-89157000D01*
X96352500Y-89037000D02*
X98592500Y-89037000D01*
X96352500Y-89277000D02*
X98592500Y-89277000D01*
%TO.C,D2*%
X99527500Y-89877000D02*
X101767500Y-89877000D01*
X101767500Y-89877000D02*
X101767500Y-85637000D01*
X101767500Y-85637000D02*
X99527500Y-85637000D01*
X99527500Y-85637000D02*
X99527500Y-89877000D01*
X100647500Y-91797000D02*
X100647500Y-89877000D01*
X100647500Y-83717000D02*
X100647500Y-85637000D01*
X99527500Y-89157000D02*
X101767500Y-89157000D01*
X99527500Y-89037000D02*
X101767500Y-89037000D01*
X99527500Y-89277000D02*
X101767500Y-89277000D01*
%TO.C,D3*%
X101767500Y-98337000D02*
X99527500Y-98337000D01*
X99527500Y-98337000D02*
X99527500Y-102577000D01*
X99527500Y-102577000D02*
X101767500Y-102577000D01*
X101767500Y-102577000D02*
X101767500Y-98337000D01*
X100647500Y-96417000D02*
X100647500Y-98337000D01*
X100647500Y-104497000D02*
X100647500Y-102577000D01*
X101767500Y-99057000D02*
X99527500Y-99057000D01*
X101767500Y-99177000D02*
X99527500Y-99177000D01*
X101767500Y-98937000D02*
X99527500Y-98937000D01*
%TO.C,D4*%
X98592500Y-98337000D02*
X96352500Y-98337000D01*
X96352500Y-98337000D02*
X96352500Y-102577000D01*
X96352500Y-102577000D02*
X98592500Y-102577000D01*
X98592500Y-102577000D02*
X98592500Y-98337000D01*
X97472500Y-96417000D02*
X97472500Y-98337000D01*
X97472500Y-104497000D02*
X97472500Y-102577000D01*
X98592500Y-99057000D02*
X96352500Y-99057000D01*
X98592500Y-99177000D02*
X96352500Y-99177000D01*
X98592500Y-98937000D02*
X96352500Y-98937000D01*
%TO.C,R1*%
X112300000Y-88165000D02*
X112300000Y-90905000D01*
X112300000Y-90905000D02*
X118840000Y-90905000D01*
X118840000Y-90905000D02*
X118840000Y-88165000D01*
X118840000Y-88165000D02*
X112300000Y-88165000D01*
X111530000Y-89535000D02*
X112300000Y-89535000D01*
X119610000Y-89535000D02*
X118840000Y-89535000D01*
%TO.C,R2*%
X112300000Y-84990000D02*
X112300000Y-87730000D01*
X112300000Y-87730000D02*
X118840000Y-87730000D01*
X118840000Y-87730000D02*
X118840000Y-84990000D01*
X118840000Y-84990000D02*
X112300000Y-84990000D01*
X111530000Y-86360000D02*
X112300000Y-86360000D01*
X119610000Y-86360000D02*
X118840000Y-86360000D01*
%TO.C,R3*%
X112300000Y-81815000D02*
X112300000Y-84555000D01*
X112300000Y-84555000D02*
X118840000Y-84555000D01*
X118840000Y-84555000D02*
X118840000Y-81815000D01*
X118840000Y-81815000D02*
X112300000Y-81815000D01*
X111530000Y-83185000D02*
X112300000Y-83185000D01*
X119610000Y-83185000D02*
X118840000Y-83185000D01*
%TO.C,R4*%
X112300000Y-78640000D02*
X112300000Y-81380000D01*
X112300000Y-81380000D02*
X118840000Y-81380000D01*
X118840000Y-81380000D02*
X118840000Y-78640000D01*
X118840000Y-78640000D02*
X112300000Y-78640000D01*
X111530000Y-80010000D02*
X112300000Y-80010000D01*
X119610000Y-80010000D02*
X118840000Y-80010000D01*
%TO.C,R9*%
X106402000Y-119126000D02*
X105632000Y-119126000D01*
X98322000Y-119126000D02*
X99092000Y-119126000D01*
X105632000Y-117756000D02*
X99092000Y-117756000D01*
X105632000Y-120496000D02*
X105632000Y-117756000D01*
X99092000Y-120496000D02*
X105632000Y-120496000D01*
X99092000Y-117756000D02*
X99092000Y-120496000D01*
%TO.C,R5*%
X111860000Y-95155000D02*
X109120000Y-95155000D01*
X109120000Y-95155000D02*
X109120000Y-101695000D01*
X109120000Y-101695000D02*
X111860000Y-101695000D01*
X111860000Y-101695000D02*
X111860000Y-95155000D01*
X110490000Y-94385000D02*
X110490000Y-95155000D01*
X110490000Y-102465000D02*
X110490000Y-101695000D01*
%TO.C,R10*%
X106402000Y-122174000D02*
X105632000Y-122174000D01*
X98322000Y-122174000D02*
X99092000Y-122174000D01*
X105632000Y-120804000D02*
X99092000Y-120804000D01*
X105632000Y-123544000D02*
X105632000Y-120804000D01*
X99092000Y-123544000D02*
X105632000Y-123544000D01*
X99092000Y-120804000D02*
X99092000Y-123544000D01*
%TO.C,R6*%
X115035000Y-95155000D02*
X112295000Y-95155000D01*
X112295000Y-95155000D02*
X112295000Y-101695000D01*
X112295000Y-101695000D02*
X115035000Y-101695000D01*
X115035000Y-101695000D02*
X115035000Y-95155000D01*
X113665000Y-94385000D02*
X113665000Y-95155000D01*
X113665000Y-102465000D02*
X113665000Y-101695000D01*
%TO.C,R11*%
X115035000Y-112300000D02*
X112295000Y-112300000D01*
X112295000Y-112300000D02*
X112295000Y-118840000D01*
X112295000Y-118840000D02*
X115035000Y-118840000D01*
X115035000Y-118840000D02*
X115035000Y-112300000D01*
X113665000Y-111530000D02*
X113665000Y-112300000D01*
X113665000Y-119610000D02*
X113665000Y-118840000D01*
%TO.C,R7*%
X118210000Y-95155000D02*
X115470000Y-95155000D01*
X115470000Y-95155000D02*
X115470000Y-101695000D01*
X115470000Y-101695000D02*
X118210000Y-101695000D01*
X118210000Y-101695000D02*
X118210000Y-95155000D01*
X116840000Y-94385000D02*
X116840000Y-95155000D01*
X116840000Y-102465000D02*
X116840000Y-101695000D01*
%TO.C,R12*%
X111860000Y-112300000D02*
X109120000Y-112300000D01*
X109120000Y-112300000D02*
X109120000Y-118840000D01*
X109120000Y-118840000D02*
X111860000Y-118840000D01*
X111860000Y-118840000D02*
X111860000Y-112300000D01*
X110490000Y-111530000D02*
X110490000Y-112300000D01*
X110490000Y-119610000D02*
X110490000Y-118840000D01*
%TO.C,R8*%
X121385000Y-95155000D02*
X118645000Y-95155000D01*
X118645000Y-95155000D02*
X118645000Y-101695000D01*
X118645000Y-101695000D02*
X121385000Y-101695000D01*
X121385000Y-101695000D02*
X121385000Y-95155000D01*
X120015000Y-94385000D02*
X120015000Y-95155000D01*
X120015000Y-102465000D02*
X120015000Y-101695000D01*
%TO.C,J4*%
X143930000Y-83860000D02*
X143930000Y-88920000D01*
X143930000Y-88920000D02*
X132210000Y-88920000D01*
X132210000Y-88920000D02*
X132210000Y-87500000D01*
X132210000Y-87500000D02*
X136710000Y-87500000D01*
X136710000Y-87500000D02*
X136710000Y-83860000D01*
X143930000Y-83860000D02*
X143930000Y-78800000D01*
X143930000Y-78800000D02*
X132210000Y-78800000D01*
X132210000Y-78800000D02*
X132210000Y-80220000D01*
X132210000Y-80220000D02*
X136710000Y-80220000D01*
X136710000Y-80220000D02*
X136710000Y-83860000D01*
X137820000Y-86610000D02*
X143320000Y-86610000D01*
X143320000Y-86610000D02*
X143320000Y-86110000D01*
X143320000Y-86110000D02*
X137820000Y-86110000D01*
X137820000Y-86110000D02*
X137820000Y-86610000D01*
X137820000Y-84110000D02*
X143320000Y-84110000D01*
X143320000Y-84110000D02*
X143320000Y-83610000D01*
X143320000Y-83610000D02*
X137820000Y-83610000D01*
X137820000Y-83610000D02*
X137820000Y-84110000D01*
X137820000Y-81610000D02*
X143320000Y-81610000D01*
X143320000Y-81610000D02*
X143320000Y-81110000D01*
X143320000Y-81110000D02*
X137820000Y-81110000D01*
X137820000Y-81110000D02*
X137820000Y-81610000D01*
X133120000Y-86360000D02*
X132520000Y-86660000D01*
X132520000Y-86660000D02*
X132520000Y-86060000D01*
X132520000Y-86060000D02*
X133120000Y-86360000D01*
%TO.C,J2*%
X143930000Y-106720000D02*
X143930000Y-111780000D01*
X143930000Y-111780000D02*
X132210000Y-111780000D01*
X132210000Y-111780000D02*
X132210000Y-110360000D01*
X132210000Y-110360000D02*
X136710000Y-110360000D01*
X136710000Y-110360000D02*
X136710000Y-106720000D01*
X143930000Y-106720000D02*
X143930000Y-101660000D01*
X143930000Y-101660000D02*
X132210000Y-101660000D01*
X132210000Y-101660000D02*
X132210000Y-103080000D01*
X132210000Y-103080000D02*
X136710000Y-103080000D01*
X136710000Y-103080000D02*
X136710000Y-106720000D01*
X137820000Y-109470000D02*
X143320000Y-109470000D01*
X143320000Y-109470000D02*
X143320000Y-108970000D01*
X143320000Y-108970000D02*
X137820000Y-108970000D01*
X137820000Y-108970000D02*
X137820000Y-109470000D01*
X137820000Y-106970000D02*
X143320000Y-106970000D01*
X143320000Y-106970000D02*
X143320000Y-106470000D01*
X143320000Y-106470000D02*
X137820000Y-106470000D01*
X137820000Y-106470000D02*
X137820000Y-106970000D01*
X137820000Y-104470000D02*
X143320000Y-104470000D01*
X143320000Y-104470000D02*
X143320000Y-103970000D01*
X143320000Y-103970000D02*
X137820000Y-103970000D01*
X137820000Y-103970000D02*
X137820000Y-104470000D01*
X133120000Y-109220000D02*
X132520000Y-109520000D01*
X132520000Y-109520000D02*
X132520000Y-108920000D01*
X132520000Y-108920000D02*
X133120000Y-109220000D01*
%TO.C,J1*%
X143930000Y-118150000D02*
X143930000Y-123210000D01*
X143930000Y-123210000D02*
X132210000Y-123210000D01*
X132210000Y-123210000D02*
X132210000Y-121790000D01*
X132210000Y-121790000D02*
X136710000Y-121790000D01*
X136710000Y-121790000D02*
X136710000Y-118150000D01*
X143930000Y-118150000D02*
X143930000Y-113090000D01*
X143930000Y-113090000D02*
X132210000Y-113090000D01*
X132210000Y-113090000D02*
X132210000Y-114510000D01*
X132210000Y-114510000D02*
X136710000Y-114510000D01*
X136710000Y-114510000D02*
X136710000Y-118150000D01*
X137820000Y-120900000D02*
X143320000Y-120900000D01*
X143320000Y-120900000D02*
X143320000Y-120400000D01*
X143320000Y-120400000D02*
X137820000Y-120400000D01*
X137820000Y-120400000D02*
X137820000Y-120900000D01*
X137820000Y-118400000D02*
X143320000Y-118400000D01*
X143320000Y-118400000D02*
X143320000Y-117900000D01*
X143320000Y-117900000D02*
X137820000Y-117900000D01*
X137820000Y-117900000D02*
X137820000Y-118400000D01*
X137820000Y-115900000D02*
X143320000Y-115900000D01*
X143320000Y-115900000D02*
X143320000Y-115400000D01*
X143320000Y-115400000D02*
X137820000Y-115400000D01*
X137820000Y-115400000D02*
X137820000Y-115900000D01*
X133120000Y-120650000D02*
X132520000Y-120950000D01*
X132520000Y-120950000D02*
X132520000Y-120350000D01*
X132520000Y-120350000D02*
X133120000Y-120650000D01*
%TO.C,J3*%
X143930000Y-95290000D02*
X143930000Y-100350000D01*
X143930000Y-100350000D02*
X132210000Y-100350000D01*
X132210000Y-100350000D02*
X132210000Y-98930000D01*
X132210000Y-98930000D02*
X136710000Y-98930000D01*
X136710000Y-98930000D02*
X136710000Y-95290000D01*
X143930000Y-95290000D02*
X143930000Y-90230000D01*
X143930000Y-90230000D02*
X132210000Y-90230000D01*
X132210000Y-90230000D02*
X132210000Y-91650000D01*
X132210000Y-91650000D02*
X136710000Y-91650000D01*
X136710000Y-91650000D02*
X136710000Y-95290000D01*
X137820000Y-98040000D02*
X143320000Y-98040000D01*
X143320000Y-98040000D02*
X143320000Y-97540000D01*
X143320000Y-97540000D02*
X137820000Y-97540000D01*
X137820000Y-97540000D02*
X137820000Y-98040000D01*
X137820000Y-95540000D02*
X143320000Y-95540000D01*
X143320000Y-95540000D02*
X143320000Y-95040000D01*
X143320000Y-95040000D02*
X137820000Y-95040000D01*
X137820000Y-95040000D02*
X137820000Y-95540000D01*
X137820000Y-93040000D02*
X143320000Y-93040000D01*
X143320000Y-93040000D02*
X143320000Y-92540000D01*
X143320000Y-92540000D02*
X137820000Y-92540000D01*
X137820000Y-92540000D02*
X137820000Y-93040000D01*
X133120000Y-97790000D02*
X132520000Y-98090000D01*
X132520000Y-98090000D02*
X132520000Y-97490000D01*
X132520000Y-97490000D02*
X133120000Y-97790000D01*
%TO.C,Q8*%
X127066522Y-104841522D02*
G75*
G03*
X128905000Y-109280000I1838478J-1838478D01*
G01*
X130743478Y-104841522D02*
G75*
G02*
X128905000Y-109280000I-1838478J-1838478D01*
G01*
X130705000Y-104830000D02*
X127105000Y-104830000D01*
%TO.C,Q7*%
X121351522Y-104841522D02*
G75*
G03*
X123190000Y-109280000I1838478J-1838478D01*
G01*
X125028478Y-104841522D02*
G75*
G02*
X123190000Y-109280000I-1838478J-1838478D01*
G01*
X124990000Y-104830000D02*
X121390000Y-104830000D01*
%TO.C,Q6*%
X115636522Y-104841522D02*
G75*
G03*
X117475000Y-109280000I1838478J-1838478D01*
G01*
X119313478Y-104841522D02*
G75*
G02*
X117475000Y-109280000I-1838478J-1838478D01*
G01*
X119275000Y-104830000D02*
X115675000Y-104830000D01*
%TO.C,Q5*%
X109921522Y-104841522D02*
G75*
G03*
X111760000Y-109280000I1838478J-1838478D01*
G01*
X113598478Y-104841522D02*
G75*
G02*
X111760000Y-109280000I-1838478J-1838478D01*
G01*
X113560000Y-104830000D02*
X109960000Y-104830000D01*
%TO.C,Q4*%
X121986522Y-83118478D02*
G75*
G03*
X126425000Y-81280000I1838478J1838478D01*
G01*
X121986522Y-79441522D02*
G75*
G02*
X126425000Y-81280000I1838478J-1838478D01*
G01*
X121975000Y-79480000D02*
X121975000Y-83080000D01*
%TO.C,Q3*%
X121986522Y-88833478D02*
G75*
G03*
X126425000Y-86995000I1838478J1838478D01*
G01*
X121986522Y-85156522D02*
G75*
G02*
X126425000Y-86995000I1838478J-1838478D01*
G01*
X121975000Y-85195000D02*
X121975000Y-88795000D01*
%TO.C,Q2*%
X121986522Y-94548478D02*
G75*
G03*
X126425000Y-92710000I1838478J1838478D01*
G01*
X121986522Y-90871522D02*
G75*
G02*
X126425000Y-92710000I1838478J-1838478D01*
G01*
X121975000Y-90910000D02*
X121975000Y-94510000D01*
%TO.C,Q1*%
X121986522Y-100263478D02*
G75*
G03*
X126425000Y-98425000I1838478J1838478D01*
G01*
X121986522Y-96586522D02*
G75*
G02*
X126425000Y-98425000I1838478J-1838478D01*
G01*
X121975000Y-96625000D02*
X121975000Y-100225000D01*
%TO.C,J12*%
X130895000Y-115003000D02*
X130895000Y-121303000D01*
X118025000Y-115703000D02*
X118025000Y-121303000D01*
X130895000Y-111293000D02*
X130895000Y-113103000D01*
X118025000Y-111293000D02*
X129285000Y-111293000D01*
X118025000Y-112453000D02*
X118025000Y-111293000D01*
X130785000Y-111293000D02*
X130895000Y-111293000D01*
%TO.C,J5*%
X108010000Y-114300000D02*
X105350000Y-114300000D01*
X108010000Y-114300000D02*
X108010000Y-78680000D01*
X108010000Y-78680000D02*
X105350000Y-78680000D01*
X105350000Y-114300000D02*
X105350000Y-78680000D01*
X105350000Y-116900000D02*
X105350000Y-115570000D01*
X106680000Y-116900000D02*
X105350000Y-116900000D01*
%TO.C,J6*%
X92770000Y-114300000D02*
X90110000Y-114300000D01*
X92770000Y-114300000D02*
X92770000Y-78680000D01*
X92770000Y-78680000D02*
X90110000Y-78680000D01*
X90110000Y-114300000D02*
X90110000Y-78680000D01*
X90110000Y-116900000D02*
X90110000Y-115570000D01*
X91440000Y-116900000D02*
X90110000Y-116900000D01*
%TD*%
M02*
