%TF.GenerationSoftware,KiCad,Pcbnew,5.1.7*%
%TF.CreationDate,2020-10-23T00:09:38-07:00*%
%TF.ProjectId,n64_basic,6e36345f-6261-4736-9963-2e6b69636164,rev?*%
%TF.SameCoordinates,Original*%
%TF.FileFunction,Copper,L2,Bot*%
%TF.FilePolarity,Positive*%
%FSLAX46Y46*%
G04 Gerber Fmt 4.6, Leading zero omitted, Abs format (unit mm)*
G04 Created by KiCad (PCBNEW 5.1.7) date 2020-10-23 00:09:38*
%MOMM*%
%LPD*%
G01*
G04 APERTURE LIST*
%TA.AperFunction,ComponentPad*%
%ADD10O,1.600000X1.600000*%
%TD*%
%TA.AperFunction,ComponentPad*%
%ADD11R,1.600000X1.600000*%
%TD*%
%TA.AperFunction,ComponentPad*%
%ADD12C,1.600000*%
%TD*%
%TA.AperFunction,ComponentPad*%
%ADD13O,1.950000X1.700000*%
%TD*%
%TA.AperFunction,ComponentPad*%
%ADD14R,1.050000X1.500000*%
%TD*%
%TA.AperFunction,ComponentPad*%
%ADD15O,1.050000X1.500000*%
%TD*%
%TA.AperFunction,ComponentPad*%
%ADD16R,1.500000X1.050000*%
%TD*%
%TA.AperFunction,ComponentPad*%
%ADD17O,1.500000X1.050000*%
%TD*%
%TA.AperFunction,ComponentPad*%
%ADD18O,1.700000X1.700000*%
%TD*%
%TA.AperFunction,ComponentPad*%
%ADD19R,1.700000X1.700000*%
%TD*%
%TA.AperFunction,ViaPad*%
%ADD20C,0.800000*%
%TD*%
%TA.AperFunction,Conductor*%
%ADD21C,0.254000*%
%TD*%
%TA.AperFunction,Conductor*%
%ADD22C,0.100000*%
%TD*%
G04 APERTURE END LIST*
D10*
%TO.P,D1,2*%
%TO.N,A0*%
X97472500Y-82677000D03*
D11*
%TO.P,D1,1*%
%TO.N,INT1*%
X97472500Y-92837000D03*
%TD*%
D10*
%TO.P,D2,2*%
%TO.N,A1*%
X100647500Y-82677000D03*
D11*
%TO.P,D2,1*%
%TO.N,INT1*%
X100647500Y-92837000D03*
%TD*%
D10*
%TO.P,D3,2*%
%TO.N,A2*%
X100647500Y-105537000D03*
D11*
%TO.P,D3,1*%
%TO.N,INT1*%
X100647500Y-95377000D03*
%TD*%
D10*
%TO.P,D4,2*%
%TO.N,A3*%
X97472500Y-105537000D03*
D11*
%TO.P,D4,1*%
%TO.N,INT1*%
X97472500Y-95377000D03*
%TD*%
D10*
%TO.P,R1,2*%
%TO.N,A0*%
X120650000Y-89535000D03*
D12*
%TO.P,R1,1*%
%TO.N,5v*%
X110490000Y-89535000D03*
%TD*%
D10*
%TO.P,R2,2*%
%TO.N,A1*%
X120650000Y-86360000D03*
D12*
%TO.P,R2,1*%
%TO.N,5v*%
X110490000Y-86360000D03*
%TD*%
D10*
%TO.P,R3,2*%
%TO.N,A2*%
X120650000Y-83185000D03*
D12*
%TO.P,R3,1*%
%TO.N,5v*%
X110490000Y-83185000D03*
%TD*%
D10*
%TO.P,R4,2*%
%TO.N,A3*%
X120650000Y-80010000D03*
D12*
%TO.P,R4,1*%
%TO.N,5v*%
X110490000Y-80010000D03*
%TD*%
%TO.P,R9,1*%
%TO.N,3v3*%
X97282000Y-119126000D03*
D10*
%TO.P,R9,2*%
%TO.N,SS*%
X107442000Y-119126000D03*
%TD*%
%TO.P,R5,2*%
%TO.N,D10*%
X110490000Y-103505000D03*
D12*
%TO.P,R5,1*%
%TO.N,5v*%
X110490000Y-93345000D03*
%TD*%
%TO.P,R10,1*%
%TO.N,3v3*%
X97282000Y-122174000D03*
D10*
%TO.P,R10,2*%
%TO.N,MOSI*%
X107442000Y-122174000D03*
%TD*%
%TO.P,R6,2*%
%TO.N,D11*%
X113665000Y-103505000D03*
D12*
%TO.P,R6,1*%
%TO.N,5v*%
X113665000Y-93345000D03*
%TD*%
D10*
%TO.P,R11,2*%
%TO.N,MISO*%
X113665000Y-120650000D03*
D12*
%TO.P,R11,1*%
%TO.N,3v3*%
X113665000Y-110490000D03*
%TD*%
D10*
%TO.P,R7,2*%
%TO.N,D12*%
X116840000Y-103505000D03*
D12*
%TO.P,R7,1*%
%TO.N,5v*%
X116840000Y-93345000D03*
%TD*%
D10*
%TO.P,R12,2*%
%TO.N,SCK*%
X110490000Y-120650000D03*
D12*
%TO.P,R12,1*%
%TO.N,3v3*%
X110490000Y-110490000D03*
%TD*%
D10*
%TO.P,R8,2*%
%TO.N,D13*%
X120015000Y-103505000D03*
D12*
%TO.P,R8,1*%
%TO.N,5v*%
X120015000Y-93345000D03*
%TD*%
D13*
%TO.P,J4,3*%
%TO.N,GND*%
X134620000Y-81360000D03*
%TO.P,J4,2*%
%TO.N,Net-(J4-Pad2)*%
X134620000Y-83860000D03*
%TO.P,J4,1*%
%TO.N,Net-(J4-Pad1)*%
%TA.AperFunction,ComponentPad*%
G36*
G01*
X135345000Y-87210000D02*
X133895000Y-87210000D01*
G75*
G02*
X133645000Y-86960000I0J250000D01*
G01*
X133645000Y-85760000D01*
G75*
G02*
X133895000Y-85510000I250000J0D01*
G01*
X135345000Y-85510000D01*
G75*
G02*
X135595000Y-85760000I0J-250000D01*
G01*
X135595000Y-86960000D01*
G75*
G02*
X135345000Y-87210000I-250000J0D01*
G01*
G37*
%TD.AperFunction*%
%TD*%
%TO.P,J2,3*%
%TO.N,GND*%
X134620000Y-104220000D03*
%TO.P,J2,2*%
%TO.N,Net-(J2-Pad2)*%
X134620000Y-106720000D03*
%TO.P,J2,1*%
%TO.N,Net-(J2-Pad1)*%
%TA.AperFunction,ComponentPad*%
G36*
G01*
X135345000Y-110070000D02*
X133895000Y-110070000D01*
G75*
G02*
X133645000Y-109820000I0J250000D01*
G01*
X133645000Y-108620000D01*
G75*
G02*
X133895000Y-108370000I250000J0D01*
G01*
X135345000Y-108370000D01*
G75*
G02*
X135595000Y-108620000I0J-250000D01*
G01*
X135595000Y-109820000D01*
G75*
G02*
X135345000Y-110070000I-250000J0D01*
G01*
G37*
%TD.AperFunction*%
%TD*%
%TO.P,J1,3*%
%TO.N,GND*%
X134620000Y-115650000D03*
%TO.P,J1,2*%
%TO.N,Net-(J1-Pad2)*%
X134620000Y-118150000D03*
%TO.P,J1,1*%
%TO.N,Net-(J1-Pad1)*%
%TA.AperFunction,ComponentPad*%
G36*
G01*
X135345000Y-121500000D02*
X133895000Y-121500000D01*
G75*
G02*
X133645000Y-121250000I0J250000D01*
G01*
X133645000Y-120050000D01*
G75*
G02*
X133895000Y-119800000I250000J0D01*
G01*
X135345000Y-119800000D01*
G75*
G02*
X135595000Y-120050000I0J-250000D01*
G01*
X135595000Y-121250000D01*
G75*
G02*
X135345000Y-121500000I-250000J0D01*
G01*
G37*
%TD.AperFunction*%
%TD*%
%TO.P,J3,3*%
%TO.N,GND*%
X134620000Y-92790000D03*
%TO.P,J3,2*%
%TO.N,Net-(J3-Pad2)*%
X134620000Y-95290000D03*
%TO.P,J3,1*%
%TO.N,Net-(J3-Pad1)*%
%TA.AperFunction,ComponentPad*%
G36*
G01*
X135345000Y-98640000D02*
X133895000Y-98640000D01*
G75*
G02*
X133645000Y-98390000I0J250000D01*
G01*
X133645000Y-97190000D01*
G75*
G02*
X133895000Y-96940000I250000J0D01*
G01*
X135345000Y-96940000D01*
G75*
G02*
X135595000Y-97190000I0J-250000D01*
G01*
X135595000Y-98390000D01*
G75*
G02*
X135345000Y-98640000I-250000J0D01*
G01*
G37*
%TD.AperFunction*%
%TD*%
D14*
%TO.P,Q8,1*%
%TO.N,SCK*%
X130175000Y-106680000D03*
D15*
%TO.P,Q8,3*%
%TO.N,D13*%
X127635000Y-106680000D03*
%TO.P,Q8,2*%
%TO.N,3v3*%
X128905000Y-106680000D03*
%TD*%
D14*
%TO.P,Q7,1*%
%TO.N,MISO*%
X124460000Y-106680000D03*
D15*
%TO.P,Q7,3*%
%TO.N,D12*%
X121920000Y-106680000D03*
%TO.P,Q7,2*%
%TO.N,3v3*%
X123190000Y-106680000D03*
%TD*%
D14*
%TO.P,Q6,1*%
%TO.N,MOSI*%
X118745000Y-106680000D03*
D15*
%TO.P,Q6,3*%
%TO.N,D11*%
X116205000Y-106680000D03*
%TO.P,Q6,2*%
%TO.N,3v3*%
X117475000Y-106680000D03*
%TD*%
D14*
%TO.P,Q5,1*%
%TO.N,SS*%
X113030000Y-106680000D03*
D15*
%TO.P,Q5,3*%
%TO.N,D10*%
X110490000Y-106680000D03*
%TO.P,Q5,2*%
%TO.N,3v3*%
X111760000Y-106680000D03*
%TD*%
D16*
%TO.P,Q4,1*%
%TO.N,Net-(J4-Pad2)*%
X123825000Y-80010000D03*
D17*
%TO.P,Q4,3*%
%TO.N,A3*%
X123825000Y-82550000D03*
%TO.P,Q4,2*%
%TO.N,Net-(J4-Pad1)*%
X123825000Y-81280000D03*
%TD*%
D16*
%TO.P,Q3,1*%
%TO.N,Net-(J3-Pad2)*%
X123825000Y-85725000D03*
D17*
%TO.P,Q3,3*%
%TO.N,A2*%
X123825000Y-88265000D03*
%TO.P,Q3,2*%
%TO.N,Net-(J3-Pad1)*%
X123825000Y-86995000D03*
%TD*%
D16*
%TO.P,Q2,1*%
%TO.N,Net-(J2-Pad2)*%
X123825000Y-91440000D03*
D17*
%TO.P,Q2,3*%
%TO.N,A1*%
X123825000Y-93980000D03*
%TO.P,Q2,2*%
%TO.N,Net-(J2-Pad1)*%
X123825000Y-92710000D03*
%TD*%
D16*
%TO.P,Q1,1*%
%TO.N,Net-(J1-Pad2)*%
X123825000Y-97155000D03*
D17*
%TO.P,Q1,3*%
%TO.N,A0*%
X123825000Y-99695000D03*
%TO.P,Q1,2*%
%TO.N,Net-(J1-Pad1)*%
X123825000Y-98425000D03*
%TD*%
D18*
%TO.P,J5,15*%
%TO.N,Net-(J5-Pad15)*%
X106680000Y-80010000D03*
%TO.P,J5,14*%
%TO.N,GND*%
X106680000Y-82550000D03*
%TO.P,J5,13*%
%TO.N,Net-(J5-Pad13)*%
X106680000Y-85090000D03*
%TO.P,J5,12*%
%TO.N,5v*%
X106680000Y-87630000D03*
%TO.P,J5,11*%
%TO.N,GND*%
X106680000Y-90170000D03*
%TO.P,J5,10*%
X106680000Y-92710000D03*
%TO.P,J5,9*%
X106680000Y-95250000D03*
%TO.P,J5,8*%
X106680000Y-97790000D03*
%TO.P,J5,7*%
%TO.N,A3*%
X106680000Y-100330000D03*
%TO.P,J5,6*%
%TO.N,A2*%
X106680000Y-102870000D03*
%TO.P,J5,5*%
%TO.N,A1*%
X106680000Y-105410000D03*
%TO.P,J5,4*%
%TO.N,A0*%
X106680000Y-107950000D03*
%TO.P,J5,3*%
%TO.N,Net-(J5-Pad3)*%
X106680000Y-110490000D03*
%TO.P,J5,2*%
%TO.N,3v3*%
X106680000Y-113030000D03*
D19*
%TO.P,J5,1*%
%TO.N,D13*%
X106680000Y-115570000D03*
%TD*%
D18*
%TO.P,J6,15*%
%TO.N,TX*%
X91440000Y-80010000D03*
%TO.P,J6,14*%
%TO.N,RX*%
X91440000Y-82550000D03*
%TO.P,J6,13*%
%TO.N,Net-(J6-Pad13)*%
X91440000Y-85090000D03*
%TO.P,J6,12*%
%TO.N,GND*%
X91440000Y-87630000D03*
%TO.P,J6,11*%
%TO.N,INT1*%
X91440000Y-90170000D03*
%TO.P,J6,10*%
%TO.N,Net-(J6-Pad10)*%
X91440000Y-92710000D03*
%TO.P,J6,9*%
%TO.N,Net-(J6-Pad9)*%
X91440000Y-95250000D03*
%TO.P,J6,8*%
%TO.N,Net-(J6-Pad8)*%
X91440000Y-97790000D03*
%TO.P,J6,7*%
%TO.N,Net-(J6-Pad7)*%
X91440000Y-100330000D03*
%TO.P,J6,6*%
%TO.N,Net-(J6-Pad6)*%
X91440000Y-102870000D03*
%TO.P,J6,5*%
%TO.N,Net-(J6-Pad5)*%
X91440000Y-105410000D03*
%TO.P,J6,4*%
%TO.N,Net-(J6-Pad4)*%
X91440000Y-107950000D03*
%TO.P,J6,3*%
%TO.N,D10*%
X91440000Y-110490000D03*
%TO.P,J6,2*%
%TO.N,D11*%
X91440000Y-113030000D03*
D19*
%TO.P,J6,1*%
%TO.N,D12*%
X91440000Y-115570000D03*
%TD*%
D20*
%TO.N,GND*%
X121285000Y-120650000D03*
%TO.N,3v3*%
X124335000Y-120013000D03*
X120557999Y-111217001D03*
X120557999Y-114969999D03*
%TO.N,A2*%
X104140000Y-102870000D03*
%TO.N,A3*%
X104140000Y-100330000D03*
%TO.N,D11*%
X108421962Y-107950000D03*
X104775000Y-109220000D03*
%TO.N,D10*%
X104775000Y-106680000D03*
%TO.N,MISO*%
X116840000Y-120650000D03*
X121285000Y-110490000D03*
%TO.N,SCK*%
X118110000Y-119380000D03*
X114049533Y-119122467D03*
%TO.N,MOSI*%
X116840000Y-112268000D03*
%TO.N,SS*%
X117856000Y-117602000D03*
X114808000Y-117602000D03*
X112014000Y-111252000D03*
%TD*%
D21*
%TO.N,GND*%
X107172001Y-82057999D02*
X106680000Y-82550000D01*
%TO.N,3v3*%
X111760000Y-106680000D02*
X111760000Y-106045000D01*
X117475000Y-106520076D02*
X117475000Y-106680000D01*
X111760000Y-109220000D02*
X110490000Y-110490000D01*
X111760000Y-106680000D02*
X111760000Y-109220000D01*
X109220000Y-110490000D02*
X106680000Y-113030000D01*
X110490000Y-110490000D02*
X109220000Y-110490000D01*
X117475000Y-106680000D02*
X117475000Y-106045000D01*
X123190000Y-106520076D02*
X123190000Y-106680000D01*
X123190000Y-106680000D02*
X123190000Y-106045000D01*
X127987914Y-105602990D02*
X128905000Y-106520076D01*
X128905000Y-106520076D02*
X128905000Y-106680000D01*
X123632010Y-105602990D02*
X127987914Y-105602990D01*
X123190000Y-106045000D02*
X123632010Y-105602990D01*
X123190000Y-106905000D02*
X123190000Y-106680000D01*
X123190000Y-107509038D02*
X123190000Y-106680000D01*
X120557999Y-110141039D02*
X123190000Y-107509038D01*
X120557999Y-111217001D02*
X120557999Y-110141039D01*
X120557999Y-115477999D02*
X124335000Y-119255000D01*
X124335000Y-119255000D02*
X124335000Y-120013000D01*
X120557999Y-114969999D02*
X120557999Y-115477999D01*
%TO.N,A2*%
X106680000Y-102870000D02*
X104140000Y-102870000D01*
%TO.N,A3*%
X106680000Y-100330000D02*
X104140000Y-100330000D01*
%TO.N,5v*%
X110490000Y-89535000D02*
X110490000Y-93345000D01*
%TO.N,D12*%
X119872001Y-104632001D02*
X121920000Y-106680000D01*
X117967001Y-104632001D02*
X119872001Y-104632001D01*
X116840000Y-103505000D02*
X117967001Y-104632001D01*
%TO.N,D11*%
X107151962Y-109220000D02*
X108421962Y-107950000D01*
X104775000Y-109220000D02*
X107151962Y-109220000D01*
X116205000Y-106045000D02*
X116205000Y-106680000D01*
X113665000Y-103505000D02*
X116205000Y-106045000D01*
%TO.N,D10*%
X110490000Y-106680000D02*
X104775000Y-106680000D01*
%TO.N,MISO*%
X124460000Y-106680000D02*
X124460000Y-107315000D01*
X124460000Y-107315000D02*
X121285000Y-110490000D01*
X116840000Y-120650000D02*
X113665000Y-120650000D01*
%TO.N,SCK*%
X117852467Y-119122467D02*
X118110000Y-119380000D01*
X114049533Y-119122467D02*
X117852467Y-119122467D01*
%TO.N,MOSI*%
X118745000Y-107950000D02*
X118745000Y-106680000D01*
X116840000Y-109855000D02*
X118745000Y-107950000D01*
X116840000Y-109855000D02*
X116840000Y-112268000D01*
%TO.N,SS*%
X117856000Y-117602000D02*
X114808000Y-117602000D01*
X113030000Y-106680000D02*
X113030000Y-108592066D01*
X113030000Y-108592066D02*
X112014000Y-109608066D01*
X112014000Y-109608066D02*
X112014000Y-111252000D01*
%TD*%
%TO.N,GND*%
X105733368Y-78856525D02*
X105526525Y-79063368D01*
X105364010Y-79306589D01*
X105252068Y-79576842D01*
X105195000Y-79863740D01*
X105195000Y-80156260D01*
X105252068Y-80443158D01*
X105364010Y-80713411D01*
X105526525Y-80956632D01*
X105733368Y-81163475D01*
X105915534Y-81285195D01*
X105798645Y-81354822D01*
X105582412Y-81549731D01*
X105408359Y-81783080D01*
X105283175Y-82045901D01*
X105238524Y-82193110D01*
X105359845Y-82423000D01*
X106553000Y-82423000D01*
X106553000Y-82403000D01*
X106807000Y-82403000D01*
X106807000Y-82423000D01*
X108000155Y-82423000D01*
X108121476Y-82193110D01*
X108076825Y-82045901D01*
X107951641Y-81783080D01*
X107777588Y-81549731D01*
X107561355Y-81354822D01*
X107444466Y-81285195D01*
X107626632Y-81163475D01*
X107833475Y-80956632D01*
X107995990Y-80713411D01*
X108107932Y-80443158D01*
X108165000Y-80156260D01*
X108165000Y-79863740D01*
X108107932Y-79576842D01*
X107995990Y-79306589D01*
X107833475Y-79063368D01*
X107626632Y-78856525D01*
X107489655Y-78765000D01*
X109770343Y-78765000D01*
X109575241Y-78895363D01*
X109375363Y-79095241D01*
X109218320Y-79330273D01*
X109110147Y-79591426D01*
X109055000Y-79868665D01*
X109055000Y-80151335D01*
X109110147Y-80428574D01*
X109218320Y-80689727D01*
X109375363Y-80924759D01*
X109575241Y-81124637D01*
X109810273Y-81281680D01*
X110071426Y-81389853D01*
X110348665Y-81445000D01*
X110631335Y-81445000D01*
X110908574Y-81389853D01*
X111169727Y-81281680D01*
X111404759Y-81124637D01*
X111604637Y-80924759D01*
X111761680Y-80689727D01*
X111869853Y-80428574D01*
X111925000Y-80151335D01*
X111925000Y-79868665D01*
X111869853Y-79591426D01*
X111761680Y-79330273D01*
X111604637Y-79095241D01*
X111404759Y-78895363D01*
X111209657Y-78765000D01*
X119930343Y-78765000D01*
X119735241Y-78895363D01*
X119535363Y-79095241D01*
X119378320Y-79330273D01*
X119270147Y-79591426D01*
X119215000Y-79868665D01*
X119215000Y-80151335D01*
X119270147Y-80428574D01*
X119378320Y-80689727D01*
X119535363Y-80924759D01*
X119735241Y-81124637D01*
X119970273Y-81281680D01*
X120231426Y-81389853D01*
X120508665Y-81445000D01*
X120791335Y-81445000D01*
X121068574Y-81389853D01*
X121329727Y-81281680D01*
X121332241Y-81280000D01*
X122434388Y-81280000D01*
X122456785Y-81507400D01*
X122523115Y-81726060D01*
X122624105Y-81915000D01*
X122523115Y-82103940D01*
X122456785Y-82322600D01*
X122434388Y-82550000D01*
X122456785Y-82777400D01*
X122523115Y-82996060D01*
X122630829Y-83197579D01*
X122775788Y-83374212D01*
X122952421Y-83519171D01*
X123153940Y-83626885D01*
X123372600Y-83693215D01*
X123543021Y-83710000D01*
X124106979Y-83710000D01*
X124277400Y-83693215D01*
X124496060Y-83626885D01*
X124697579Y-83519171D01*
X124874212Y-83374212D01*
X125019171Y-83197579D01*
X125126885Y-82996060D01*
X125193215Y-82777400D01*
X125215612Y-82550000D01*
X125193215Y-82322600D01*
X125126885Y-82103940D01*
X125025895Y-81915000D01*
X125126885Y-81726060D01*
X125193215Y-81507400D01*
X125215612Y-81280000D01*
X125193215Y-81052600D01*
X125178203Y-81003110D01*
X133053524Y-81003110D01*
X133174845Y-81233000D01*
X134493000Y-81233000D01*
X134493000Y-80033835D01*
X134747000Y-80033835D01*
X134747000Y-81233000D01*
X136065155Y-81233000D01*
X136186476Y-81003110D01*
X136094352Y-80740142D01*
X135947496Y-80488807D01*
X135754429Y-80270951D01*
X135522570Y-80094947D01*
X135260830Y-79967558D01*
X134979267Y-79893680D01*
X134747000Y-80033835D01*
X134493000Y-80033835D01*
X134260733Y-79893680D01*
X133979170Y-79967558D01*
X133717430Y-80094947D01*
X133485571Y-80270951D01*
X133292504Y-80488807D01*
X133145648Y-80740142D01*
X133053524Y-81003110D01*
X125178203Y-81003110D01*
X125129907Y-80843902D01*
X125164502Y-80779180D01*
X125200812Y-80659482D01*
X125213072Y-80535000D01*
X125213072Y-79485000D01*
X125200812Y-79360518D01*
X125164502Y-79240820D01*
X125105537Y-79130506D01*
X125026185Y-79033815D01*
X124929494Y-78954463D01*
X124819180Y-78895498D01*
X124699482Y-78859188D01*
X124575000Y-78846928D01*
X123075000Y-78846928D01*
X122950518Y-78859188D01*
X122830820Y-78895498D01*
X122720506Y-78954463D01*
X122623815Y-79033815D01*
X122544463Y-79130506D01*
X122485498Y-79240820D01*
X122449188Y-79360518D01*
X122436928Y-79485000D01*
X122436928Y-80535000D01*
X122449188Y-80659482D01*
X122485498Y-80779180D01*
X122520093Y-80843902D01*
X122456785Y-81052600D01*
X122434388Y-81280000D01*
X121332241Y-81280000D01*
X121564759Y-81124637D01*
X121764637Y-80924759D01*
X121921680Y-80689727D01*
X122029853Y-80428574D01*
X122085000Y-80151335D01*
X122085000Y-79868665D01*
X122029853Y-79591426D01*
X121921680Y-79330273D01*
X121764637Y-79095241D01*
X121564759Y-78895363D01*
X121369657Y-78765000D01*
X143485000Y-78765000D01*
X143485001Y-123165000D01*
X108480396Y-123165000D01*
X108556637Y-123088759D01*
X108713680Y-122853727D01*
X108821853Y-122592574D01*
X108877000Y-122315335D01*
X108877000Y-122032665D01*
X108821853Y-121755426D01*
X108713680Y-121494273D01*
X108556637Y-121259241D01*
X108356759Y-121059363D01*
X108121727Y-120902320D01*
X107860574Y-120794147D01*
X107583335Y-120739000D01*
X107300665Y-120739000D01*
X107023426Y-120794147D01*
X106762273Y-120902320D01*
X106527241Y-121059363D01*
X106327363Y-121259241D01*
X106170320Y-121494273D01*
X106062147Y-121755426D01*
X106007000Y-122032665D01*
X106007000Y-122315335D01*
X106062147Y-122592574D01*
X106170320Y-122853727D01*
X106327363Y-123088759D01*
X106403604Y-123165000D01*
X98320396Y-123165000D01*
X98396637Y-123088759D01*
X98553680Y-122853727D01*
X98661853Y-122592574D01*
X98717000Y-122315335D01*
X98717000Y-122032665D01*
X98661853Y-121755426D01*
X98553680Y-121494273D01*
X98396637Y-121259241D01*
X98196759Y-121059363D01*
X97961727Y-120902320D01*
X97700574Y-120794147D01*
X97423335Y-120739000D01*
X97140665Y-120739000D01*
X96863426Y-120794147D01*
X96602273Y-120902320D01*
X96367241Y-121059363D01*
X96167363Y-121259241D01*
X96010320Y-121494273D01*
X95902147Y-121755426D01*
X95847000Y-122032665D01*
X95847000Y-122315335D01*
X95902147Y-122592574D01*
X96010320Y-122853727D01*
X96167363Y-123088759D01*
X96243604Y-123165000D01*
X90195000Y-123165000D01*
X90195000Y-118984665D01*
X95847000Y-118984665D01*
X95847000Y-119267335D01*
X95902147Y-119544574D01*
X96010320Y-119805727D01*
X96167363Y-120040759D01*
X96367241Y-120240637D01*
X96602273Y-120397680D01*
X96863426Y-120505853D01*
X97140665Y-120561000D01*
X97423335Y-120561000D01*
X97700574Y-120505853D01*
X97961727Y-120397680D01*
X98196759Y-120240637D01*
X98396637Y-120040759D01*
X98553680Y-119805727D01*
X98661853Y-119544574D01*
X98717000Y-119267335D01*
X98717000Y-118984665D01*
X106007000Y-118984665D01*
X106007000Y-119267335D01*
X106062147Y-119544574D01*
X106170320Y-119805727D01*
X106327363Y-120040759D01*
X106527241Y-120240637D01*
X106762273Y-120397680D01*
X107023426Y-120505853D01*
X107300665Y-120561000D01*
X107583335Y-120561000D01*
X107846437Y-120508665D01*
X109055000Y-120508665D01*
X109055000Y-120791335D01*
X109110147Y-121068574D01*
X109218320Y-121329727D01*
X109375363Y-121564759D01*
X109575241Y-121764637D01*
X109810273Y-121921680D01*
X110071426Y-122029853D01*
X110348665Y-122085000D01*
X110631335Y-122085000D01*
X110908574Y-122029853D01*
X111169727Y-121921680D01*
X111404759Y-121764637D01*
X111604637Y-121564759D01*
X111761680Y-121329727D01*
X111869853Y-121068574D01*
X111925000Y-120791335D01*
X111925000Y-120508665D01*
X112230000Y-120508665D01*
X112230000Y-120791335D01*
X112285147Y-121068574D01*
X112393320Y-121329727D01*
X112550363Y-121564759D01*
X112750241Y-121764637D01*
X112985273Y-121921680D01*
X113246426Y-122029853D01*
X113523665Y-122085000D01*
X113806335Y-122085000D01*
X114083574Y-122029853D01*
X114344727Y-121921680D01*
X114579759Y-121764637D01*
X114779637Y-121564759D01*
X114881707Y-121412000D01*
X116138289Y-121412000D01*
X116180226Y-121453937D01*
X116349744Y-121567205D01*
X116538102Y-121645226D01*
X116738061Y-121685000D01*
X116941939Y-121685000D01*
X117141898Y-121645226D01*
X117330256Y-121567205D01*
X117499774Y-121453937D01*
X117643937Y-121309774D01*
X117757205Y-121140256D01*
X117835226Y-120951898D01*
X117875000Y-120751939D01*
X117875000Y-120548061D01*
X117841961Y-120381961D01*
X118008061Y-120415000D01*
X118211939Y-120415000D01*
X118411898Y-120375226D01*
X118600256Y-120297205D01*
X118769774Y-120183937D01*
X118913937Y-120039774D01*
X119027205Y-119870256D01*
X119105226Y-119681898D01*
X119145000Y-119481939D01*
X119145000Y-119278061D01*
X119105226Y-119078102D01*
X119027205Y-118889744D01*
X118913937Y-118720226D01*
X118769774Y-118576063D01*
X118600256Y-118462795D01*
X118495574Y-118419434D01*
X118515774Y-118405937D01*
X118659937Y-118261774D01*
X118773205Y-118092256D01*
X118851226Y-117903898D01*
X118891000Y-117703939D01*
X118891000Y-117500061D01*
X118851226Y-117300102D01*
X118773205Y-117111744D01*
X118659937Y-116942226D01*
X118515774Y-116798063D01*
X118346256Y-116684795D01*
X118157898Y-116606774D01*
X117957939Y-116567000D01*
X117754061Y-116567000D01*
X117554102Y-116606774D01*
X117365744Y-116684795D01*
X117196226Y-116798063D01*
X117154289Y-116840000D01*
X115509711Y-116840000D01*
X115467774Y-116798063D01*
X115298256Y-116684795D01*
X115109898Y-116606774D01*
X114909939Y-116567000D01*
X114706061Y-116567000D01*
X114506102Y-116606774D01*
X114317744Y-116684795D01*
X114148226Y-116798063D01*
X114004063Y-116942226D01*
X113890795Y-117111744D01*
X113812774Y-117300102D01*
X113773000Y-117500061D01*
X113773000Y-117703939D01*
X113812774Y-117903898D01*
X113890795Y-118092256D01*
X113894634Y-118098001D01*
X113747635Y-118127241D01*
X113559277Y-118205262D01*
X113389759Y-118318530D01*
X113245596Y-118462693D01*
X113132328Y-118632211D01*
X113054307Y-118820569D01*
X113014533Y-119020528D01*
X113014533Y-119224406D01*
X113040590Y-119355407D01*
X112985273Y-119378320D01*
X112750241Y-119535363D01*
X112550363Y-119735241D01*
X112393320Y-119970273D01*
X112285147Y-120231426D01*
X112230000Y-120508665D01*
X111925000Y-120508665D01*
X111869853Y-120231426D01*
X111761680Y-119970273D01*
X111604637Y-119735241D01*
X111404759Y-119535363D01*
X111169727Y-119378320D01*
X110908574Y-119270147D01*
X110631335Y-119215000D01*
X110348665Y-119215000D01*
X110071426Y-119270147D01*
X109810273Y-119378320D01*
X109575241Y-119535363D01*
X109375363Y-119735241D01*
X109218320Y-119970273D01*
X109110147Y-120231426D01*
X109055000Y-120508665D01*
X107846437Y-120508665D01*
X107860574Y-120505853D01*
X108121727Y-120397680D01*
X108356759Y-120240637D01*
X108556637Y-120040759D01*
X108713680Y-119805727D01*
X108821853Y-119544574D01*
X108877000Y-119267335D01*
X108877000Y-118984665D01*
X108821853Y-118707426D01*
X108713680Y-118446273D01*
X108556637Y-118211241D01*
X108356759Y-118011363D01*
X108121727Y-117854320D01*
X107860574Y-117746147D01*
X107583335Y-117691000D01*
X107300665Y-117691000D01*
X107023426Y-117746147D01*
X106762273Y-117854320D01*
X106527241Y-118011363D01*
X106327363Y-118211241D01*
X106170320Y-118446273D01*
X106062147Y-118707426D01*
X106007000Y-118984665D01*
X98717000Y-118984665D01*
X98661853Y-118707426D01*
X98553680Y-118446273D01*
X98396637Y-118211241D01*
X98196759Y-118011363D01*
X97961727Y-117854320D01*
X97700574Y-117746147D01*
X97423335Y-117691000D01*
X97140665Y-117691000D01*
X96863426Y-117746147D01*
X96602273Y-117854320D01*
X96367241Y-118011363D01*
X96167363Y-118211241D01*
X96010320Y-118446273D01*
X95902147Y-118707426D01*
X95847000Y-118984665D01*
X90195000Y-118984665D01*
X90195000Y-116917295D01*
X90235506Y-116950537D01*
X90345820Y-117009502D01*
X90465518Y-117045812D01*
X90590000Y-117058072D01*
X92290000Y-117058072D01*
X92414482Y-117045812D01*
X92534180Y-117009502D01*
X92644494Y-116950537D01*
X92741185Y-116871185D01*
X92820537Y-116774494D01*
X92879502Y-116664180D01*
X92915812Y-116544482D01*
X92928072Y-116420000D01*
X92928072Y-114720000D01*
X92915812Y-114595518D01*
X92879502Y-114475820D01*
X92820537Y-114365506D01*
X92741185Y-114268815D01*
X92644494Y-114189463D01*
X92534180Y-114130498D01*
X92461620Y-114108487D01*
X92593475Y-113976632D01*
X92755990Y-113733411D01*
X92867932Y-113463158D01*
X92925000Y-113176260D01*
X92925000Y-112883740D01*
X92867932Y-112596842D01*
X92755990Y-112326589D01*
X92593475Y-112083368D01*
X92386632Y-111876525D01*
X92212240Y-111760000D01*
X92386632Y-111643475D01*
X92593475Y-111436632D01*
X92755990Y-111193411D01*
X92867932Y-110923158D01*
X92925000Y-110636260D01*
X92925000Y-110343740D01*
X92867932Y-110056842D01*
X92755990Y-109786589D01*
X92593475Y-109543368D01*
X92386632Y-109336525D01*
X92212240Y-109220000D01*
X92386632Y-109103475D01*
X92593475Y-108896632D01*
X92755990Y-108653411D01*
X92867932Y-108383158D01*
X92925000Y-108096260D01*
X92925000Y-107803740D01*
X92867932Y-107516842D01*
X92755990Y-107246589D01*
X92593475Y-107003368D01*
X92386632Y-106796525D01*
X92212240Y-106680000D01*
X92386632Y-106563475D01*
X92593475Y-106356632D01*
X92755990Y-106113411D01*
X92867932Y-105843158D01*
X92925000Y-105556260D01*
X92925000Y-105395665D01*
X96037500Y-105395665D01*
X96037500Y-105678335D01*
X96092647Y-105955574D01*
X96200820Y-106216727D01*
X96357863Y-106451759D01*
X96557741Y-106651637D01*
X96792773Y-106808680D01*
X97053926Y-106916853D01*
X97331165Y-106972000D01*
X97613835Y-106972000D01*
X97891074Y-106916853D01*
X98152227Y-106808680D01*
X98387259Y-106651637D01*
X98587137Y-106451759D01*
X98744180Y-106216727D01*
X98852353Y-105955574D01*
X98907500Y-105678335D01*
X98907500Y-105395665D01*
X99212500Y-105395665D01*
X99212500Y-105678335D01*
X99267647Y-105955574D01*
X99375820Y-106216727D01*
X99532863Y-106451759D01*
X99732741Y-106651637D01*
X99967773Y-106808680D01*
X100228926Y-106916853D01*
X100506165Y-106972000D01*
X100788835Y-106972000D01*
X101066074Y-106916853D01*
X101327227Y-106808680D01*
X101562259Y-106651637D01*
X101762137Y-106451759D01*
X101919180Y-106216727D01*
X102027353Y-105955574D01*
X102082500Y-105678335D01*
X102082500Y-105395665D01*
X102027353Y-105118426D01*
X101919180Y-104857273D01*
X101762137Y-104622241D01*
X101562259Y-104422363D01*
X101327227Y-104265320D01*
X101066074Y-104157147D01*
X100788835Y-104102000D01*
X100506165Y-104102000D01*
X100228926Y-104157147D01*
X99967773Y-104265320D01*
X99732741Y-104422363D01*
X99532863Y-104622241D01*
X99375820Y-104857273D01*
X99267647Y-105118426D01*
X99212500Y-105395665D01*
X98907500Y-105395665D01*
X98852353Y-105118426D01*
X98744180Y-104857273D01*
X98587137Y-104622241D01*
X98387259Y-104422363D01*
X98152227Y-104265320D01*
X97891074Y-104157147D01*
X97613835Y-104102000D01*
X97331165Y-104102000D01*
X97053926Y-104157147D01*
X96792773Y-104265320D01*
X96557741Y-104422363D01*
X96357863Y-104622241D01*
X96200820Y-104857273D01*
X96092647Y-105118426D01*
X96037500Y-105395665D01*
X92925000Y-105395665D01*
X92925000Y-105263740D01*
X92867932Y-104976842D01*
X92755990Y-104706589D01*
X92593475Y-104463368D01*
X92386632Y-104256525D01*
X92212240Y-104140000D01*
X92386632Y-104023475D01*
X92593475Y-103816632D01*
X92755990Y-103573411D01*
X92867932Y-103303158D01*
X92925000Y-103016260D01*
X92925000Y-102723740D01*
X92867932Y-102436842D01*
X92755990Y-102166589D01*
X92593475Y-101923368D01*
X92386632Y-101716525D01*
X92212240Y-101600000D01*
X92386632Y-101483475D01*
X92593475Y-101276632D01*
X92755990Y-101033411D01*
X92867932Y-100763158D01*
X92925000Y-100476260D01*
X92925000Y-100228061D01*
X103105000Y-100228061D01*
X103105000Y-100431939D01*
X103144774Y-100631898D01*
X103222795Y-100820256D01*
X103336063Y-100989774D01*
X103480226Y-101133937D01*
X103649744Y-101247205D01*
X103838102Y-101325226D01*
X104038061Y-101365000D01*
X104241939Y-101365000D01*
X104441898Y-101325226D01*
X104630256Y-101247205D01*
X104799774Y-101133937D01*
X104841711Y-101092000D01*
X105403158Y-101092000D01*
X105526525Y-101276632D01*
X105733368Y-101483475D01*
X105907760Y-101600000D01*
X105733368Y-101716525D01*
X105526525Y-101923368D01*
X105403158Y-102108000D01*
X104841711Y-102108000D01*
X104799774Y-102066063D01*
X104630256Y-101952795D01*
X104441898Y-101874774D01*
X104241939Y-101835000D01*
X104038061Y-101835000D01*
X103838102Y-101874774D01*
X103649744Y-101952795D01*
X103480226Y-102066063D01*
X103336063Y-102210226D01*
X103222795Y-102379744D01*
X103144774Y-102568102D01*
X103105000Y-102768061D01*
X103105000Y-102971939D01*
X103144774Y-103171898D01*
X103222795Y-103360256D01*
X103336063Y-103529774D01*
X103480226Y-103673937D01*
X103649744Y-103787205D01*
X103838102Y-103865226D01*
X104038061Y-103905000D01*
X104241939Y-103905000D01*
X104441898Y-103865226D01*
X104630256Y-103787205D01*
X104799774Y-103673937D01*
X104841711Y-103632000D01*
X105403158Y-103632000D01*
X105526525Y-103816632D01*
X105733368Y-104023475D01*
X105907760Y-104140000D01*
X105733368Y-104256525D01*
X105526525Y-104463368D01*
X105364010Y-104706589D01*
X105252068Y-104976842D01*
X105195000Y-105263740D01*
X105195000Y-105556260D01*
X105233463Y-105749626D01*
X105076898Y-105684774D01*
X104876939Y-105645000D01*
X104673061Y-105645000D01*
X104473102Y-105684774D01*
X104284744Y-105762795D01*
X104115226Y-105876063D01*
X103971063Y-106020226D01*
X103857795Y-106189744D01*
X103779774Y-106378102D01*
X103740000Y-106578061D01*
X103740000Y-106781939D01*
X103779774Y-106981898D01*
X103857795Y-107170256D01*
X103971063Y-107339774D01*
X104115226Y-107483937D01*
X104284744Y-107597205D01*
X104473102Y-107675226D01*
X104673061Y-107715000D01*
X104876939Y-107715000D01*
X105076898Y-107675226D01*
X105233463Y-107610374D01*
X105195000Y-107803740D01*
X105195000Y-108096260D01*
X105233463Y-108289626D01*
X105076898Y-108224774D01*
X104876939Y-108185000D01*
X104673061Y-108185000D01*
X104473102Y-108224774D01*
X104284744Y-108302795D01*
X104115226Y-108416063D01*
X103971063Y-108560226D01*
X103857795Y-108729744D01*
X103779774Y-108918102D01*
X103740000Y-109118061D01*
X103740000Y-109321939D01*
X103779774Y-109521898D01*
X103857795Y-109710256D01*
X103971063Y-109879774D01*
X104115226Y-110023937D01*
X104284744Y-110137205D01*
X104473102Y-110215226D01*
X104673061Y-110255000D01*
X104876939Y-110255000D01*
X105076898Y-110215226D01*
X105233463Y-110150374D01*
X105195000Y-110343740D01*
X105195000Y-110636260D01*
X105252068Y-110923158D01*
X105364010Y-111193411D01*
X105526525Y-111436632D01*
X105733368Y-111643475D01*
X105907760Y-111760000D01*
X105733368Y-111876525D01*
X105526525Y-112083368D01*
X105364010Y-112326589D01*
X105252068Y-112596842D01*
X105195000Y-112883740D01*
X105195000Y-113176260D01*
X105252068Y-113463158D01*
X105364010Y-113733411D01*
X105526525Y-113976632D01*
X105658380Y-114108487D01*
X105585820Y-114130498D01*
X105475506Y-114189463D01*
X105378815Y-114268815D01*
X105299463Y-114365506D01*
X105240498Y-114475820D01*
X105204188Y-114595518D01*
X105191928Y-114720000D01*
X105191928Y-116420000D01*
X105204188Y-116544482D01*
X105240498Y-116664180D01*
X105299463Y-116774494D01*
X105378815Y-116871185D01*
X105475506Y-116950537D01*
X105585820Y-117009502D01*
X105705518Y-117045812D01*
X105830000Y-117058072D01*
X107530000Y-117058072D01*
X107654482Y-117045812D01*
X107774180Y-117009502D01*
X107884494Y-116950537D01*
X107981185Y-116871185D01*
X108060537Y-116774494D01*
X108119502Y-116664180D01*
X108155812Y-116544482D01*
X108168072Y-116420000D01*
X108168072Y-114868060D01*
X119522999Y-114868060D01*
X119522999Y-115071938D01*
X119562773Y-115271897D01*
X119640794Y-115460255D01*
X119754062Y-115629773D01*
X119831130Y-115706841D01*
X119850597Y-115771014D01*
X119921354Y-115903391D01*
X120016578Y-116019421D01*
X120045648Y-116043278D01*
X123460781Y-119458411D01*
X123417795Y-119522744D01*
X123339774Y-119711102D01*
X123300000Y-119911061D01*
X123300000Y-120114939D01*
X123339774Y-120314898D01*
X123417795Y-120503256D01*
X123531063Y-120672774D01*
X123675226Y-120816937D01*
X123844744Y-120930205D01*
X124033102Y-121008226D01*
X124233061Y-121048000D01*
X124436939Y-121048000D01*
X124636898Y-121008226D01*
X124825256Y-120930205D01*
X124994774Y-120816937D01*
X125138937Y-120672774D01*
X125252205Y-120503256D01*
X125330226Y-120314898D01*
X125370000Y-120114939D01*
X125370000Y-119911061D01*
X125330226Y-119711102D01*
X125252205Y-119522744D01*
X125138937Y-119353226D01*
X125097000Y-119311289D01*
X125097000Y-119292422D01*
X125100686Y-119254999D01*
X125093200Y-119178992D01*
X125085974Y-119105622D01*
X125042402Y-118961985D01*
X124971645Y-118829608D01*
X124876422Y-118713578D01*
X124847353Y-118689722D01*
X124307631Y-118150000D01*
X133002815Y-118150000D01*
X133031487Y-118441111D01*
X133116401Y-118721034D01*
X133254294Y-118979014D01*
X133439866Y-119205134D01*
X133503337Y-119257223D01*
X133401614Y-119311595D01*
X133267038Y-119422038D01*
X133156595Y-119556614D01*
X133074528Y-119710150D01*
X133023992Y-119876746D01*
X133006928Y-120050000D01*
X133006928Y-121250000D01*
X133023992Y-121423254D01*
X133074528Y-121589850D01*
X133156595Y-121743386D01*
X133267038Y-121877962D01*
X133401614Y-121988405D01*
X133555150Y-122070472D01*
X133721746Y-122121008D01*
X133895000Y-122138072D01*
X135345000Y-122138072D01*
X135518254Y-122121008D01*
X135684850Y-122070472D01*
X135838386Y-121988405D01*
X135972962Y-121877962D01*
X136083405Y-121743386D01*
X136165472Y-121589850D01*
X136216008Y-121423254D01*
X136233072Y-121250000D01*
X136233072Y-120050000D01*
X136216008Y-119876746D01*
X136165472Y-119710150D01*
X136083405Y-119556614D01*
X135972962Y-119422038D01*
X135838386Y-119311595D01*
X135736663Y-119257223D01*
X135800134Y-119205134D01*
X135985706Y-118979014D01*
X136123599Y-118721034D01*
X136208513Y-118441111D01*
X136237185Y-118150000D01*
X136208513Y-117858889D01*
X136123599Y-117578966D01*
X135985706Y-117320986D01*
X135800134Y-117094866D01*
X135574014Y-116909294D01*
X135548278Y-116895538D01*
X135754429Y-116739049D01*
X135947496Y-116521193D01*
X136094352Y-116269858D01*
X136186476Y-116006890D01*
X136065155Y-115777000D01*
X134747000Y-115777000D01*
X134747000Y-115797000D01*
X134493000Y-115797000D01*
X134493000Y-115777000D01*
X133174845Y-115777000D01*
X133053524Y-116006890D01*
X133145648Y-116269858D01*
X133292504Y-116521193D01*
X133485571Y-116739049D01*
X133691722Y-116895538D01*
X133665986Y-116909294D01*
X133439866Y-117094866D01*
X133254294Y-117320986D01*
X133116401Y-117578966D01*
X133031487Y-117858889D01*
X133002815Y-118150000D01*
X124307631Y-118150000D01*
X121516995Y-115359364D01*
X121544438Y-115293110D01*
X133053524Y-115293110D01*
X133174845Y-115523000D01*
X134493000Y-115523000D01*
X134493000Y-114323835D01*
X134747000Y-114323835D01*
X134747000Y-115523000D01*
X136065155Y-115523000D01*
X136186476Y-115293110D01*
X136094352Y-115030142D01*
X135947496Y-114778807D01*
X135754429Y-114560951D01*
X135522570Y-114384947D01*
X135260830Y-114257558D01*
X134979267Y-114183680D01*
X134747000Y-114323835D01*
X134493000Y-114323835D01*
X134260733Y-114183680D01*
X133979170Y-114257558D01*
X133717430Y-114384947D01*
X133485571Y-114560951D01*
X133292504Y-114778807D01*
X133145648Y-115030142D01*
X133053524Y-115293110D01*
X121544438Y-115293110D01*
X121553225Y-115271897D01*
X121592999Y-115071938D01*
X121592999Y-114868060D01*
X121553225Y-114668101D01*
X121475204Y-114479743D01*
X121361936Y-114310225D01*
X121217773Y-114166062D01*
X121048255Y-114052794D01*
X120859897Y-113974773D01*
X120659938Y-113934999D01*
X120456060Y-113934999D01*
X120256101Y-113974773D01*
X120067743Y-114052794D01*
X119898225Y-114166062D01*
X119754062Y-114310225D01*
X119640794Y-114479743D01*
X119562773Y-114668101D01*
X119522999Y-114868060D01*
X108168072Y-114868060D01*
X108168072Y-114720000D01*
X108155812Y-114595518D01*
X108119502Y-114475820D01*
X108060537Y-114365506D01*
X107981185Y-114268815D01*
X107884494Y-114189463D01*
X107774180Y-114130498D01*
X107701620Y-114108487D01*
X107833475Y-113976632D01*
X107995990Y-113733411D01*
X108107932Y-113463158D01*
X108165000Y-113176260D01*
X108165000Y-112883740D01*
X108121679Y-112665952D01*
X109379117Y-111408513D01*
X109575241Y-111604637D01*
X109810273Y-111761680D01*
X110071426Y-111869853D01*
X110348665Y-111925000D01*
X110631335Y-111925000D01*
X110908574Y-111869853D01*
X111122770Y-111781130D01*
X111210063Y-111911774D01*
X111354226Y-112055937D01*
X111523744Y-112169205D01*
X111712102Y-112247226D01*
X111912061Y-112287000D01*
X112115939Y-112287000D01*
X112315898Y-112247226D01*
X112504256Y-112169205D01*
X112673774Y-112055937D01*
X112817937Y-111911774D01*
X112931205Y-111742256D01*
X112936624Y-111729174D01*
X112985273Y-111761680D01*
X113246426Y-111869853D01*
X113523665Y-111925000D01*
X113806335Y-111925000D01*
X114083574Y-111869853D01*
X114344727Y-111761680D01*
X114579759Y-111604637D01*
X114779637Y-111404759D01*
X114936680Y-111169727D01*
X115044853Y-110908574D01*
X115100000Y-110631335D01*
X115100000Y-110348665D01*
X115044853Y-110071426D01*
X114936680Y-109810273D01*
X114779637Y-109575241D01*
X114579759Y-109375363D01*
X114344727Y-109218320D01*
X114083574Y-109110147D01*
X113806335Y-109055000D01*
X113635836Y-109055000D01*
X113666645Y-109017459D01*
X113719752Y-108918102D01*
X113737402Y-108885081D01*
X113780974Y-108741444D01*
X113792000Y-108629492D01*
X113792000Y-108629489D01*
X113795686Y-108592066D01*
X113792000Y-108554643D01*
X113792000Y-108021680D01*
X113799180Y-108019502D01*
X113909494Y-107960537D01*
X114006185Y-107881185D01*
X114085537Y-107784494D01*
X114144502Y-107674180D01*
X114180812Y-107554482D01*
X114193072Y-107430000D01*
X114193072Y-105930000D01*
X114180812Y-105805518D01*
X114144502Y-105685820D01*
X114085537Y-105575506D01*
X114006185Y-105478815D01*
X113909494Y-105399463D01*
X113799180Y-105340498D01*
X113679482Y-105304188D01*
X113555000Y-105291928D01*
X112505000Y-105291928D01*
X112380518Y-105304188D01*
X112260820Y-105340498D01*
X112196098Y-105375093D01*
X111987400Y-105311785D01*
X111958556Y-105308944D01*
X111909378Y-105294026D01*
X111760000Y-105279314D01*
X111610623Y-105294026D01*
X111561445Y-105308944D01*
X111532601Y-105311785D01*
X111313941Y-105378115D01*
X111125000Y-105479106D01*
X110936060Y-105378115D01*
X110717400Y-105311785D01*
X110490000Y-105289388D01*
X110262601Y-105311785D01*
X110043941Y-105378115D01*
X109842422Y-105485829D01*
X109665789Y-105630788D01*
X109520830Y-105807421D01*
X109461724Y-105918000D01*
X108076932Y-105918000D01*
X108107932Y-105843158D01*
X108165000Y-105556260D01*
X108165000Y-105263740D01*
X108107932Y-104976842D01*
X107995990Y-104706589D01*
X107833475Y-104463368D01*
X107626632Y-104256525D01*
X107452240Y-104140000D01*
X107626632Y-104023475D01*
X107833475Y-103816632D01*
X107995990Y-103573411D01*
X108082869Y-103363665D01*
X109055000Y-103363665D01*
X109055000Y-103646335D01*
X109110147Y-103923574D01*
X109218320Y-104184727D01*
X109375363Y-104419759D01*
X109575241Y-104619637D01*
X109810273Y-104776680D01*
X110071426Y-104884853D01*
X110348665Y-104940000D01*
X110631335Y-104940000D01*
X110908574Y-104884853D01*
X111169727Y-104776680D01*
X111404759Y-104619637D01*
X111604637Y-104419759D01*
X111761680Y-104184727D01*
X111869853Y-103923574D01*
X111925000Y-103646335D01*
X111925000Y-103363665D01*
X112230000Y-103363665D01*
X112230000Y-103646335D01*
X112285147Y-103923574D01*
X112393320Y-104184727D01*
X112550363Y-104419759D01*
X112750241Y-104619637D01*
X112985273Y-104776680D01*
X113246426Y-104884853D01*
X113523665Y-104940000D01*
X113806335Y-104940000D01*
X113986527Y-104904157D01*
X115119549Y-106037179D01*
X115061785Y-106227600D01*
X115045000Y-106398021D01*
X115045000Y-106961978D01*
X115061785Y-107132399D01*
X115128115Y-107351059D01*
X115235829Y-107552578D01*
X115380788Y-107729212D01*
X115557421Y-107874171D01*
X115758940Y-107981885D01*
X115977600Y-108048215D01*
X116205000Y-108070612D01*
X116432399Y-108048215D01*
X116651059Y-107981885D01*
X116840000Y-107880894D01*
X117028940Y-107981885D01*
X117247600Y-108048215D01*
X117475000Y-108070612D01*
X117554597Y-108062772D01*
X116327654Y-109289716D01*
X116298578Y-109313578D01*
X116262326Y-109357752D01*
X116203355Y-109429608D01*
X116200473Y-109435000D01*
X116132598Y-109561986D01*
X116089026Y-109705623D01*
X116081445Y-109782598D01*
X116074314Y-109855000D01*
X116078000Y-109892423D01*
X116078001Y-111566288D01*
X116036063Y-111608226D01*
X115922795Y-111777744D01*
X115844774Y-111966102D01*
X115805000Y-112166061D01*
X115805000Y-112369939D01*
X115844774Y-112569898D01*
X115922795Y-112758256D01*
X116036063Y-112927774D01*
X116180226Y-113071937D01*
X116349744Y-113185205D01*
X116538102Y-113263226D01*
X116738061Y-113303000D01*
X116941939Y-113303000D01*
X117141898Y-113263226D01*
X117330256Y-113185205D01*
X117499774Y-113071937D01*
X117643937Y-112927774D01*
X117757205Y-112758256D01*
X117835226Y-112569898D01*
X117875000Y-112369939D01*
X117875000Y-112166061D01*
X117835226Y-111966102D01*
X117757205Y-111777744D01*
X117643937Y-111608226D01*
X117602000Y-111566289D01*
X117602000Y-110170630D01*
X119257353Y-108515278D01*
X119286422Y-108491422D01*
X119328413Y-108440256D01*
X119381645Y-108375393D01*
X119447654Y-108251898D01*
X119452402Y-108243015D01*
X119495974Y-108099378D01*
X119503522Y-108022735D01*
X119514180Y-108019502D01*
X119624494Y-107960537D01*
X119721185Y-107881185D01*
X119800537Y-107784494D01*
X119859502Y-107674180D01*
X119895812Y-107554482D01*
X119908072Y-107430000D01*
X119908072Y-105930000D01*
X119895812Y-105805518D01*
X119864428Y-105702058D01*
X120760000Y-106597631D01*
X120760000Y-106961978D01*
X120776785Y-107132399D01*
X120843115Y-107351059D01*
X120950829Y-107552578D01*
X121095788Y-107729212D01*
X121272421Y-107874171D01*
X121473940Y-107981885D01*
X121600984Y-108020424D01*
X120045648Y-109575760D01*
X120016578Y-109599617D01*
X119992721Y-109628687D01*
X119992720Y-109628688D01*
X119921354Y-109715647D01*
X119850598Y-109848024D01*
X119807026Y-109991661D01*
X119792313Y-110141039D01*
X119796000Y-110178472D01*
X119796000Y-110515289D01*
X119754062Y-110557227D01*
X119640794Y-110726745D01*
X119562773Y-110915103D01*
X119522999Y-111115062D01*
X119522999Y-111318940D01*
X119562773Y-111518899D01*
X119640794Y-111707257D01*
X119754062Y-111876775D01*
X119898225Y-112020938D01*
X120067743Y-112134206D01*
X120256101Y-112212227D01*
X120456060Y-112252001D01*
X120659938Y-112252001D01*
X120859897Y-112212227D01*
X121048255Y-112134206D01*
X121217773Y-112020938D01*
X121361936Y-111876775D01*
X121475204Y-111707257D01*
X121553225Y-111518899D01*
X121558812Y-111490813D01*
X121586898Y-111485226D01*
X121775256Y-111407205D01*
X121944774Y-111293937D01*
X122088937Y-111149774D01*
X122202205Y-110980256D01*
X122280226Y-110791898D01*
X122320000Y-110591939D01*
X122320000Y-110532630D01*
X124784559Y-108068072D01*
X124985000Y-108068072D01*
X125109482Y-108055812D01*
X125229180Y-108019502D01*
X125339494Y-107960537D01*
X125436185Y-107881185D01*
X125515537Y-107784494D01*
X125574502Y-107674180D01*
X125610812Y-107554482D01*
X125623072Y-107430000D01*
X125623072Y-106364990D01*
X126478253Y-106364990D01*
X126475000Y-106398021D01*
X126475000Y-106961978D01*
X126491785Y-107132399D01*
X126558115Y-107351059D01*
X126665829Y-107552578D01*
X126810788Y-107729212D01*
X126987421Y-107874171D01*
X127188940Y-107981885D01*
X127407600Y-108048215D01*
X127635000Y-108070612D01*
X127862399Y-108048215D01*
X128081059Y-107981885D01*
X128270000Y-107880894D01*
X128458940Y-107981885D01*
X128677600Y-108048215D01*
X128905000Y-108070612D01*
X129132399Y-108048215D01*
X129341098Y-107984907D01*
X129405820Y-108019502D01*
X129525518Y-108055812D01*
X129650000Y-108068072D01*
X130700000Y-108068072D01*
X130824482Y-108055812D01*
X130944180Y-108019502D01*
X131054494Y-107960537D01*
X131151185Y-107881185D01*
X131230537Y-107784494D01*
X131289502Y-107674180D01*
X131325812Y-107554482D01*
X131338072Y-107430000D01*
X131338072Y-106720000D01*
X133002815Y-106720000D01*
X133031487Y-107011111D01*
X133116401Y-107291034D01*
X133254294Y-107549014D01*
X133439866Y-107775134D01*
X133503337Y-107827223D01*
X133401614Y-107881595D01*
X133267038Y-107992038D01*
X133156595Y-108126614D01*
X133074528Y-108280150D01*
X133023992Y-108446746D01*
X133006928Y-108620000D01*
X133006928Y-109820000D01*
X133023992Y-109993254D01*
X133074528Y-110159850D01*
X133156595Y-110313386D01*
X133267038Y-110447962D01*
X133401614Y-110558405D01*
X133555150Y-110640472D01*
X133721746Y-110691008D01*
X133895000Y-110708072D01*
X135345000Y-110708072D01*
X135518254Y-110691008D01*
X135684850Y-110640472D01*
X135838386Y-110558405D01*
X135972962Y-110447962D01*
X136083405Y-110313386D01*
X136165472Y-110159850D01*
X136216008Y-109993254D01*
X136233072Y-109820000D01*
X136233072Y-108620000D01*
X136216008Y-108446746D01*
X136165472Y-108280150D01*
X136083405Y-108126614D01*
X135972962Y-107992038D01*
X135838386Y-107881595D01*
X135736663Y-107827223D01*
X135800134Y-107775134D01*
X135985706Y-107549014D01*
X136123599Y-107291034D01*
X136208513Y-107011111D01*
X136237185Y-106720000D01*
X136208513Y-106428889D01*
X136123599Y-106148966D01*
X135985706Y-105890986D01*
X135800134Y-105664866D01*
X135574014Y-105479294D01*
X135548278Y-105465538D01*
X135754429Y-105309049D01*
X135947496Y-105091193D01*
X136094352Y-104839858D01*
X136186476Y-104576890D01*
X136065155Y-104347000D01*
X134747000Y-104347000D01*
X134747000Y-104367000D01*
X134493000Y-104367000D01*
X134493000Y-104347000D01*
X133174845Y-104347000D01*
X133053524Y-104576890D01*
X133145648Y-104839858D01*
X133292504Y-105091193D01*
X133485571Y-105309049D01*
X133691722Y-105465538D01*
X133665986Y-105479294D01*
X133439866Y-105664866D01*
X133254294Y-105890986D01*
X133116401Y-106148966D01*
X133031487Y-106428889D01*
X133002815Y-106720000D01*
X131338072Y-106720000D01*
X131338072Y-105930000D01*
X131325812Y-105805518D01*
X131289502Y-105685820D01*
X131230537Y-105575506D01*
X131151185Y-105478815D01*
X131054494Y-105399463D01*
X130944180Y-105340498D01*
X130824482Y-105304188D01*
X130700000Y-105291928D01*
X129650000Y-105291928D01*
X129525518Y-105304188D01*
X129405820Y-105340498D01*
X129341098Y-105375093D01*
X129132400Y-105311785D01*
X128905000Y-105289388D01*
X128765666Y-105303111D01*
X128553198Y-105090644D01*
X128529336Y-105061568D01*
X128413306Y-104966345D01*
X128280929Y-104895588D01*
X128137292Y-104852016D01*
X128025340Y-104840990D01*
X128025337Y-104840990D01*
X127987914Y-104837304D01*
X127950491Y-104840990D01*
X123669433Y-104840990D01*
X123632010Y-104837304D01*
X123594587Y-104840990D01*
X123594584Y-104840990D01*
X123482632Y-104852016D01*
X123338995Y-104895588D01*
X123283939Y-104925016D01*
X123206617Y-104966345D01*
X123193827Y-104976842D01*
X123090588Y-105061568D01*
X123066722Y-105090649D01*
X122794632Y-105362738D01*
X122743941Y-105378115D01*
X122555000Y-105479106D01*
X122366060Y-105378115D01*
X122147400Y-105311785D01*
X121920000Y-105289388D01*
X121692601Y-105311785D01*
X121644122Y-105326491D01*
X120933513Y-104615883D01*
X121129637Y-104419759D01*
X121286680Y-104184727D01*
X121394853Y-103923574D01*
X121406880Y-103863110D01*
X133053524Y-103863110D01*
X133174845Y-104093000D01*
X134493000Y-104093000D01*
X134493000Y-102893835D01*
X134747000Y-102893835D01*
X134747000Y-104093000D01*
X136065155Y-104093000D01*
X136186476Y-103863110D01*
X136094352Y-103600142D01*
X135947496Y-103348807D01*
X135754429Y-103130951D01*
X135522570Y-102954947D01*
X135260830Y-102827558D01*
X134979267Y-102753680D01*
X134747000Y-102893835D01*
X134493000Y-102893835D01*
X134260733Y-102753680D01*
X133979170Y-102827558D01*
X133717430Y-102954947D01*
X133485571Y-103130951D01*
X133292504Y-103348807D01*
X133145648Y-103600142D01*
X133053524Y-103863110D01*
X121406880Y-103863110D01*
X121450000Y-103646335D01*
X121450000Y-103363665D01*
X121394853Y-103086426D01*
X121286680Y-102825273D01*
X121129637Y-102590241D01*
X120929759Y-102390363D01*
X120694727Y-102233320D01*
X120433574Y-102125147D01*
X120156335Y-102070000D01*
X119873665Y-102070000D01*
X119596426Y-102125147D01*
X119335273Y-102233320D01*
X119100241Y-102390363D01*
X118900363Y-102590241D01*
X118743320Y-102825273D01*
X118635147Y-103086426D01*
X118580000Y-103363665D01*
X118580000Y-103646335D01*
X118624491Y-103870001D01*
X118282632Y-103870001D01*
X118239157Y-103826526D01*
X118275000Y-103646335D01*
X118275000Y-103363665D01*
X118219853Y-103086426D01*
X118111680Y-102825273D01*
X117954637Y-102590241D01*
X117754759Y-102390363D01*
X117519727Y-102233320D01*
X117258574Y-102125147D01*
X116981335Y-102070000D01*
X116698665Y-102070000D01*
X116421426Y-102125147D01*
X116160273Y-102233320D01*
X115925241Y-102390363D01*
X115725363Y-102590241D01*
X115568320Y-102825273D01*
X115460147Y-103086426D01*
X115405000Y-103363665D01*
X115405000Y-103646335D01*
X115460147Y-103923574D01*
X115568320Y-104184727D01*
X115725363Y-104419759D01*
X115925241Y-104619637D01*
X116160273Y-104776680D01*
X116421426Y-104884853D01*
X116698665Y-104940000D01*
X116981335Y-104940000D01*
X117161526Y-104904157D01*
X117401721Y-105144352D01*
X117425579Y-105173423D01*
X117541609Y-105268646D01*
X117581121Y-105289766D01*
X117475000Y-105279314D01*
X117325623Y-105294026D01*
X117276445Y-105308944D01*
X117247601Y-105311785D01*
X117028941Y-105378115D01*
X116840000Y-105479106D01*
X116651060Y-105378115D01*
X116600369Y-105362738D01*
X115064157Y-103826527D01*
X115100000Y-103646335D01*
X115100000Y-103363665D01*
X115044853Y-103086426D01*
X114936680Y-102825273D01*
X114779637Y-102590241D01*
X114579759Y-102390363D01*
X114344727Y-102233320D01*
X114083574Y-102125147D01*
X113806335Y-102070000D01*
X113523665Y-102070000D01*
X113246426Y-102125147D01*
X112985273Y-102233320D01*
X112750241Y-102390363D01*
X112550363Y-102590241D01*
X112393320Y-102825273D01*
X112285147Y-103086426D01*
X112230000Y-103363665D01*
X111925000Y-103363665D01*
X111869853Y-103086426D01*
X111761680Y-102825273D01*
X111604637Y-102590241D01*
X111404759Y-102390363D01*
X111169727Y-102233320D01*
X110908574Y-102125147D01*
X110631335Y-102070000D01*
X110348665Y-102070000D01*
X110071426Y-102125147D01*
X109810273Y-102233320D01*
X109575241Y-102390363D01*
X109375363Y-102590241D01*
X109218320Y-102825273D01*
X109110147Y-103086426D01*
X109055000Y-103363665D01*
X108082869Y-103363665D01*
X108107932Y-103303158D01*
X108165000Y-103016260D01*
X108165000Y-102723740D01*
X108107932Y-102436842D01*
X107995990Y-102166589D01*
X107833475Y-101923368D01*
X107626632Y-101716525D01*
X107452240Y-101600000D01*
X107626632Y-101483475D01*
X107833475Y-101276632D01*
X107995990Y-101033411D01*
X108107932Y-100763158D01*
X108165000Y-100476260D01*
X108165000Y-100183740D01*
X108107932Y-99896842D01*
X107995990Y-99626589D01*
X107833475Y-99383368D01*
X107626632Y-99176525D01*
X107444466Y-99054805D01*
X107561355Y-98985178D01*
X107777588Y-98790269D01*
X107951641Y-98556920D01*
X108014475Y-98425000D01*
X122434388Y-98425000D01*
X122456785Y-98652400D01*
X122523115Y-98871060D01*
X122624105Y-99060000D01*
X122523115Y-99248940D01*
X122456785Y-99467600D01*
X122434388Y-99695000D01*
X122456785Y-99922400D01*
X122523115Y-100141060D01*
X122630829Y-100342579D01*
X122775788Y-100519212D01*
X122952421Y-100664171D01*
X123153940Y-100771885D01*
X123372600Y-100838215D01*
X123543021Y-100855000D01*
X124106979Y-100855000D01*
X124277400Y-100838215D01*
X124496060Y-100771885D01*
X124697579Y-100664171D01*
X124874212Y-100519212D01*
X125019171Y-100342579D01*
X125126885Y-100141060D01*
X125193215Y-99922400D01*
X125215612Y-99695000D01*
X125193215Y-99467600D01*
X125126885Y-99248940D01*
X125025895Y-99060000D01*
X125126885Y-98871060D01*
X125193215Y-98652400D01*
X125215612Y-98425000D01*
X125193215Y-98197600D01*
X125129907Y-97988902D01*
X125164502Y-97924180D01*
X125200812Y-97804482D01*
X125213072Y-97680000D01*
X125213072Y-96630000D01*
X125200812Y-96505518D01*
X125164502Y-96385820D01*
X125105537Y-96275506D01*
X125026185Y-96178815D01*
X124929494Y-96099463D01*
X124819180Y-96040498D01*
X124699482Y-96004188D01*
X124575000Y-95991928D01*
X123075000Y-95991928D01*
X122950518Y-96004188D01*
X122830820Y-96040498D01*
X122720506Y-96099463D01*
X122623815Y-96178815D01*
X122544463Y-96275506D01*
X122485498Y-96385820D01*
X122449188Y-96505518D01*
X122436928Y-96630000D01*
X122436928Y-97680000D01*
X122449188Y-97804482D01*
X122485498Y-97924180D01*
X122520093Y-97988902D01*
X122456785Y-98197600D01*
X122434388Y-98425000D01*
X108014475Y-98425000D01*
X108076825Y-98294099D01*
X108121476Y-98146890D01*
X108000155Y-97917000D01*
X106807000Y-97917000D01*
X106807000Y-97937000D01*
X106553000Y-97937000D01*
X106553000Y-97917000D01*
X105359845Y-97917000D01*
X105238524Y-98146890D01*
X105283175Y-98294099D01*
X105408359Y-98556920D01*
X105582412Y-98790269D01*
X105798645Y-98985178D01*
X105915534Y-99054805D01*
X105733368Y-99176525D01*
X105526525Y-99383368D01*
X105403158Y-99568000D01*
X104841711Y-99568000D01*
X104799774Y-99526063D01*
X104630256Y-99412795D01*
X104441898Y-99334774D01*
X104241939Y-99295000D01*
X104038061Y-99295000D01*
X103838102Y-99334774D01*
X103649744Y-99412795D01*
X103480226Y-99526063D01*
X103336063Y-99670226D01*
X103222795Y-99839744D01*
X103144774Y-100028102D01*
X103105000Y-100228061D01*
X92925000Y-100228061D01*
X92925000Y-100183740D01*
X92867932Y-99896842D01*
X92755990Y-99626589D01*
X92593475Y-99383368D01*
X92386632Y-99176525D01*
X92212240Y-99060000D01*
X92386632Y-98943475D01*
X92593475Y-98736632D01*
X92755990Y-98493411D01*
X92867932Y-98223158D01*
X92925000Y-97936260D01*
X92925000Y-97643740D01*
X92867932Y-97356842D01*
X92755990Y-97086589D01*
X92593475Y-96843368D01*
X92386632Y-96636525D01*
X92212240Y-96520000D01*
X92386632Y-96403475D01*
X92593475Y-96196632D01*
X92755990Y-95953411D01*
X92867932Y-95683158D01*
X92925000Y-95396260D01*
X92925000Y-95103740D01*
X92867932Y-94816842D01*
X92755990Y-94546589D01*
X92593475Y-94303368D01*
X92386632Y-94096525D01*
X92212240Y-93980000D01*
X92386632Y-93863475D01*
X92593475Y-93656632D01*
X92755990Y-93413411D01*
X92867932Y-93143158D01*
X92925000Y-92856260D01*
X92925000Y-92563740D01*
X92867932Y-92276842D01*
X92768587Y-92037000D01*
X96034428Y-92037000D01*
X96034428Y-93637000D01*
X96046688Y-93761482D01*
X96082998Y-93881180D01*
X96141963Y-93991494D01*
X96221315Y-94088185D01*
X96244241Y-94107000D01*
X96221315Y-94125815D01*
X96141963Y-94222506D01*
X96082998Y-94332820D01*
X96046688Y-94452518D01*
X96034428Y-94577000D01*
X96034428Y-96177000D01*
X96046688Y-96301482D01*
X96082998Y-96421180D01*
X96141963Y-96531494D01*
X96221315Y-96628185D01*
X96318006Y-96707537D01*
X96428320Y-96766502D01*
X96548018Y-96802812D01*
X96672500Y-96815072D01*
X98272500Y-96815072D01*
X98396982Y-96802812D01*
X98516680Y-96766502D01*
X98626994Y-96707537D01*
X98723685Y-96628185D01*
X98803037Y-96531494D01*
X98862002Y-96421180D01*
X98898312Y-96301482D01*
X98910572Y-96177000D01*
X98910572Y-94577000D01*
X98898312Y-94452518D01*
X98862002Y-94332820D01*
X98803037Y-94222506D01*
X98723685Y-94125815D01*
X98700759Y-94107000D01*
X98723685Y-94088185D01*
X98803037Y-93991494D01*
X98862002Y-93881180D01*
X98898312Y-93761482D01*
X98910572Y-93637000D01*
X98910572Y-92037000D01*
X99209428Y-92037000D01*
X99209428Y-93637000D01*
X99221688Y-93761482D01*
X99257998Y-93881180D01*
X99316963Y-93991494D01*
X99396315Y-94088185D01*
X99419241Y-94107000D01*
X99396315Y-94125815D01*
X99316963Y-94222506D01*
X99257998Y-94332820D01*
X99221688Y-94452518D01*
X99209428Y-94577000D01*
X99209428Y-96177000D01*
X99221688Y-96301482D01*
X99257998Y-96421180D01*
X99316963Y-96531494D01*
X99396315Y-96628185D01*
X99493006Y-96707537D01*
X99603320Y-96766502D01*
X99723018Y-96802812D01*
X99847500Y-96815072D01*
X101447500Y-96815072D01*
X101571982Y-96802812D01*
X101691680Y-96766502D01*
X101801994Y-96707537D01*
X101898685Y-96628185D01*
X101978037Y-96531494D01*
X102037002Y-96421180D01*
X102073312Y-96301482D01*
X102085572Y-96177000D01*
X102085572Y-95606890D01*
X105238524Y-95606890D01*
X105283175Y-95754099D01*
X105408359Y-96016920D01*
X105582412Y-96250269D01*
X105798645Y-96445178D01*
X105924255Y-96520000D01*
X105798645Y-96594822D01*
X105582412Y-96789731D01*
X105408359Y-97023080D01*
X105283175Y-97285901D01*
X105238524Y-97433110D01*
X105359845Y-97663000D01*
X106553000Y-97663000D01*
X106553000Y-95377000D01*
X106807000Y-95377000D01*
X106807000Y-97663000D01*
X108000155Y-97663000D01*
X108121476Y-97433110D01*
X108076825Y-97285901D01*
X107951641Y-97023080D01*
X107777588Y-96789731D01*
X107561355Y-96594822D01*
X107435745Y-96520000D01*
X107561355Y-96445178D01*
X107777588Y-96250269D01*
X107951641Y-96016920D01*
X108076825Y-95754099D01*
X108121476Y-95606890D01*
X108000155Y-95377000D01*
X106807000Y-95377000D01*
X106553000Y-95377000D01*
X105359845Y-95377000D01*
X105238524Y-95606890D01*
X102085572Y-95606890D01*
X102085572Y-95290000D01*
X133002815Y-95290000D01*
X133031487Y-95581111D01*
X133116401Y-95861034D01*
X133254294Y-96119014D01*
X133439866Y-96345134D01*
X133503337Y-96397223D01*
X133401614Y-96451595D01*
X133267038Y-96562038D01*
X133156595Y-96696614D01*
X133074528Y-96850150D01*
X133023992Y-97016746D01*
X133006928Y-97190000D01*
X133006928Y-98390000D01*
X133023992Y-98563254D01*
X133074528Y-98729850D01*
X133156595Y-98883386D01*
X133267038Y-99017962D01*
X133401614Y-99128405D01*
X133555150Y-99210472D01*
X133721746Y-99261008D01*
X133895000Y-99278072D01*
X135345000Y-99278072D01*
X135518254Y-99261008D01*
X135684850Y-99210472D01*
X135838386Y-99128405D01*
X135972962Y-99017962D01*
X136083405Y-98883386D01*
X136165472Y-98729850D01*
X136216008Y-98563254D01*
X136233072Y-98390000D01*
X136233072Y-97190000D01*
X136216008Y-97016746D01*
X136165472Y-96850150D01*
X136083405Y-96696614D01*
X135972962Y-96562038D01*
X135838386Y-96451595D01*
X135736663Y-96397223D01*
X135800134Y-96345134D01*
X135985706Y-96119014D01*
X136123599Y-95861034D01*
X136208513Y-95581111D01*
X136237185Y-95290000D01*
X136208513Y-94998889D01*
X136123599Y-94718966D01*
X135985706Y-94460986D01*
X135800134Y-94234866D01*
X135574014Y-94049294D01*
X135548278Y-94035538D01*
X135754429Y-93879049D01*
X135947496Y-93661193D01*
X136094352Y-93409858D01*
X136186476Y-93146890D01*
X136065155Y-92917000D01*
X134747000Y-92917000D01*
X134747000Y-92937000D01*
X134493000Y-92937000D01*
X134493000Y-92917000D01*
X133174845Y-92917000D01*
X133053524Y-93146890D01*
X133145648Y-93409858D01*
X133292504Y-93661193D01*
X133485571Y-93879049D01*
X133691722Y-94035538D01*
X133665986Y-94049294D01*
X133439866Y-94234866D01*
X133254294Y-94460986D01*
X133116401Y-94718966D01*
X133031487Y-94998889D01*
X133002815Y-95290000D01*
X102085572Y-95290000D01*
X102085572Y-94577000D01*
X102073312Y-94452518D01*
X102037002Y-94332820D01*
X101978037Y-94222506D01*
X101898685Y-94125815D01*
X101875759Y-94107000D01*
X101898685Y-94088185D01*
X101978037Y-93991494D01*
X102037002Y-93881180D01*
X102073312Y-93761482D01*
X102085572Y-93637000D01*
X102085572Y-93066890D01*
X105238524Y-93066890D01*
X105283175Y-93214099D01*
X105408359Y-93476920D01*
X105582412Y-93710269D01*
X105798645Y-93905178D01*
X105924255Y-93980000D01*
X105798645Y-94054822D01*
X105582412Y-94249731D01*
X105408359Y-94483080D01*
X105283175Y-94745901D01*
X105238524Y-94893110D01*
X105359845Y-95123000D01*
X106553000Y-95123000D01*
X106553000Y-92837000D01*
X106807000Y-92837000D01*
X106807000Y-95123000D01*
X108000155Y-95123000D01*
X108121476Y-94893110D01*
X108076825Y-94745901D01*
X107951641Y-94483080D01*
X107777588Y-94249731D01*
X107561355Y-94054822D01*
X107435745Y-93980000D01*
X107561355Y-93905178D01*
X107777588Y-93710269D01*
X107951641Y-93476920D01*
X108076825Y-93214099D01*
X108121476Y-93066890D01*
X108000155Y-92837000D01*
X106807000Y-92837000D01*
X106553000Y-92837000D01*
X105359845Y-92837000D01*
X105238524Y-93066890D01*
X102085572Y-93066890D01*
X102085572Y-92037000D01*
X102073312Y-91912518D01*
X102037002Y-91792820D01*
X101978037Y-91682506D01*
X101898685Y-91585815D01*
X101801994Y-91506463D01*
X101691680Y-91447498D01*
X101571982Y-91411188D01*
X101447500Y-91398928D01*
X99847500Y-91398928D01*
X99723018Y-91411188D01*
X99603320Y-91447498D01*
X99493006Y-91506463D01*
X99396315Y-91585815D01*
X99316963Y-91682506D01*
X99257998Y-91792820D01*
X99221688Y-91912518D01*
X99209428Y-92037000D01*
X98910572Y-92037000D01*
X98898312Y-91912518D01*
X98862002Y-91792820D01*
X98803037Y-91682506D01*
X98723685Y-91585815D01*
X98626994Y-91506463D01*
X98516680Y-91447498D01*
X98396982Y-91411188D01*
X98272500Y-91398928D01*
X96672500Y-91398928D01*
X96548018Y-91411188D01*
X96428320Y-91447498D01*
X96318006Y-91506463D01*
X96221315Y-91585815D01*
X96141963Y-91682506D01*
X96082998Y-91792820D01*
X96046688Y-91912518D01*
X96034428Y-92037000D01*
X92768587Y-92037000D01*
X92755990Y-92006589D01*
X92593475Y-91763368D01*
X92386632Y-91556525D01*
X92212240Y-91440000D01*
X92386632Y-91323475D01*
X92593475Y-91116632D01*
X92755990Y-90873411D01*
X92867932Y-90603158D01*
X92883102Y-90526890D01*
X105238524Y-90526890D01*
X105283175Y-90674099D01*
X105408359Y-90936920D01*
X105582412Y-91170269D01*
X105798645Y-91365178D01*
X105924255Y-91440000D01*
X105798645Y-91514822D01*
X105582412Y-91709731D01*
X105408359Y-91943080D01*
X105283175Y-92205901D01*
X105238524Y-92353110D01*
X105359845Y-92583000D01*
X106553000Y-92583000D01*
X106553000Y-90297000D01*
X106807000Y-90297000D01*
X106807000Y-92583000D01*
X108000155Y-92583000D01*
X108121476Y-92353110D01*
X108076825Y-92205901D01*
X107951641Y-91943080D01*
X107777588Y-91709731D01*
X107561355Y-91514822D01*
X107435745Y-91440000D01*
X107561355Y-91365178D01*
X107777588Y-91170269D01*
X107951641Y-90936920D01*
X108076825Y-90674099D01*
X108121476Y-90526890D01*
X108000155Y-90297000D01*
X106807000Y-90297000D01*
X106553000Y-90297000D01*
X105359845Y-90297000D01*
X105238524Y-90526890D01*
X92883102Y-90526890D01*
X92925000Y-90316260D01*
X92925000Y-90023740D01*
X92867932Y-89736842D01*
X92755990Y-89466589D01*
X92593475Y-89223368D01*
X92386632Y-89016525D01*
X92204466Y-88894805D01*
X92321355Y-88825178D01*
X92537588Y-88630269D01*
X92711641Y-88396920D01*
X92836825Y-88134099D01*
X92881476Y-87986890D01*
X92760155Y-87757000D01*
X91567000Y-87757000D01*
X91567000Y-87777000D01*
X91313000Y-87777000D01*
X91313000Y-87757000D01*
X91293000Y-87757000D01*
X91293000Y-87503000D01*
X91313000Y-87503000D01*
X91313000Y-87483000D01*
X91567000Y-87483000D01*
X91567000Y-87503000D01*
X92760155Y-87503000D01*
X92881476Y-87273110D01*
X92836825Y-87125901D01*
X92711641Y-86863080D01*
X92537588Y-86629731D01*
X92321355Y-86434822D01*
X92204466Y-86365195D01*
X92386632Y-86243475D01*
X92593475Y-86036632D01*
X92755990Y-85793411D01*
X92867932Y-85523158D01*
X92925000Y-85236260D01*
X92925000Y-84943740D01*
X105195000Y-84943740D01*
X105195000Y-85236260D01*
X105252068Y-85523158D01*
X105364010Y-85793411D01*
X105526525Y-86036632D01*
X105733368Y-86243475D01*
X105907760Y-86360000D01*
X105733368Y-86476525D01*
X105526525Y-86683368D01*
X105364010Y-86926589D01*
X105252068Y-87196842D01*
X105195000Y-87483740D01*
X105195000Y-87776260D01*
X105252068Y-88063158D01*
X105364010Y-88333411D01*
X105526525Y-88576632D01*
X105733368Y-88783475D01*
X105915534Y-88905195D01*
X105798645Y-88974822D01*
X105582412Y-89169731D01*
X105408359Y-89403080D01*
X105283175Y-89665901D01*
X105238524Y-89813110D01*
X105359845Y-90043000D01*
X106553000Y-90043000D01*
X106553000Y-90023000D01*
X106807000Y-90023000D01*
X106807000Y-90043000D01*
X108000155Y-90043000D01*
X108121476Y-89813110D01*
X108076825Y-89665901D01*
X107951641Y-89403080D01*
X107944619Y-89393665D01*
X109055000Y-89393665D01*
X109055000Y-89676335D01*
X109110147Y-89953574D01*
X109218320Y-90214727D01*
X109375363Y-90449759D01*
X109575241Y-90649637D01*
X109728000Y-90751707D01*
X109728001Y-92128292D01*
X109575241Y-92230363D01*
X109375363Y-92430241D01*
X109218320Y-92665273D01*
X109110147Y-92926426D01*
X109055000Y-93203665D01*
X109055000Y-93486335D01*
X109110147Y-93763574D01*
X109218320Y-94024727D01*
X109375363Y-94259759D01*
X109575241Y-94459637D01*
X109810273Y-94616680D01*
X110071426Y-94724853D01*
X110348665Y-94780000D01*
X110631335Y-94780000D01*
X110908574Y-94724853D01*
X111169727Y-94616680D01*
X111404759Y-94459637D01*
X111604637Y-94259759D01*
X111761680Y-94024727D01*
X111869853Y-93763574D01*
X111925000Y-93486335D01*
X111925000Y-93203665D01*
X112230000Y-93203665D01*
X112230000Y-93486335D01*
X112285147Y-93763574D01*
X112393320Y-94024727D01*
X112550363Y-94259759D01*
X112750241Y-94459637D01*
X112985273Y-94616680D01*
X113246426Y-94724853D01*
X113523665Y-94780000D01*
X113806335Y-94780000D01*
X114083574Y-94724853D01*
X114344727Y-94616680D01*
X114579759Y-94459637D01*
X114779637Y-94259759D01*
X114936680Y-94024727D01*
X115044853Y-93763574D01*
X115100000Y-93486335D01*
X115100000Y-93203665D01*
X115405000Y-93203665D01*
X115405000Y-93486335D01*
X115460147Y-93763574D01*
X115568320Y-94024727D01*
X115725363Y-94259759D01*
X115925241Y-94459637D01*
X116160273Y-94616680D01*
X116421426Y-94724853D01*
X116698665Y-94780000D01*
X116981335Y-94780000D01*
X117258574Y-94724853D01*
X117519727Y-94616680D01*
X117754759Y-94459637D01*
X117954637Y-94259759D01*
X118111680Y-94024727D01*
X118219853Y-93763574D01*
X118275000Y-93486335D01*
X118275000Y-93203665D01*
X118580000Y-93203665D01*
X118580000Y-93486335D01*
X118635147Y-93763574D01*
X118743320Y-94024727D01*
X118900363Y-94259759D01*
X119100241Y-94459637D01*
X119335273Y-94616680D01*
X119596426Y-94724853D01*
X119873665Y-94780000D01*
X120156335Y-94780000D01*
X120433574Y-94724853D01*
X120694727Y-94616680D01*
X120929759Y-94459637D01*
X121129637Y-94259759D01*
X121286680Y-94024727D01*
X121394853Y-93763574D01*
X121450000Y-93486335D01*
X121450000Y-93203665D01*
X121394853Y-92926426D01*
X121305207Y-92710000D01*
X122434388Y-92710000D01*
X122456785Y-92937400D01*
X122523115Y-93156060D01*
X122624105Y-93345000D01*
X122523115Y-93533940D01*
X122456785Y-93752600D01*
X122434388Y-93980000D01*
X122456785Y-94207400D01*
X122523115Y-94426060D01*
X122630829Y-94627579D01*
X122775788Y-94804212D01*
X122952421Y-94949171D01*
X123153940Y-95056885D01*
X123372600Y-95123215D01*
X123543021Y-95140000D01*
X124106979Y-95140000D01*
X124277400Y-95123215D01*
X124496060Y-95056885D01*
X124697579Y-94949171D01*
X124874212Y-94804212D01*
X125019171Y-94627579D01*
X125126885Y-94426060D01*
X125193215Y-94207400D01*
X125215612Y-93980000D01*
X125193215Y-93752600D01*
X125126885Y-93533940D01*
X125025895Y-93345000D01*
X125126885Y-93156060D01*
X125193215Y-92937400D01*
X125215612Y-92710000D01*
X125193215Y-92482600D01*
X125178203Y-92433110D01*
X133053524Y-92433110D01*
X133174845Y-92663000D01*
X134493000Y-92663000D01*
X134493000Y-91463835D01*
X134747000Y-91463835D01*
X134747000Y-92663000D01*
X136065155Y-92663000D01*
X136186476Y-92433110D01*
X136094352Y-92170142D01*
X135947496Y-91918807D01*
X135754429Y-91700951D01*
X135522570Y-91524947D01*
X135260830Y-91397558D01*
X134979267Y-91323680D01*
X134747000Y-91463835D01*
X134493000Y-91463835D01*
X134260733Y-91323680D01*
X133979170Y-91397558D01*
X133717430Y-91524947D01*
X133485571Y-91700951D01*
X133292504Y-91918807D01*
X133145648Y-92170142D01*
X133053524Y-92433110D01*
X125178203Y-92433110D01*
X125129907Y-92273902D01*
X125164502Y-92209180D01*
X125200812Y-92089482D01*
X125213072Y-91965000D01*
X125213072Y-90915000D01*
X125200812Y-90790518D01*
X125164502Y-90670820D01*
X125105537Y-90560506D01*
X125026185Y-90463815D01*
X124929494Y-90384463D01*
X124819180Y-90325498D01*
X124699482Y-90289188D01*
X124575000Y-90276928D01*
X123075000Y-90276928D01*
X122950518Y-90289188D01*
X122830820Y-90325498D01*
X122720506Y-90384463D01*
X122623815Y-90463815D01*
X122544463Y-90560506D01*
X122485498Y-90670820D01*
X122449188Y-90790518D01*
X122436928Y-90915000D01*
X122436928Y-91965000D01*
X122449188Y-92089482D01*
X122485498Y-92209180D01*
X122520093Y-92273902D01*
X122456785Y-92482600D01*
X122434388Y-92710000D01*
X121305207Y-92710000D01*
X121286680Y-92665273D01*
X121129637Y-92430241D01*
X120929759Y-92230363D01*
X120694727Y-92073320D01*
X120433574Y-91965147D01*
X120156335Y-91910000D01*
X119873665Y-91910000D01*
X119596426Y-91965147D01*
X119335273Y-92073320D01*
X119100241Y-92230363D01*
X118900363Y-92430241D01*
X118743320Y-92665273D01*
X118635147Y-92926426D01*
X118580000Y-93203665D01*
X118275000Y-93203665D01*
X118219853Y-92926426D01*
X118111680Y-92665273D01*
X117954637Y-92430241D01*
X117754759Y-92230363D01*
X117519727Y-92073320D01*
X117258574Y-91965147D01*
X116981335Y-91910000D01*
X116698665Y-91910000D01*
X116421426Y-91965147D01*
X116160273Y-92073320D01*
X115925241Y-92230363D01*
X115725363Y-92430241D01*
X115568320Y-92665273D01*
X115460147Y-92926426D01*
X115405000Y-93203665D01*
X115100000Y-93203665D01*
X115044853Y-92926426D01*
X114936680Y-92665273D01*
X114779637Y-92430241D01*
X114579759Y-92230363D01*
X114344727Y-92073320D01*
X114083574Y-91965147D01*
X113806335Y-91910000D01*
X113523665Y-91910000D01*
X113246426Y-91965147D01*
X112985273Y-92073320D01*
X112750241Y-92230363D01*
X112550363Y-92430241D01*
X112393320Y-92665273D01*
X112285147Y-92926426D01*
X112230000Y-93203665D01*
X111925000Y-93203665D01*
X111869853Y-92926426D01*
X111761680Y-92665273D01*
X111604637Y-92430241D01*
X111404759Y-92230363D01*
X111252000Y-92128293D01*
X111252000Y-90751707D01*
X111404759Y-90649637D01*
X111604637Y-90449759D01*
X111761680Y-90214727D01*
X111869853Y-89953574D01*
X111925000Y-89676335D01*
X111925000Y-89393665D01*
X119215000Y-89393665D01*
X119215000Y-89676335D01*
X119270147Y-89953574D01*
X119378320Y-90214727D01*
X119535363Y-90449759D01*
X119735241Y-90649637D01*
X119970273Y-90806680D01*
X120231426Y-90914853D01*
X120508665Y-90970000D01*
X120791335Y-90970000D01*
X121068574Y-90914853D01*
X121329727Y-90806680D01*
X121564759Y-90649637D01*
X121764637Y-90449759D01*
X121921680Y-90214727D01*
X122029853Y-89953574D01*
X122085000Y-89676335D01*
X122085000Y-89393665D01*
X122029853Y-89116426D01*
X121921680Y-88855273D01*
X121764637Y-88620241D01*
X121564759Y-88420363D01*
X121329727Y-88263320D01*
X121068574Y-88155147D01*
X120791335Y-88100000D01*
X120508665Y-88100000D01*
X120231426Y-88155147D01*
X119970273Y-88263320D01*
X119735241Y-88420363D01*
X119535363Y-88620241D01*
X119378320Y-88855273D01*
X119270147Y-89116426D01*
X119215000Y-89393665D01*
X111925000Y-89393665D01*
X111869853Y-89116426D01*
X111761680Y-88855273D01*
X111604637Y-88620241D01*
X111404759Y-88420363D01*
X111169727Y-88263320D01*
X110908574Y-88155147D01*
X110631335Y-88100000D01*
X110348665Y-88100000D01*
X110071426Y-88155147D01*
X109810273Y-88263320D01*
X109575241Y-88420363D01*
X109375363Y-88620241D01*
X109218320Y-88855273D01*
X109110147Y-89116426D01*
X109055000Y-89393665D01*
X107944619Y-89393665D01*
X107777588Y-89169731D01*
X107561355Y-88974822D01*
X107444466Y-88905195D01*
X107626632Y-88783475D01*
X107833475Y-88576632D01*
X107995990Y-88333411D01*
X108107932Y-88063158D01*
X108165000Y-87776260D01*
X108165000Y-87483740D01*
X108107932Y-87196842D01*
X107995990Y-86926589D01*
X107833475Y-86683368D01*
X107626632Y-86476525D01*
X107452240Y-86360000D01*
X107626632Y-86243475D01*
X107651442Y-86218665D01*
X109055000Y-86218665D01*
X109055000Y-86501335D01*
X109110147Y-86778574D01*
X109218320Y-87039727D01*
X109375363Y-87274759D01*
X109575241Y-87474637D01*
X109810273Y-87631680D01*
X110071426Y-87739853D01*
X110348665Y-87795000D01*
X110631335Y-87795000D01*
X110908574Y-87739853D01*
X111169727Y-87631680D01*
X111404759Y-87474637D01*
X111604637Y-87274759D01*
X111761680Y-87039727D01*
X111869853Y-86778574D01*
X111925000Y-86501335D01*
X111925000Y-86218665D01*
X119215000Y-86218665D01*
X119215000Y-86501335D01*
X119270147Y-86778574D01*
X119378320Y-87039727D01*
X119535363Y-87274759D01*
X119735241Y-87474637D01*
X119970273Y-87631680D01*
X120231426Y-87739853D01*
X120508665Y-87795000D01*
X120791335Y-87795000D01*
X121068574Y-87739853D01*
X121329727Y-87631680D01*
X121564759Y-87474637D01*
X121764637Y-87274759D01*
X121921680Y-87039727D01*
X121940206Y-86995000D01*
X122434388Y-86995000D01*
X122456785Y-87222400D01*
X122523115Y-87441060D01*
X122624105Y-87630000D01*
X122523115Y-87818940D01*
X122456785Y-88037600D01*
X122434388Y-88265000D01*
X122456785Y-88492400D01*
X122523115Y-88711060D01*
X122630829Y-88912579D01*
X122775788Y-89089212D01*
X122952421Y-89234171D01*
X123153940Y-89341885D01*
X123372600Y-89408215D01*
X123543021Y-89425000D01*
X124106979Y-89425000D01*
X124277400Y-89408215D01*
X124496060Y-89341885D01*
X124697579Y-89234171D01*
X124874212Y-89089212D01*
X125019171Y-88912579D01*
X125126885Y-88711060D01*
X125193215Y-88492400D01*
X125215612Y-88265000D01*
X125193215Y-88037600D01*
X125126885Y-87818940D01*
X125025895Y-87630000D01*
X125126885Y-87441060D01*
X125193215Y-87222400D01*
X125215612Y-86995000D01*
X125193215Y-86767600D01*
X125129907Y-86558902D01*
X125164502Y-86494180D01*
X125200812Y-86374482D01*
X125213072Y-86250000D01*
X125213072Y-85200000D01*
X125200812Y-85075518D01*
X125164502Y-84955820D01*
X125105537Y-84845506D01*
X125026185Y-84748815D01*
X124929494Y-84669463D01*
X124819180Y-84610498D01*
X124699482Y-84574188D01*
X124575000Y-84561928D01*
X123075000Y-84561928D01*
X122950518Y-84574188D01*
X122830820Y-84610498D01*
X122720506Y-84669463D01*
X122623815Y-84748815D01*
X122544463Y-84845506D01*
X122485498Y-84955820D01*
X122449188Y-85075518D01*
X122436928Y-85200000D01*
X122436928Y-86250000D01*
X122449188Y-86374482D01*
X122485498Y-86494180D01*
X122520093Y-86558902D01*
X122456785Y-86767600D01*
X122434388Y-86995000D01*
X121940206Y-86995000D01*
X122029853Y-86778574D01*
X122085000Y-86501335D01*
X122085000Y-86218665D01*
X122029853Y-85941426D01*
X121921680Y-85680273D01*
X121764637Y-85445241D01*
X121564759Y-85245363D01*
X121329727Y-85088320D01*
X121068574Y-84980147D01*
X120791335Y-84925000D01*
X120508665Y-84925000D01*
X120231426Y-84980147D01*
X119970273Y-85088320D01*
X119735241Y-85245363D01*
X119535363Y-85445241D01*
X119378320Y-85680273D01*
X119270147Y-85941426D01*
X119215000Y-86218665D01*
X111925000Y-86218665D01*
X111869853Y-85941426D01*
X111761680Y-85680273D01*
X111604637Y-85445241D01*
X111404759Y-85245363D01*
X111169727Y-85088320D01*
X110908574Y-84980147D01*
X110631335Y-84925000D01*
X110348665Y-84925000D01*
X110071426Y-84980147D01*
X109810273Y-85088320D01*
X109575241Y-85245363D01*
X109375363Y-85445241D01*
X109218320Y-85680273D01*
X109110147Y-85941426D01*
X109055000Y-86218665D01*
X107651442Y-86218665D01*
X107833475Y-86036632D01*
X107995990Y-85793411D01*
X108107932Y-85523158D01*
X108165000Y-85236260D01*
X108165000Y-84943740D01*
X108107932Y-84656842D01*
X107995990Y-84386589D01*
X107833475Y-84143368D01*
X107626632Y-83936525D01*
X107444466Y-83814805D01*
X107561355Y-83745178D01*
X107777588Y-83550269D01*
X107951641Y-83316920D01*
X108076825Y-83054099D01*
X108079989Y-83043665D01*
X109055000Y-83043665D01*
X109055000Y-83326335D01*
X109110147Y-83603574D01*
X109218320Y-83864727D01*
X109375363Y-84099759D01*
X109575241Y-84299637D01*
X109810273Y-84456680D01*
X110071426Y-84564853D01*
X110348665Y-84620000D01*
X110631335Y-84620000D01*
X110908574Y-84564853D01*
X111169727Y-84456680D01*
X111404759Y-84299637D01*
X111604637Y-84099759D01*
X111761680Y-83864727D01*
X111869853Y-83603574D01*
X111925000Y-83326335D01*
X111925000Y-83043665D01*
X119215000Y-83043665D01*
X119215000Y-83326335D01*
X119270147Y-83603574D01*
X119378320Y-83864727D01*
X119535363Y-84099759D01*
X119735241Y-84299637D01*
X119970273Y-84456680D01*
X120231426Y-84564853D01*
X120508665Y-84620000D01*
X120791335Y-84620000D01*
X121068574Y-84564853D01*
X121329727Y-84456680D01*
X121564759Y-84299637D01*
X121764637Y-84099759D01*
X121921680Y-83864727D01*
X121923637Y-83860000D01*
X133002815Y-83860000D01*
X133031487Y-84151111D01*
X133116401Y-84431034D01*
X133254294Y-84689014D01*
X133439866Y-84915134D01*
X133503337Y-84967223D01*
X133401614Y-85021595D01*
X133267038Y-85132038D01*
X133156595Y-85266614D01*
X133074528Y-85420150D01*
X133023992Y-85586746D01*
X133006928Y-85760000D01*
X133006928Y-86960000D01*
X133023992Y-87133254D01*
X133074528Y-87299850D01*
X133156595Y-87453386D01*
X133267038Y-87587962D01*
X133401614Y-87698405D01*
X133555150Y-87780472D01*
X133721746Y-87831008D01*
X133895000Y-87848072D01*
X135345000Y-87848072D01*
X135518254Y-87831008D01*
X135684850Y-87780472D01*
X135838386Y-87698405D01*
X135972962Y-87587962D01*
X136083405Y-87453386D01*
X136165472Y-87299850D01*
X136216008Y-87133254D01*
X136233072Y-86960000D01*
X136233072Y-85760000D01*
X136216008Y-85586746D01*
X136165472Y-85420150D01*
X136083405Y-85266614D01*
X135972962Y-85132038D01*
X135838386Y-85021595D01*
X135736663Y-84967223D01*
X135800134Y-84915134D01*
X135985706Y-84689014D01*
X136123599Y-84431034D01*
X136208513Y-84151111D01*
X136237185Y-83860000D01*
X136208513Y-83568889D01*
X136123599Y-83288966D01*
X135985706Y-83030986D01*
X135800134Y-82804866D01*
X135574014Y-82619294D01*
X135548278Y-82605538D01*
X135754429Y-82449049D01*
X135947496Y-82231193D01*
X136094352Y-81979858D01*
X136186476Y-81716890D01*
X136065155Y-81487000D01*
X134747000Y-81487000D01*
X134747000Y-81507000D01*
X134493000Y-81507000D01*
X134493000Y-81487000D01*
X133174845Y-81487000D01*
X133053524Y-81716890D01*
X133145648Y-81979858D01*
X133292504Y-82231193D01*
X133485571Y-82449049D01*
X133691722Y-82605538D01*
X133665986Y-82619294D01*
X133439866Y-82804866D01*
X133254294Y-83030986D01*
X133116401Y-83288966D01*
X133031487Y-83568889D01*
X133002815Y-83860000D01*
X121923637Y-83860000D01*
X122029853Y-83603574D01*
X122085000Y-83326335D01*
X122085000Y-83043665D01*
X122029853Y-82766426D01*
X121921680Y-82505273D01*
X121764637Y-82270241D01*
X121564759Y-82070363D01*
X121329727Y-81913320D01*
X121068574Y-81805147D01*
X120791335Y-81750000D01*
X120508665Y-81750000D01*
X120231426Y-81805147D01*
X119970273Y-81913320D01*
X119735241Y-82070363D01*
X119535363Y-82270241D01*
X119378320Y-82505273D01*
X119270147Y-82766426D01*
X119215000Y-83043665D01*
X111925000Y-83043665D01*
X111869853Y-82766426D01*
X111761680Y-82505273D01*
X111604637Y-82270241D01*
X111404759Y-82070363D01*
X111169727Y-81913320D01*
X110908574Y-81805147D01*
X110631335Y-81750000D01*
X110348665Y-81750000D01*
X110071426Y-81805147D01*
X109810273Y-81913320D01*
X109575241Y-82070363D01*
X109375363Y-82270241D01*
X109218320Y-82505273D01*
X109110147Y-82766426D01*
X109055000Y-83043665D01*
X108079989Y-83043665D01*
X108121476Y-82906890D01*
X108000155Y-82677000D01*
X106807000Y-82677000D01*
X106807000Y-82697000D01*
X106553000Y-82697000D01*
X106553000Y-82677000D01*
X105359845Y-82677000D01*
X105238524Y-82906890D01*
X105283175Y-83054099D01*
X105408359Y-83316920D01*
X105582412Y-83550269D01*
X105798645Y-83745178D01*
X105915534Y-83814805D01*
X105733368Y-83936525D01*
X105526525Y-84143368D01*
X105364010Y-84386589D01*
X105252068Y-84656842D01*
X105195000Y-84943740D01*
X92925000Y-84943740D01*
X92867932Y-84656842D01*
X92755990Y-84386589D01*
X92593475Y-84143368D01*
X92386632Y-83936525D01*
X92212240Y-83820000D01*
X92386632Y-83703475D01*
X92593475Y-83496632D01*
X92755990Y-83253411D01*
X92867932Y-82983158D01*
X92925000Y-82696260D01*
X92925000Y-82535665D01*
X96037500Y-82535665D01*
X96037500Y-82818335D01*
X96092647Y-83095574D01*
X96200820Y-83356727D01*
X96357863Y-83591759D01*
X96557741Y-83791637D01*
X96792773Y-83948680D01*
X97053926Y-84056853D01*
X97331165Y-84112000D01*
X97613835Y-84112000D01*
X97891074Y-84056853D01*
X98152227Y-83948680D01*
X98387259Y-83791637D01*
X98587137Y-83591759D01*
X98744180Y-83356727D01*
X98852353Y-83095574D01*
X98907500Y-82818335D01*
X98907500Y-82535665D01*
X99212500Y-82535665D01*
X99212500Y-82818335D01*
X99267647Y-83095574D01*
X99375820Y-83356727D01*
X99532863Y-83591759D01*
X99732741Y-83791637D01*
X99967773Y-83948680D01*
X100228926Y-84056853D01*
X100506165Y-84112000D01*
X100788835Y-84112000D01*
X101066074Y-84056853D01*
X101327227Y-83948680D01*
X101562259Y-83791637D01*
X101762137Y-83591759D01*
X101919180Y-83356727D01*
X102027353Y-83095574D01*
X102082500Y-82818335D01*
X102082500Y-82535665D01*
X102027353Y-82258426D01*
X101919180Y-81997273D01*
X101762137Y-81762241D01*
X101562259Y-81562363D01*
X101327227Y-81405320D01*
X101066074Y-81297147D01*
X100788835Y-81242000D01*
X100506165Y-81242000D01*
X100228926Y-81297147D01*
X99967773Y-81405320D01*
X99732741Y-81562363D01*
X99532863Y-81762241D01*
X99375820Y-81997273D01*
X99267647Y-82258426D01*
X99212500Y-82535665D01*
X98907500Y-82535665D01*
X98852353Y-82258426D01*
X98744180Y-81997273D01*
X98587137Y-81762241D01*
X98387259Y-81562363D01*
X98152227Y-81405320D01*
X97891074Y-81297147D01*
X97613835Y-81242000D01*
X97331165Y-81242000D01*
X97053926Y-81297147D01*
X96792773Y-81405320D01*
X96557741Y-81562363D01*
X96357863Y-81762241D01*
X96200820Y-81997273D01*
X96092647Y-82258426D01*
X96037500Y-82535665D01*
X92925000Y-82535665D01*
X92925000Y-82403740D01*
X92867932Y-82116842D01*
X92755990Y-81846589D01*
X92593475Y-81603368D01*
X92386632Y-81396525D01*
X92212240Y-81280000D01*
X92386632Y-81163475D01*
X92593475Y-80956632D01*
X92755990Y-80713411D01*
X92867932Y-80443158D01*
X92925000Y-80156260D01*
X92925000Y-79863740D01*
X92867932Y-79576842D01*
X92755990Y-79306589D01*
X92593475Y-79063368D01*
X92386632Y-78856525D01*
X92249655Y-78765000D01*
X105870345Y-78765000D01*
X105733368Y-78856525D01*
%TA.AperFunction,Conductor*%
D22*
G36*
X105733368Y-78856525D02*
G01*
X105526525Y-79063368D01*
X105364010Y-79306589D01*
X105252068Y-79576842D01*
X105195000Y-79863740D01*
X105195000Y-80156260D01*
X105252068Y-80443158D01*
X105364010Y-80713411D01*
X105526525Y-80956632D01*
X105733368Y-81163475D01*
X105915534Y-81285195D01*
X105798645Y-81354822D01*
X105582412Y-81549731D01*
X105408359Y-81783080D01*
X105283175Y-82045901D01*
X105238524Y-82193110D01*
X105359845Y-82423000D01*
X106553000Y-82423000D01*
X106553000Y-82403000D01*
X106807000Y-82403000D01*
X106807000Y-82423000D01*
X108000155Y-82423000D01*
X108121476Y-82193110D01*
X108076825Y-82045901D01*
X107951641Y-81783080D01*
X107777588Y-81549731D01*
X107561355Y-81354822D01*
X107444466Y-81285195D01*
X107626632Y-81163475D01*
X107833475Y-80956632D01*
X107995990Y-80713411D01*
X108107932Y-80443158D01*
X108165000Y-80156260D01*
X108165000Y-79863740D01*
X108107932Y-79576842D01*
X107995990Y-79306589D01*
X107833475Y-79063368D01*
X107626632Y-78856525D01*
X107489655Y-78765000D01*
X109770343Y-78765000D01*
X109575241Y-78895363D01*
X109375363Y-79095241D01*
X109218320Y-79330273D01*
X109110147Y-79591426D01*
X109055000Y-79868665D01*
X109055000Y-80151335D01*
X109110147Y-80428574D01*
X109218320Y-80689727D01*
X109375363Y-80924759D01*
X109575241Y-81124637D01*
X109810273Y-81281680D01*
X110071426Y-81389853D01*
X110348665Y-81445000D01*
X110631335Y-81445000D01*
X110908574Y-81389853D01*
X111169727Y-81281680D01*
X111404759Y-81124637D01*
X111604637Y-80924759D01*
X111761680Y-80689727D01*
X111869853Y-80428574D01*
X111925000Y-80151335D01*
X111925000Y-79868665D01*
X111869853Y-79591426D01*
X111761680Y-79330273D01*
X111604637Y-79095241D01*
X111404759Y-78895363D01*
X111209657Y-78765000D01*
X119930343Y-78765000D01*
X119735241Y-78895363D01*
X119535363Y-79095241D01*
X119378320Y-79330273D01*
X119270147Y-79591426D01*
X119215000Y-79868665D01*
X119215000Y-80151335D01*
X119270147Y-80428574D01*
X119378320Y-80689727D01*
X119535363Y-80924759D01*
X119735241Y-81124637D01*
X119970273Y-81281680D01*
X120231426Y-81389853D01*
X120508665Y-81445000D01*
X120791335Y-81445000D01*
X121068574Y-81389853D01*
X121329727Y-81281680D01*
X121332241Y-81280000D01*
X122434388Y-81280000D01*
X122456785Y-81507400D01*
X122523115Y-81726060D01*
X122624105Y-81915000D01*
X122523115Y-82103940D01*
X122456785Y-82322600D01*
X122434388Y-82550000D01*
X122456785Y-82777400D01*
X122523115Y-82996060D01*
X122630829Y-83197579D01*
X122775788Y-83374212D01*
X122952421Y-83519171D01*
X123153940Y-83626885D01*
X123372600Y-83693215D01*
X123543021Y-83710000D01*
X124106979Y-83710000D01*
X124277400Y-83693215D01*
X124496060Y-83626885D01*
X124697579Y-83519171D01*
X124874212Y-83374212D01*
X125019171Y-83197579D01*
X125126885Y-82996060D01*
X125193215Y-82777400D01*
X125215612Y-82550000D01*
X125193215Y-82322600D01*
X125126885Y-82103940D01*
X125025895Y-81915000D01*
X125126885Y-81726060D01*
X125193215Y-81507400D01*
X125215612Y-81280000D01*
X125193215Y-81052600D01*
X125178203Y-81003110D01*
X133053524Y-81003110D01*
X133174845Y-81233000D01*
X134493000Y-81233000D01*
X134493000Y-80033835D01*
X134747000Y-80033835D01*
X134747000Y-81233000D01*
X136065155Y-81233000D01*
X136186476Y-81003110D01*
X136094352Y-80740142D01*
X135947496Y-80488807D01*
X135754429Y-80270951D01*
X135522570Y-80094947D01*
X135260830Y-79967558D01*
X134979267Y-79893680D01*
X134747000Y-80033835D01*
X134493000Y-80033835D01*
X134260733Y-79893680D01*
X133979170Y-79967558D01*
X133717430Y-80094947D01*
X133485571Y-80270951D01*
X133292504Y-80488807D01*
X133145648Y-80740142D01*
X133053524Y-81003110D01*
X125178203Y-81003110D01*
X125129907Y-80843902D01*
X125164502Y-80779180D01*
X125200812Y-80659482D01*
X125213072Y-80535000D01*
X125213072Y-79485000D01*
X125200812Y-79360518D01*
X125164502Y-79240820D01*
X125105537Y-79130506D01*
X125026185Y-79033815D01*
X124929494Y-78954463D01*
X124819180Y-78895498D01*
X124699482Y-78859188D01*
X124575000Y-78846928D01*
X123075000Y-78846928D01*
X122950518Y-78859188D01*
X122830820Y-78895498D01*
X122720506Y-78954463D01*
X122623815Y-79033815D01*
X122544463Y-79130506D01*
X122485498Y-79240820D01*
X122449188Y-79360518D01*
X122436928Y-79485000D01*
X122436928Y-80535000D01*
X122449188Y-80659482D01*
X122485498Y-80779180D01*
X122520093Y-80843902D01*
X122456785Y-81052600D01*
X122434388Y-81280000D01*
X121332241Y-81280000D01*
X121564759Y-81124637D01*
X121764637Y-80924759D01*
X121921680Y-80689727D01*
X122029853Y-80428574D01*
X122085000Y-80151335D01*
X122085000Y-79868665D01*
X122029853Y-79591426D01*
X121921680Y-79330273D01*
X121764637Y-79095241D01*
X121564759Y-78895363D01*
X121369657Y-78765000D01*
X143485000Y-78765000D01*
X143485001Y-123165000D01*
X108480396Y-123165000D01*
X108556637Y-123088759D01*
X108713680Y-122853727D01*
X108821853Y-122592574D01*
X108877000Y-122315335D01*
X108877000Y-122032665D01*
X108821853Y-121755426D01*
X108713680Y-121494273D01*
X108556637Y-121259241D01*
X108356759Y-121059363D01*
X108121727Y-120902320D01*
X107860574Y-120794147D01*
X107583335Y-120739000D01*
X107300665Y-120739000D01*
X107023426Y-120794147D01*
X106762273Y-120902320D01*
X106527241Y-121059363D01*
X106327363Y-121259241D01*
X106170320Y-121494273D01*
X106062147Y-121755426D01*
X106007000Y-122032665D01*
X106007000Y-122315335D01*
X106062147Y-122592574D01*
X106170320Y-122853727D01*
X106327363Y-123088759D01*
X106403604Y-123165000D01*
X98320396Y-123165000D01*
X98396637Y-123088759D01*
X98553680Y-122853727D01*
X98661853Y-122592574D01*
X98717000Y-122315335D01*
X98717000Y-122032665D01*
X98661853Y-121755426D01*
X98553680Y-121494273D01*
X98396637Y-121259241D01*
X98196759Y-121059363D01*
X97961727Y-120902320D01*
X97700574Y-120794147D01*
X97423335Y-120739000D01*
X97140665Y-120739000D01*
X96863426Y-120794147D01*
X96602273Y-120902320D01*
X96367241Y-121059363D01*
X96167363Y-121259241D01*
X96010320Y-121494273D01*
X95902147Y-121755426D01*
X95847000Y-122032665D01*
X95847000Y-122315335D01*
X95902147Y-122592574D01*
X96010320Y-122853727D01*
X96167363Y-123088759D01*
X96243604Y-123165000D01*
X90195000Y-123165000D01*
X90195000Y-118984665D01*
X95847000Y-118984665D01*
X95847000Y-119267335D01*
X95902147Y-119544574D01*
X96010320Y-119805727D01*
X96167363Y-120040759D01*
X96367241Y-120240637D01*
X96602273Y-120397680D01*
X96863426Y-120505853D01*
X97140665Y-120561000D01*
X97423335Y-120561000D01*
X97700574Y-120505853D01*
X97961727Y-120397680D01*
X98196759Y-120240637D01*
X98396637Y-120040759D01*
X98553680Y-119805727D01*
X98661853Y-119544574D01*
X98717000Y-119267335D01*
X98717000Y-118984665D01*
X106007000Y-118984665D01*
X106007000Y-119267335D01*
X106062147Y-119544574D01*
X106170320Y-119805727D01*
X106327363Y-120040759D01*
X106527241Y-120240637D01*
X106762273Y-120397680D01*
X107023426Y-120505853D01*
X107300665Y-120561000D01*
X107583335Y-120561000D01*
X107846437Y-120508665D01*
X109055000Y-120508665D01*
X109055000Y-120791335D01*
X109110147Y-121068574D01*
X109218320Y-121329727D01*
X109375363Y-121564759D01*
X109575241Y-121764637D01*
X109810273Y-121921680D01*
X110071426Y-122029853D01*
X110348665Y-122085000D01*
X110631335Y-122085000D01*
X110908574Y-122029853D01*
X111169727Y-121921680D01*
X111404759Y-121764637D01*
X111604637Y-121564759D01*
X111761680Y-121329727D01*
X111869853Y-121068574D01*
X111925000Y-120791335D01*
X111925000Y-120508665D01*
X112230000Y-120508665D01*
X112230000Y-120791335D01*
X112285147Y-121068574D01*
X112393320Y-121329727D01*
X112550363Y-121564759D01*
X112750241Y-121764637D01*
X112985273Y-121921680D01*
X113246426Y-122029853D01*
X113523665Y-122085000D01*
X113806335Y-122085000D01*
X114083574Y-122029853D01*
X114344727Y-121921680D01*
X114579759Y-121764637D01*
X114779637Y-121564759D01*
X114881707Y-121412000D01*
X116138289Y-121412000D01*
X116180226Y-121453937D01*
X116349744Y-121567205D01*
X116538102Y-121645226D01*
X116738061Y-121685000D01*
X116941939Y-121685000D01*
X117141898Y-121645226D01*
X117330256Y-121567205D01*
X117499774Y-121453937D01*
X117643937Y-121309774D01*
X117757205Y-121140256D01*
X117835226Y-120951898D01*
X117875000Y-120751939D01*
X117875000Y-120548061D01*
X117841961Y-120381961D01*
X118008061Y-120415000D01*
X118211939Y-120415000D01*
X118411898Y-120375226D01*
X118600256Y-120297205D01*
X118769774Y-120183937D01*
X118913937Y-120039774D01*
X119027205Y-119870256D01*
X119105226Y-119681898D01*
X119145000Y-119481939D01*
X119145000Y-119278061D01*
X119105226Y-119078102D01*
X119027205Y-118889744D01*
X118913937Y-118720226D01*
X118769774Y-118576063D01*
X118600256Y-118462795D01*
X118495574Y-118419434D01*
X118515774Y-118405937D01*
X118659937Y-118261774D01*
X118773205Y-118092256D01*
X118851226Y-117903898D01*
X118891000Y-117703939D01*
X118891000Y-117500061D01*
X118851226Y-117300102D01*
X118773205Y-117111744D01*
X118659937Y-116942226D01*
X118515774Y-116798063D01*
X118346256Y-116684795D01*
X118157898Y-116606774D01*
X117957939Y-116567000D01*
X117754061Y-116567000D01*
X117554102Y-116606774D01*
X117365744Y-116684795D01*
X117196226Y-116798063D01*
X117154289Y-116840000D01*
X115509711Y-116840000D01*
X115467774Y-116798063D01*
X115298256Y-116684795D01*
X115109898Y-116606774D01*
X114909939Y-116567000D01*
X114706061Y-116567000D01*
X114506102Y-116606774D01*
X114317744Y-116684795D01*
X114148226Y-116798063D01*
X114004063Y-116942226D01*
X113890795Y-117111744D01*
X113812774Y-117300102D01*
X113773000Y-117500061D01*
X113773000Y-117703939D01*
X113812774Y-117903898D01*
X113890795Y-118092256D01*
X113894634Y-118098001D01*
X113747635Y-118127241D01*
X113559277Y-118205262D01*
X113389759Y-118318530D01*
X113245596Y-118462693D01*
X113132328Y-118632211D01*
X113054307Y-118820569D01*
X113014533Y-119020528D01*
X113014533Y-119224406D01*
X113040590Y-119355407D01*
X112985273Y-119378320D01*
X112750241Y-119535363D01*
X112550363Y-119735241D01*
X112393320Y-119970273D01*
X112285147Y-120231426D01*
X112230000Y-120508665D01*
X111925000Y-120508665D01*
X111869853Y-120231426D01*
X111761680Y-119970273D01*
X111604637Y-119735241D01*
X111404759Y-119535363D01*
X111169727Y-119378320D01*
X110908574Y-119270147D01*
X110631335Y-119215000D01*
X110348665Y-119215000D01*
X110071426Y-119270147D01*
X109810273Y-119378320D01*
X109575241Y-119535363D01*
X109375363Y-119735241D01*
X109218320Y-119970273D01*
X109110147Y-120231426D01*
X109055000Y-120508665D01*
X107846437Y-120508665D01*
X107860574Y-120505853D01*
X108121727Y-120397680D01*
X108356759Y-120240637D01*
X108556637Y-120040759D01*
X108713680Y-119805727D01*
X108821853Y-119544574D01*
X108877000Y-119267335D01*
X108877000Y-118984665D01*
X108821853Y-118707426D01*
X108713680Y-118446273D01*
X108556637Y-118211241D01*
X108356759Y-118011363D01*
X108121727Y-117854320D01*
X107860574Y-117746147D01*
X107583335Y-117691000D01*
X107300665Y-117691000D01*
X107023426Y-117746147D01*
X106762273Y-117854320D01*
X106527241Y-118011363D01*
X106327363Y-118211241D01*
X106170320Y-118446273D01*
X106062147Y-118707426D01*
X106007000Y-118984665D01*
X98717000Y-118984665D01*
X98661853Y-118707426D01*
X98553680Y-118446273D01*
X98396637Y-118211241D01*
X98196759Y-118011363D01*
X97961727Y-117854320D01*
X97700574Y-117746147D01*
X97423335Y-117691000D01*
X97140665Y-117691000D01*
X96863426Y-117746147D01*
X96602273Y-117854320D01*
X96367241Y-118011363D01*
X96167363Y-118211241D01*
X96010320Y-118446273D01*
X95902147Y-118707426D01*
X95847000Y-118984665D01*
X90195000Y-118984665D01*
X90195000Y-116917295D01*
X90235506Y-116950537D01*
X90345820Y-117009502D01*
X90465518Y-117045812D01*
X90590000Y-117058072D01*
X92290000Y-117058072D01*
X92414482Y-117045812D01*
X92534180Y-117009502D01*
X92644494Y-116950537D01*
X92741185Y-116871185D01*
X92820537Y-116774494D01*
X92879502Y-116664180D01*
X92915812Y-116544482D01*
X92928072Y-116420000D01*
X92928072Y-114720000D01*
X92915812Y-114595518D01*
X92879502Y-114475820D01*
X92820537Y-114365506D01*
X92741185Y-114268815D01*
X92644494Y-114189463D01*
X92534180Y-114130498D01*
X92461620Y-114108487D01*
X92593475Y-113976632D01*
X92755990Y-113733411D01*
X92867932Y-113463158D01*
X92925000Y-113176260D01*
X92925000Y-112883740D01*
X92867932Y-112596842D01*
X92755990Y-112326589D01*
X92593475Y-112083368D01*
X92386632Y-111876525D01*
X92212240Y-111760000D01*
X92386632Y-111643475D01*
X92593475Y-111436632D01*
X92755990Y-111193411D01*
X92867932Y-110923158D01*
X92925000Y-110636260D01*
X92925000Y-110343740D01*
X92867932Y-110056842D01*
X92755990Y-109786589D01*
X92593475Y-109543368D01*
X92386632Y-109336525D01*
X92212240Y-109220000D01*
X92386632Y-109103475D01*
X92593475Y-108896632D01*
X92755990Y-108653411D01*
X92867932Y-108383158D01*
X92925000Y-108096260D01*
X92925000Y-107803740D01*
X92867932Y-107516842D01*
X92755990Y-107246589D01*
X92593475Y-107003368D01*
X92386632Y-106796525D01*
X92212240Y-106680000D01*
X92386632Y-106563475D01*
X92593475Y-106356632D01*
X92755990Y-106113411D01*
X92867932Y-105843158D01*
X92925000Y-105556260D01*
X92925000Y-105395665D01*
X96037500Y-105395665D01*
X96037500Y-105678335D01*
X96092647Y-105955574D01*
X96200820Y-106216727D01*
X96357863Y-106451759D01*
X96557741Y-106651637D01*
X96792773Y-106808680D01*
X97053926Y-106916853D01*
X97331165Y-106972000D01*
X97613835Y-106972000D01*
X97891074Y-106916853D01*
X98152227Y-106808680D01*
X98387259Y-106651637D01*
X98587137Y-106451759D01*
X98744180Y-106216727D01*
X98852353Y-105955574D01*
X98907500Y-105678335D01*
X98907500Y-105395665D01*
X99212500Y-105395665D01*
X99212500Y-105678335D01*
X99267647Y-105955574D01*
X99375820Y-106216727D01*
X99532863Y-106451759D01*
X99732741Y-106651637D01*
X99967773Y-106808680D01*
X100228926Y-106916853D01*
X100506165Y-106972000D01*
X100788835Y-106972000D01*
X101066074Y-106916853D01*
X101327227Y-106808680D01*
X101562259Y-106651637D01*
X101762137Y-106451759D01*
X101919180Y-106216727D01*
X102027353Y-105955574D01*
X102082500Y-105678335D01*
X102082500Y-105395665D01*
X102027353Y-105118426D01*
X101919180Y-104857273D01*
X101762137Y-104622241D01*
X101562259Y-104422363D01*
X101327227Y-104265320D01*
X101066074Y-104157147D01*
X100788835Y-104102000D01*
X100506165Y-104102000D01*
X100228926Y-104157147D01*
X99967773Y-104265320D01*
X99732741Y-104422363D01*
X99532863Y-104622241D01*
X99375820Y-104857273D01*
X99267647Y-105118426D01*
X99212500Y-105395665D01*
X98907500Y-105395665D01*
X98852353Y-105118426D01*
X98744180Y-104857273D01*
X98587137Y-104622241D01*
X98387259Y-104422363D01*
X98152227Y-104265320D01*
X97891074Y-104157147D01*
X97613835Y-104102000D01*
X97331165Y-104102000D01*
X97053926Y-104157147D01*
X96792773Y-104265320D01*
X96557741Y-104422363D01*
X96357863Y-104622241D01*
X96200820Y-104857273D01*
X96092647Y-105118426D01*
X96037500Y-105395665D01*
X92925000Y-105395665D01*
X92925000Y-105263740D01*
X92867932Y-104976842D01*
X92755990Y-104706589D01*
X92593475Y-104463368D01*
X92386632Y-104256525D01*
X92212240Y-104140000D01*
X92386632Y-104023475D01*
X92593475Y-103816632D01*
X92755990Y-103573411D01*
X92867932Y-103303158D01*
X92925000Y-103016260D01*
X92925000Y-102723740D01*
X92867932Y-102436842D01*
X92755990Y-102166589D01*
X92593475Y-101923368D01*
X92386632Y-101716525D01*
X92212240Y-101600000D01*
X92386632Y-101483475D01*
X92593475Y-101276632D01*
X92755990Y-101033411D01*
X92867932Y-100763158D01*
X92925000Y-100476260D01*
X92925000Y-100228061D01*
X103105000Y-100228061D01*
X103105000Y-100431939D01*
X103144774Y-100631898D01*
X103222795Y-100820256D01*
X103336063Y-100989774D01*
X103480226Y-101133937D01*
X103649744Y-101247205D01*
X103838102Y-101325226D01*
X104038061Y-101365000D01*
X104241939Y-101365000D01*
X104441898Y-101325226D01*
X104630256Y-101247205D01*
X104799774Y-101133937D01*
X104841711Y-101092000D01*
X105403158Y-101092000D01*
X105526525Y-101276632D01*
X105733368Y-101483475D01*
X105907760Y-101600000D01*
X105733368Y-101716525D01*
X105526525Y-101923368D01*
X105403158Y-102108000D01*
X104841711Y-102108000D01*
X104799774Y-102066063D01*
X104630256Y-101952795D01*
X104441898Y-101874774D01*
X104241939Y-101835000D01*
X104038061Y-101835000D01*
X103838102Y-101874774D01*
X103649744Y-101952795D01*
X103480226Y-102066063D01*
X103336063Y-102210226D01*
X103222795Y-102379744D01*
X103144774Y-102568102D01*
X103105000Y-102768061D01*
X103105000Y-102971939D01*
X103144774Y-103171898D01*
X103222795Y-103360256D01*
X103336063Y-103529774D01*
X103480226Y-103673937D01*
X103649744Y-103787205D01*
X103838102Y-103865226D01*
X104038061Y-103905000D01*
X104241939Y-103905000D01*
X104441898Y-103865226D01*
X104630256Y-103787205D01*
X104799774Y-103673937D01*
X104841711Y-103632000D01*
X105403158Y-103632000D01*
X105526525Y-103816632D01*
X105733368Y-104023475D01*
X105907760Y-104140000D01*
X105733368Y-104256525D01*
X105526525Y-104463368D01*
X105364010Y-104706589D01*
X105252068Y-104976842D01*
X105195000Y-105263740D01*
X105195000Y-105556260D01*
X105233463Y-105749626D01*
X105076898Y-105684774D01*
X104876939Y-105645000D01*
X104673061Y-105645000D01*
X104473102Y-105684774D01*
X104284744Y-105762795D01*
X104115226Y-105876063D01*
X103971063Y-106020226D01*
X103857795Y-106189744D01*
X103779774Y-106378102D01*
X103740000Y-106578061D01*
X103740000Y-106781939D01*
X103779774Y-106981898D01*
X103857795Y-107170256D01*
X103971063Y-107339774D01*
X104115226Y-107483937D01*
X104284744Y-107597205D01*
X104473102Y-107675226D01*
X104673061Y-107715000D01*
X104876939Y-107715000D01*
X105076898Y-107675226D01*
X105233463Y-107610374D01*
X105195000Y-107803740D01*
X105195000Y-108096260D01*
X105233463Y-108289626D01*
X105076898Y-108224774D01*
X104876939Y-108185000D01*
X104673061Y-108185000D01*
X104473102Y-108224774D01*
X104284744Y-108302795D01*
X104115226Y-108416063D01*
X103971063Y-108560226D01*
X103857795Y-108729744D01*
X103779774Y-108918102D01*
X103740000Y-109118061D01*
X103740000Y-109321939D01*
X103779774Y-109521898D01*
X103857795Y-109710256D01*
X103971063Y-109879774D01*
X104115226Y-110023937D01*
X104284744Y-110137205D01*
X104473102Y-110215226D01*
X104673061Y-110255000D01*
X104876939Y-110255000D01*
X105076898Y-110215226D01*
X105233463Y-110150374D01*
X105195000Y-110343740D01*
X105195000Y-110636260D01*
X105252068Y-110923158D01*
X105364010Y-111193411D01*
X105526525Y-111436632D01*
X105733368Y-111643475D01*
X105907760Y-111760000D01*
X105733368Y-111876525D01*
X105526525Y-112083368D01*
X105364010Y-112326589D01*
X105252068Y-112596842D01*
X105195000Y-112883740D01*
X105195000Y-113176260D01*
X105252068Y-113463158D01*
X105364010Y-113733411D01*
X105526525Y-113976632D01*
X105658380Y-114108487D01*
X105585820Y-114130498D01*
X105475506Y-114189463D01*
X105378815Y-114268815D01*
X105299463Y-114365506D01*
X105240498Y-114475820D01*
X105204188Y-114595518D01*
X105191928Y-114720000D01*
X105191928Y-116420000D01*
X105204188Y-116544482D01*
X105240498Y-116664180D01*
X105299463Y-116774494D01*
X105378815Y-116871185D01*
X105475506Y-116950537D01*
X105585820Y-117009502D01*
X105705518Y-117045812D01*
X105830000Y-117058072D01*
X107530000Y-117058072D01*
X107654482Y-117045812D01*
X107774180Y-117009502D01*
X107884494Y-116950537D01*
X107981185Y-116871185D01*
X108060537Y-116774494D01*
X108119502Y-116664180D01*
X108155812Y-116544482D01*
X108168072Y-116420000D01*
X108168072Y-114868060D01*
X119522999Y-114868060D01*
X119522999Y-115071938D01*
X119562773Y-115271897D01*
X119640794Y-115460255D01*
X119754062Y-115629773D01*
X119831130Y-115706841D01*
X119850597Y-115771014D01*
X119921354Y-115903391D01*
X120016578Y-116019421D01*
X120045648Y-116043278D01*
X123460781Y-119458411D01*
X123417795Y-119522744D01*
X123339774Y-119711102D01*
X123300000Y-119911061D01*
X123300000Y-120114939D01*
X123339774Y-120314898D01*
X123417795Y-120503256D01*
X123531063Y-120672774D01*
X123675226Y-120816937D01*
X123844744Y-120930205D01*
X124033102Y-121008226D01*
X124233061Y-121048000D01*
X124436939Y-121048000D01*
X124636898Y-121008226D01*
X124825256Y-120930205D01*
X124994774Y-120816937D01*
X125138937Y-120672774D01*
X125252205Y-120503256D01*
X125330226Y-120314898D01*
X125370000Y-120114939D01*
X125370000Y-119911061D01*
X125330226Y-119711102D01*
X125252205Y-119522744D01*
X125138937Y-119353226D01*
X125097000Y-119311289D01*
X125097000Y-119292422D01*
X125100686Y-119254999D01*
X125093200Y-119178992D01*
X125085974Y-119105622D01*
X125042402Y-118961985D01*
X124971645Y-118829608D01*
X124876422Y-118713578D01*
X124847353Y-118689722D01*
X124307631Y-118150000D01*
X133002815Y-118150000D01*
X133031487Y-118441111D01*
X133116401Y-118721034D01*
X133254294Y-118979014D01*
X133439866Y-119205134D01*
X133503337Y-119257223D01*
X133401614Y-119311595D01*
X133267038Y-119422038D01*
X133156595Y-119556614D01*
X133074528Y-119710150D01*
X133023992Y-119876746D01*
X133006928Y-120050000D01*
X133006928Y-121250000D01*
X133023992Y-121423254D01*
X133074528Y-121589850D01*
X133156595Y-121743386D01*
X133267038Y-121877962D01*
X133401614Y-121988405D01*
X133555150Y-122070472D01*
X133721746Y-122121008D01*
X133895000Y-122138072D01*
X135345000Y-122138072D01*
X135518254Y-122121008D01*
X135684850Y-122070472D01*
X135838386Y-121988405D01*
X135972962Y-121877962D01*
X136083405Y-121743386D01*
X136165472Y-121589850D01*
X136216008Y-121423254D01*
X136233072Y-121250000D01*
X136233072Y-120050000D01*
X136216008Y-119876746D01*
X136165472Y-119710150D01*
X136083405Y-119556614D01*
X135972962Y-119422038D01*
X135838386Y-119311595D01*
X135736663Y-119257223D01*
X135800134Y-119205134D01*
X135985706Y-118979014D01*
X136123599Y-118721034D01*
X136208513Y-118441111D01*
X136237185Y-118150000D01*
X136208513Y-117858889D01*
X136123599Y-117578966D01*
X135985706Y-117320986D01*
X135800134Y-117094866D01*
X135574014Y-116909294D01*
X135548278Y-116895538D01*
X135754429Y-116739049D01*
X135947496Y-116521193D01*
X136094352Y-116269858D01*
X136186476Y-116006890D01*
X136065155Y-115777000D01*
X134747000Y-115777000D01*
X134747000Y-115797000D01*
X134493000Y-115797000D01*
X134493000Y-115777000D01*
X133174845Y-115777000D01*
X133053524Y-116006890D01*
X133145648Y-116269858D01*
X133292504Y-116521193D01*
X133485571Y-116739049D01*
X133691722Y-116895538D01*
X133665986Y-116909294D01*
X133439866Y-117094866D01*
X133254294Y-117320986D01*
X133116401Y-117578966D01*
X133031487Y-117858889D01*
X133002815Y-118150000D01*
X124307631Y-118150000D01*
X121516995Y-115359364D01*
X121544438Y-115293110D01*
X133053524Y-115293110D01*
X133174845Y-115523000D01*
X134493000Y-115523000D01*
X134493000Y-114323835D01*
X134747000Y-114323835D01*
X134747000Y-115523000D01*
X136065155Y-115523000D01*
X136186476Y-115293110D01*
X136094352Y-115030142D01*
X135947496Y-114778807D01*
X135754429Y-114560951D01*
X135522570Y-114384947D01*
X135260830Y-114257558D01*
X134979267Y-114183680D01*
X134747000Y-114323835D01*
X134493000Y-114323835D01*
X134260733Y-114183680D01*
X133979170Y-114257558D01*
X133717430Y-114384947D01*
X133485571Y-114560951D01*
X133292504Y-114778807D01*
X133145648Y-115030142D01*
X133053524Y-115293110D01*
X121544438Y-115293110D01*
X121553225Y-115271897D01*
X121592999Y-115071938D01*
X121592999Y-114868060D01*
X121553225Y-114668101D01*
X121475204Y-114479743D01*
X121361936Y-114310225D01*
X121217773Y-114166062D01*
X121048255Y-114052794D01*
X120859897Y-113974773D01*
X120659938Y-113934999D01*
X120456060Y-113934999D01*
X120256101Y-113974773D01*
X120067743Y-114052794D01*
X119898225Y-114166062D01*
X119754062Y-114310225D01*
X119640794Y-114479743D01*
X119562773Y-114668101D01*
X119522999Y-114868060D01*
X108168072Y-114868060D01*
X108168072Y-114720000D01*
X108155812Y-114595518D01*
X108119502Y-114475820D01*
X108060537Y-114365506D01*
X107981185Y-114268815D01*
X107884494Y-114189463D01*
X107774180Y-114130498D01*
X107701620Y-114108487D01*
X107833475Y-113976632D01*
X107995990Y-113733411D01*
X108107932Y-113463158D01*
X108165000Y-113176260D01*
X108165000Y-112883740D01*
X108121679Y-112665952D01*
X109379117Y-111408513D01*
X109575241Y-111604637D01*
X109810273Y-111761680D01*
X110071426Y-111869853D01*
X110348665Y-111925000D01*
X110631335Y-111925000D01*
X110908574Y-111869853D01*
X111122770Y-111781130D01*
X111210063Y-111911774D01*
X111354226Y-112055937D01*
X111523744Y-112169205D01*
X111712102Y-112247226D01*
X111912061Y-112287000D01*
X112115939Y-112287000D01*
X112315898Y-112247226D01*
X112504256Y-112169205D01*
X112673774Y-112055937D01*
X112817937Y-111911774D01*
X112931205Y-111742256D01*
X112936624Y-111729174D01*
X112985273Y-111761680D01*
X113246426Y-111869853D01*
X113523665Y-111925000D01*
X113806335Y-111925000D01*
X114083574Y-111869853D01*
X114344727Y-111761680D01*
X114579759Y-111604637D01*
X114779637Y-111404759D01*
X114936680Y-111169727D01*
X115044853Y-110908574D01*
X115100000Y-110631335D01*
X115100000Y-110348665D01*
X115044853Y-110071426D01*
X114936680Y-109810273D01*
X114779637Y-109575241D01*
X114579759Y-109375363D01*
X114344727Y-109218320D01*
X114083574Y-109110147D01*
X113806335Y-109055000D01*
X113635836Y-109055000D01*
X113666645Y-109017459D01*
X113719752Y-108918102D01*
X113737402Y-108885081D01*
X113780974Y-108741444D01*
X113792000Y-108629492D01*
X113792000Y-108629489D01*
X113795686Y-108592066D01*
X113792000Y-108554643D01*
X113792000Y-108021680D01*
X113799180Y-108019502D01*
X113909494Y-107960537D01*
X114006185Y-107881185D01*
X114085537Y-107784494D01*
X114144502Y-107674180D01*
X114180812Y-107554482D01*
X114193072Y-107430000D01*
X114193072Y-105930000D01*
X114180812Y-105805518D01*
X114144502Y-105685820D01*
X114085537Y-105575506D01*
X114006185Y-105478815D01*
X113909494Y-105399463D01*
X113799180Y-105340498D01*
X113679482Y-105304188D01*
X113555000Y-105291928D01*
X112505000Y-105291928D01*
X112380518Y-105304188D01*
X112260820Y-105340498D01*
X112196098Y-105375093D01*
X111987400Y-105311785D01*
X111958556Y-105308944D01*
X111909378Y-105294026D01*
X111760000Y-105279314D01*
X111610623Y-105294026D01*
X111561445Y-105308944D01*
X111532601Y-105311785D01*
X111313941Y-105378115D01*
X111125000Y-105479106D01*
X110936060Y-105378115D01*
X110717400Y-105311785D01*
X110490000Y-105289388D01*
X110262601Y-105311785D01*
X110043941Y-105378115D01*
X109842422Y-105485829D01*
X109665789Y-105630788D01*
X109520830Y-105807421D01*
X109461724Y-105918000D01*
X108076932Y-105918000D01*
X108107932Y-105843158D01*
X108165000Y-105556260D01*
X108165000Y-105263740D01*
X108107932Y-104976842D01*
X107995990Y-104706589D01*
X107833475Y-104463368D01*
X107626632Y-104256525D01*
X107452240Y-104140000D01*
X107626632Y-104023475D01*
X107833475Y-103816632D01*
X107995990Y-103573411D01*
X108082869Y-103363665D01*
X109055000Y-103363665D01*
X109055000Y-103646335D01*
X109110147Y-103923574D01*
X109218320Y-104184727D01*
X109375363Y-104419759D01*
X109575241Y-104619637D01*
X109810273Y-104776680D01*
X110071426Y-104884853D01*
X110348665Y-104940000D01*
X110631335Y-104940000D01*
X110908574Y-104884853D01*
X111169727Y-104776680D01*
X111404759Y-104619637D01*
X111604637Y-104419759D01*
X111761680Y-104184727D01*
X111869853Y-103923574D01*
X111925000Y-103646335D01*
X111925000Y-103363665D01*
X112230000Y-103363665D01*
X112230000Y-103646335D01*
X112285147Y-103923574D01*
X112393320Y-104184727D01*
X112550363Y-104419759D01*
X112750241Y-104619637D01*
X112985273Y-104776680D01*
X113246426Y-104884853D01*
X113523665Y-104940000D01*
X113806335Y-104940000D01*
X113986527Y-104904157D01*
X115119549Y-106037179D01*
X115061785Y-106227600D01*
X115045000Y-106398021D01*
X115045000Y-106961978D01*
X115061785Y-107132399D01*
X115128115Y-107351059D01*
X115235829Y-107552578D01*
X115380788Y-107729212D01*
X115557421Y-107874171D01*
X115758940Y-107981885D01*
X115977600Y-108048215D01*
X116205000Y-108070612D01*
X116432399Y-108048215D01*
X116651059Y-107981885D01*
X116840000Y-107880894D01*
X117028940Y-107981885D01*
X117247600Y-108048215D01*
X117475000Y-108070612D01*
X117554597Y-108062772D01*
X116327654Y-109289716D01*
X116298578Y-109313578D01*
X116262326Y-109357752D01*
X116203355Y-109429608D01*
X116200473Y-109435000D01*
X116132598Y-109561986D01*
X116089026Y-109705623D01*
X116081445Y-109782598D01*
X116074314Y-109855000D01*
X116078000Y-109892423D01*
X116078001Y-111566288D01*
X116036063Y-111608226D01*
X115922795Y-111777744D01*
X115844774Y-111966102D01*
X115805000Y-112166061D01*
X115805000Y-112369939D01*
X115844774Y-112569898D01*
X115922795Y-112758256D01*
X116036063Y-112927774D01*
X116180226Y-113071937D01*
X116349744Y-113185205D01*
X116538102Y-113263226D01*
X116738061Y-113303000D01*
X116941939Y-113303000D01*
X117141898Y-113263226D01*
X117330256Y-113185205D01*
X117499774Y-113071937D01*
X117643937Y-112927774D01*
X117757205Y-112758256D01*
X117835226Y-112569898D01*
X117875000Y-112369939D01*
X117875000Y-112166061D01*
X117835226Y-111966102D01*
X117757205Y-111777744D01*
X117643937Y-111608226D01*
X117602000Y-111566289D01*
X117602000Y-110170630D01*
X119257353Y-108515278D01*
X119286422Y-108491422D01*
X119328413Y-108440256D01*
X119381645Y-108375393D01*
X119447654Y-108251898D01*
X119452402Y-108243015D01*
X119495974Y-108099378D01*
X119503522Y-108022735D01*
X119514180Y-108019502D01*
X119624494Y-107960537D01*
X119721185Y-107881185D01*
X119800537Y-107784494D01*
X119859502Y-107674180D01*
X119895812Y-107554482D01*
X119908072Y-107430000D01*
X119908072Y-105930000D01*
X119895812Y-105805518D01*
X119864428Y-105702058D01*
X120760000Y-106597631D01*
X120760000Y-106961978D01*
X120776785Y-107132399D01*
X120843115Y-107351059D01*
X120950829Y-107552578D01*
X121095788Y-107729212D01*
X121272421Y-107874171D01*
X121473940Y-107981885D01*
X121600984Y-108020424D01*
X120045648Y-109575760D01*
X120016578Y-109599617D01*
X119992721Y-109628687D01*
X119992720Y-109628688D01*
X119921354Y-109715647D01*
X119850598Y-109848024D01*
X119807026Y-109991661D01*
X119792313Y-110141039D01*
X119796000Y-110178472D01*
X119796000Y-110515289D01*
X119754062Y-110557227D01*
X119640794Y-110726745D01*
X119562773Y-110915103D01*
X119522999Y-111115062D01*
X119522999Y-111318940D01*
X119562773Y-111518899D01*
X119640794Y-111707257D01*
X119754062Y-111876775D01*
X119898225Y-112020938D01*
X120067743Y-112134206D01*
X120256101Y-112212227D01*
X120456060Y-112252001D01*
X120659938Y-112252001D01*
X120859897Y-112212227D01*
X121048255Y-112134206D01*
X121217773Y-112020938D01*
X121361936Y-111876775D01*
X121475204Y-111707257D01*
X121553225Y-111518899D01*
X121558812Y-111490813D01*
X121586898Y-111485226D01*
X121775256Y-111407205D01*
X121944774Y-111293937D01*
X122088937Y-111149774D01*
X122202205Y-110980256D01*
X122280226Y-110791898D01*
X122320000Y-110591939D01*
X122320000Y-110532630D01*
X124784559Y-108068072D01*
X124985000Y-108068072D01*
X125109482Y-108055812D01*
X125229180Y-108019502D01*
X125339494Y-107960537D01*
X125436185Y-107881185D01*
X125515537Y-107784494D01*
X125574502Y-107674180D01*
X125610812Y-107554482D01*
X125623072Y-107430000D01*
X125623072Y-106364990D01*
X126478253Y-106364990D01*
X126475000Y-106398021D01*
X126475000Y-106961978D01*
X126491785Y-107132399D01*
X126558115Y-107351059D01*
X126665829Y-107552578D01*
X126810788Y-107729212D01*
X126987421Y-107874171D01*
X127188940Y-107981885D01*
X127407600Y-108048215D01*
X127635000Y-108070612D01*
X127862399Y-108048215D01*
X128081059Y-107981885D01*
X128270000Y-107880894D01*
X128458940Y-107981885D01*
X128677600Y-108048215D01*
X128905000Y-108070612D01*
X129132399Y-108048215D01*
X129341098Y-107984907D01*
X129405820Y-108019502D01*
X129525518Y-108055812D01*
X129650000Y-108068072D01*
X130700000Y-108068072D01*
X130824482Y-108055812D01*
X130944180Y-108019502D01*
X131054494Y-107960537D01*
X131151185Y-107881185D01*
X131230537Y-107784494D01*
X131289502Y-107674180D01*
X131325812Y-107554482D01*
X131338072Y-107430000D01*
X131338072Y-106720000D01*
X133002815Y-106720000D01*
X133031487Y-107011111D01*
X133116401Y-107291034D01*
X133254294Y-107549014D01*
X133439866Y-107775134D01*
X133503337Y-107827223D01*
X133401614Y-107881595D01*
X133267038Y-107992038D01*
X133156595Y-108126614D01*
X133074528Y-108280150D01*
X133023992Y-108446746D01*
X133006928Y-108620000D01*
X133006928Y-109820000D01*
X133023992Y-109993254D01*
X133074528Y-110159850D01*
X133156595Y-110313386D01*
X133267038Y-110447962D01*
X133401614Y-110558405D01*
X133555150Y-110640472D01*
X133721746Y-110691008D01*
X133895000Y-110708072D01*
X135345000Y-110708072D01*
X135518254Y-110691008D01*
X135684850Y-110640472D01*
X135838386Y-110558405D01*
X135972962Y-110447962D01*
X136083405Y-110313386D01*
X136165472Y-110159850D01*
X136216008Y-109993254D01*
X136233072Y-109820000D01*
X136233072Y-108620000D01*
X136216008Y-108446746D01*
X136165472Y-108280150D01*
X136083405Y-108126614D01*
X135972962Y-107992038D01*
X135838386Y-107881595D01*
X135736663Y-107827223D01*
X135800134Y-107775134D01*
X135985706Y-107549014D01*
X136123599Y-107291034D01*
X136208513Y-107011111D01*
X136237185Y-106720000D01*
X136208513Y-106428889D01*
X136123599Y-106148966D01*
X135985706Y-105890986D01*
X135800134Y-105664866D01*
X135574014Y-105479294D01*
X135548278Y-105465538D01*
X135754429Y-105309049D01*
X135947496Y-105091193D01*
X136094352Y-104839858D01*
X136186476Y-104576890D01*
X136065155Y-104347000D01*
X134747000Y-104347000D01*
X134747000Y-104367000D01*
X134493000Y-104367000D01*
X134493000Y-104347000D01*
X133174845Y-104347000D01*
X133053524Y-104576890D01*
X133145648Y-104839858D01*
X133292504Y-105091193D01*
X133485571Y-105309049D01*
X133691722Y-105465538D01*
X133665986Y-105479294D01*
X133439866Y-105664866D01*
X133254294Y-105890986D01*
X133116401Y-106148966D01*
X133031487Y-106428889D01*
X133002815Y-106720000D01*
X131338072Y-106720000D01*
X131338072Y-105930000D01*
X131325812Y-105805518D01*
X131289502Y-105685820D01*
X131230537Y-105575506D01*
X131151185Y-105478815D01*
X131054494Y-105399463D01*
X130944180Y-105340498D01*
X130824482Y-105304188D01*
X130700000Y-105291928D01*
X129650000Y-105291928D01*
X129525518Y-105304188D01*
X129405820Y-105340498D01*
X129341098Y-105375093D01*
X129132400Y-105311785D01*
X128905000Y-105289388D01*
X128765666Y-105303111D01*
X128553198Y-105090644D01*
X128529336Y-105061568D01*
X128413306Y-104966345D01*
X128280929Y-104895588D01*
X128137292Y-104852016D01*
X128025340Y-104840990D01*
X128025337Y-104840990D01*
X127987914Y-104837304D01*
X127950491Y-104840990D01*
X123669433Y-104840990D01*
X123632010Y-104837304D01*
X123594587Y-104840990D01*
X123594584Y-104840990D01*
X123482632Y-104852016D01*
X123338995Y-104895588D01*
X123283939Y-104925016D01*
X123206617Y-104966345D01*
X123193827Y-104976842D01*
X123090588Y-105061568D01*
X123066722Y-105090649D01*
X122794632Y-105362738D01*
X122743941Y-105378115D01*
X122555000Y-105479106D01*
X122366060Y-105378115D01*
X122147400Y-105311785D01*
X121920000Y-105289388D01*
X121692601Y-105311785D01*
X121644122Y-105326491D01*
X120933513Y-104615883D01*
X121129637Y-104419759D01*
X121286680Y-104184727D01*
X121394853Y-103923574D01*
X121406880Y-103863110D01*
X133053524Y-103863110D01*
X133174845Y-104093000D01*
X134493000Y-104093000D01*
X134493000Y-102893835D01*
X134747000Y-102893835D01*
X134747000Y-104093000D01*
X136065155Y-104093000D01*
X136186476Y-103863110D01*
X136094352Y-103600142D01*
X135947496Y-103348807D01*
X135754429Y-103130951D01*
X135522570Y-102954947D01*
X135260830Y-102827558D01*
X134979267Y-102753680D01*
X134747000Y-102893835D01*
X134493000Y-102893835D01*
X134260733Y-102753680D01*
X133979170Y-102827558D01*
X133717430Y-102954947D01*
X133485571Y-103130951D01*
X133292504Y-103348807D01*
X133145648Y-103600142D01*
X133053524Y-103863110D01*
X121406880Y-103863110D01*
X121450000Y-103646335D01*
X121450000Y-103363665D01*
X121394853Y-103086426D01*
X121286680Y-102825273D01*
X121129637Y-102590241D01*
X120929759Y-102390363D01*
X120694727Y-102233320D01*
X120433574Y-102125147D01*
X120156335Y-102070000D01*
X119873665Y-102070000D01*
X119596426Y-102125147D01*
X119335273Y-102233320D01*
X119100241Y-102390363D01*
X118900363Y-102590241D01*
X118743320Y-102825273D01*
X118635147Y-103086426D01*
X118580000Y-103363665D01*
X118580000Y-103646335D01*
X118624491Y-103870001D01*
X118282632Y-103870001D01*
X118239157Y-103826526D01*
X118275000Y-103646335D01*
X118275000Y-103363665D01*
X118219853Y-103086426D01*
X118111680Y-102825273D01*
X117954637Y-102590241D01*
X117754759Y-102390363D01*
X117519727Y-102233320D01*
X117258574Y-102125147D01*
X116981335Y-102070000D01*
X116698665Y-102070000D01*
X116421426Y-102125147D01*
X116160273Y-102233320D01*
X115925241Y-102390363D01*
X115725363Y-102590241D01*
X115568320Y-102825273D01*
X115460147Y-103086426D01*
X115405000Y-103363665D01*
X115405000Y-103646335D01*
X115460147Y-103923574D01*
X115568320Y-104184727D01*
X115725363Y-104419759D01*
X115925241Y-104619637D01*
X116160273Y-104776680D01*
X116421426Y-104884853D01*
X116698665Y-104940000D01*
X116981335Y-104940000D01*
X117161526Y-104904157D01*
X117401721Y-105144352D01*
X117425579Y-105173423D01*
X117541609Y-105268646D01*
X117581121Y-105289766D01*
X117475000Y-105279314D01*
X117325623Y-105294026D01*
X117276445Y-105308944D01*
X117247601Y-105311785D01*
X117028941Y-105378115D01*
X116840000Y-105479106D01*
X116651060Y-105378115D01*
X116600369Y-105362738D01*
X115064157Y-103826527D01*
X115100000Y-103646335D01*
X115100000Y-103363665D01*
X115044853Y-103086426D01*
X114936680Y-102825273D01*
X114779637Y-102590241D01*
X114579759Y-102390363D01*
X114344727Y-102233320D01*
X114083574Y-102125147D01*
X113806335Y-102070000D01*
X113523665Y-102070000D01*
X113246426Y-102125147D01*
X112985273Y-102233320D01*
X112750241Y-102390363D01*
X112550363Y-102590241D01*
X112393320Y-102825273D01*
X112285147Y-103086426D01*
X112230000Y-103363665D01*
X111925000Y-103363665D01*
X111869853Y-103086426D01*
X111761680Y-102825273D01*
X111604637Y-102590241D01*
X111404759Y-102390363D01*
X111169727Y-102233320D01*
X110908574Y-102125147D01*
X110631335Y-102070000D01*
X110348665Y-102070000D01*
X110071426Y-102125147D01*
X109810273Y-102233320D01*
X109575241Y-102390363D01*
X109375363Y-102590241D01*
X109218320Y-102825273D01*
X109110147Y-103086426D01*
X109055000Y-103363665D01*
X108082869Y-103363665D01*
X108107932Y-103303158D01*
X108165000Y-103016260D01*
X108165000Y-102723740D01*
X108107932Y-102436842D01*
X107995990Y-102166589D01*
X107833475Y-101923368D01*
X107626632Y-101716525D01*
X107452240Y-101600000D01*
X107626632Y-101483475D01*
X107833475Y-101276632D01*
X107995990Y-101033411D01*
X108107932Y-100763158D01*
X108165000Y-100476260D01*
X108165000Y-100183740D01*
X108107932Y-99896842D01*
X107995990Y-99626589D01*
X107833475Y-99383368D01*
X107626632Y-99176525D01*
X107444466Y-99054805D01*
X107561355Y-98985178D01*
X107777588Y-98790269D01*
X107951641Y-98556920D01*
X108014475Y-98425000D01*
X122434388Y-98425000D01*
X122456785Y-98652400D01*
X122523115Y-98871060D01*
X122624105Y-99060000D01*
X122523115Y-99248940D01*
X122456785Y-99467600D01*
X122434388Y-99695000D01*
X122456785Y-99922400D01*
X122523115Y-100141060D01*
X122630829Y-100342579D01*
X122775788Y-100519212D01*
X122952421Y-100664171D01*
X123153940Y-100771885D01*
X123372600Y-100838215D01*
X123543021Y-100855000D01*
X124106979Y-100855000D01*
X124277400Y-100838215D01*
X124496060Y-100771885D01*
X124697579Y-100664171D01*
X124874212Y-100519212D01*
X125019171Y-100342579D01*
X125126885Y-100141060D01*
X125193215Y-99922400D01*
X125215612Y-99695000D01*
X125193215Y-99467600D01*
X125126885Y-99248940D01*
X125025895Y-99060000D01*
X125126885Y-98871060D01*
X125193215Y-98652400D01*
X125215612Y-98425000D01*
X125193215Y-98197600D01*
X125129907Y-97988902D01*
X125164502Y-97924180D01*
X125200812Y-97804482D01*
X125213072Y-97680000D01*
X125213072Y-96630000D01*
X125200812Y-96505518D01*
X125164502Y-96385820D01*
X125105537Y-96275506D01*
X125026185Y-96178815D01*
X124929494Y-96099463D01*
X124819180Y-96040498D01*
X124699482Y-96004188D01*
X124575000Y-95991928D01*
X123075000Y-95991928D01*
X122950518Y-96004188D01*
X122830820Y-96040498D01*
X122720506Y-96099463D01*
X122623815Y-96178815D01*
X122544463Y-96275506D01*
X122485498Y-96385820D01*
X122449188Y-96505518D01*
X122436928Y-96630000D01*
X122436928Y-97680000D01*
X122449188Y-97804482D01*
X122485498Y-97924180D01*
X122520093Y-97988902D01*
X122456785Y-98197600D01*
X122434388Y-98425000D01*
X108014475Y-98425000D01*
X108076825Y-98294099D01*
X108121476Y-98146890D01*
X108000155Y-97917000D01*
X106807000Y-97917000D01*
X106807000Y-97937000D01*
X106553000Y-97937000D01*
X106553000Y-97917000D01*
X105359845Y-97917000D01*
X105238524Y-98146890D01*
X105283175Y-98294099D01*
X105408359Y-98556920D01*
X105582412Y-98790269D01*
X105798645Y-98985178D01*
X105915534Y-99054805D01*
X105733368Y-99176525D01*
X105526525Y-99383368D01*
X105403158Y-99568000D01*
X104841711Y-99568000D01*
X104799774Y-99526063D01*
X104630256Y-99412795D01*
X104441898Y-99334774D01*
X104241939Y-99295000D01*
X104038061Y-99295000D01*
X103838102Y-99334774D01*
X103649744Y-99412795D01*
X103480226Y-99526063D01*
X103336063Y-99670226D01*
X103222795Y-99839744D01*
X103144774Y-100028102D01*
X103105000Y-100228061D01*
X92925000Y-100228061D01*
X92925000Y-100183740D01*
X92867932Y-99896842D01*
X92755990Y-99626589D01*
X92593475Y-99383368D01*
X92386632Y-99176525D01*
X92212240Y-99060000D01*
X92386632Y-98943475D01*
X92593475Y-98736632D01*
X92755990Y-98493411D01*
X92867932Y-98223158D01*
X92925000Y-97936260D01*
X92925000Y-97643740D01*
X92867932Y-97356842D01*
X92755990Y-97086589D01*
X92593475Y-96843368D01*
X92386632Y-96636525D01*
X92212240Y-96520000D01*
X92386632Y-96403475D01*
X92593475Y-96196632D01*
X92755990Y-95953411D01*
X92867932Y-95683158D01*
X92925000Y-95396260D01*
X92925000Y-95103740D01*
X92867932Y-94816842D01*
X92755990Y-94546589D01*
X92593475Y-94303368D01*
X92386632Y-94096525D01*
X92212240Y-93980000D01*
X92386632Y-93863475D01*
X92593475Y-93656632D01*
X92755990Y-93413411D01*
X92867932Y-93143158D01*
X92925000Y-92856260D01*
X92925000Y-92563740D01*
X92867932Y-92276842D01*
X92768587Y-92037000D01*
X96034428Y-92037000D01*
X96034428Y-93637000D01*
X96046688Y-93761482D01*
X96082998Y-93881180D01*
X96141963Y-93991494D01*
X96221315Y-94088185D01*
X96244241Y-94107000D01*
X96221315Y-94125815D01*
X96141963Y-94222506D01*
X96082998Y-94332820D01*
X96046688Y-94452518D01*
X96034428Y-94577000D01*
X96034428Y-96177000D01*
X96046688Y-96301482D01*
X96082998Y-96421180D01*
X96141963Y-96531494D01*
X96221315Y-96628185D01*
X96318006Y-96707537D01*
X96428320Y-96766502D01*
X96548018Y-96802812D01*
X96672500Y-96815072D01*
X98272500Y-96815072D01*
X98396982Y-96802812D01*
X98516680Y-96766502D01*
X98626994Y-96707537D01*
X98723685Y-96628185D01*
X98803037Y-96531494D01*
X98862002Y-96421180D01*
X98898312Y-96301482D01*
X98910572Y-96177000D01*
X98910572Y-94577000D01*
X98898312Y-94452518D01*
X98862002Y-94332820D01*
X98803037Y-94222506D01*
X98723685Y-94125815D01*
X98700759Y-94107000D01*
X98723685Y-94088185D01*
X98803037Y-93991494D01*
X98862002Y-93881180D01*
X98898312Y-93761482D01*
X98910572Y-93637000D01*
X98910572Y-92037000D01*
X99209428Y-92037000D01*
X99209428Y-93637000D01*
X99221688Y-93761482D01*
X99257998Y-93881180D01*
X99316963Y-93991494D01*
X99396315Y-94088185D01*
X99419241Y-94107000D01*
X99396315Y-94125815D01*
X99316963Y-94222506D01*
X99257998Y-94332820D01*
X99221688Y-94452518D01*
X99209428Y-94577000D01*
X99209428Y-96177000D01*
X99221688Y-96301482D01*
X99257998Y-96421180D01*
X99316963Y-96531494D01*
X99396315Y-96628185D01*
X99493006Y-96707537D01*
X99603320Y-96766502D01*
X99723018Y-96802812D01*
X99847500Y-96815072D01*
X101447500Y-96815072D01*
X101571982Y-96802812D01*
X101691680Y-96766502D01*
X101801994Y-96707537D01*
X101898685Y-96628185D01*
X101978037Y-96531494D01*
X102037002Y-96421180D01*
X102073312Y-96301482D01*
X102085572Y-96177000D01*
X102085572Y-95606890D01*
X105238524Y-95606890D01*
X105283175Y-95754099D01*
X105408359Y-96016920D01*
X105582412Y-96250269D01*
X105798645Y-96445178D01*
X105924255Y-96520000D01*
X105798645Y-96594822D01*
X105582412Y-96789731D01*
X105408359Y-97023080D01*
X105283175Y-97285901D01*
X105238524Y-97433110D01*
X105359845Y-97663000D01*
X106553000Y-97663000D01*
X106553000Y-95377000D01*
X106807000Y-95377000D01*
X106807000Y-97663000D01*
X108000155Y-97663000D01*
X108121476Y-97433110D01*
X108076825Y-97285901D01*
X107951641Y-97023080D01*
X107777588Y-96789731D01*
X107561355Y-96594822D01*
X107435745Y-96520000D01*
X107561355Y-96445178D01*
X107777588Y-96250269D01*
X107951641Y-96016920D01*
X108076825Y-95754099D01*
X108121476Y-95606890D01*
X108000155Y-95377000D01*
X106807000Y-95377000D01*
X106553000Y-95377000D01*
X105359845Y-95377000D01*
X105238524Y-95606890D01*
X102085572Y-95606890D01*
X102085572Y-95290000D01*
X133002815Y-95290000D01*
X133031487Y-95581111D01*
X133116401Y-95861034D01*
X133254294Y-96119014D01*
X133439866Y-96345134D01*
X133503337Y-96397223D01*
X133401614Y-96451595D01*
X133267038Y-96562038D01*
X133156595Y-96696614D01*
X133074528Y-96850150D01*
X133023992Y-97016746D01*
X133006928Y-97190000D01*
X133006928Y-98390000D01*
X133023992Y-98563254D01*
X133074528Y-98729850D01*
X133156595Y-98883386D01*
X133267038Y-99017962D01*
X133401614Y-99128405D01*
X133555150Y-99210472D01*
X133721746Y-99261008D01*
X133895000Y-99278072D01*
X135345000Y-99278072D01*
X135518254Y-99261008D01*
X135684850Y-99210472D01*
X135838386Y-99128405D01*
X135972962Y-99017962D01*
X136083405Y-98883386D01*
X136165472Y-98729850D01*
X136216008Y-98563254D01*
X136233072Y-98390000D01*
X136233072Y-97190000D01*
X136216008Y-97016746D01*
X136165472Y-96850150D01*
X136083405Y-96696614D01*
X135972962Y-96562038D01*
X135838386Y-96451595D01*
X135736663Y-96397223D01*
X135800134Y-96345134D01*
X135985706Y-96119014D01*
X136123599Y-95861034D01*
X136208513Y-95581111D01*
X136237185Y-95290000D01*
X136208513Y-94998889D01*
X136123599Y-94718966D01*
X135985706Y-94460986D01*
X135800134Y-94234866D01*
X135574014Y-94049294D01*
X135548278Y-94035538D01*
X135754429Y-93879049D01*
X135947496Y-93661193D01*
X136094352Y-93409858D01*
X136186476Y-93146890D01*
X136065155Y-92917000D01*
X134747000Y-92917000D01*
X134747000Y-92937000D01*
X134493000Y-92937000D01*
X134493000Y-92917000D01*
X133174845Y-92917000D01*
X133053524Y-93146890D01*
X133145648Y-93409858D01*
X133292504Y-93661193D01*
X133485571Y-93879049D01*
X133691722Y-94035538D01*
X133665986Y-94049294D01*
X133439866Y-94234866D01*
X133254294Y-94460986D01*
X133116401Y-94718966D01*
X133031487Y-94998889D01*
X133002815Y-95290000D01*
X102085572Y-95290000D01*
X102085572Y-94577000D01*
X102073312Y-94452518D01*
X102037002Y-94332820D01*
X101978037Y-94222506D01*
X101898685Y-94125815D01*
X101875759Y-94107000D01*
X101898685Y-94088185D01*
X101978037Y-93991494D01*
X102037002Y-93881180D01*
X102073312Y-93761482D01*
X102085572Y-93637000D01*
X102085572Y-93066890D01*
X105238524Y-93066890D01*
X105283175Y-93214099D01*
X105408359Y-93476920D01*
X105582412Y-93710269D01*
X105798645Y-93905178D01*
X105924255Y-93980000D01*
X105798645Y-94054822D01*
X105582412Y-94249731D01*
X105408359Y-94483080D01*
X105283175Y-94745901D01*
X105238524Y-94893110D01*
X105359845Y-95123000D01*
X106553000Y-95123000D01*
X106553000Y-92837000D01*
X106807000Y-92837000D01*
X106807000Y-95123000D01*
X108000155Y-95123000D01*
X108121476Y-94893110D01*
X108076825Y-94745901D01*
X107951641Y-94483080D01*
X107777588Y-94249731D01*
X107561355Y-94054822D01*
X107435745Y-93980000D01*
X107561355Y-93905178D01*
X107777588Y-93710269D01*
X107951641Y-93476920D01*
X108076825Y-93214099D01*
X108121476Y-93066890D01*
X108000155Y-92837000D01*
X106807000Y-92837000D01*
X106553000Y-92837000D01*
X105359845Y-92837000D01*
X105238524Y-93066890D01*
X102085572Y-93066890D01*
X102085572Y-92037000D01*
X102073312Y-91912518D01*
X102037002Y-91792820D01*
X101978037Y-91682506D01*
X101898685Y-91585815D01*
X101801994Y-91506463D01*
X101691680Y-91447498D01*
X101571982Y-91411188D01*
X101447500Y-91398928D01*
X99847500Y-91398928D01*
X99723018Y-91411188D01*
X99603320Y-91447498D01*
X99493006Y-91506463D01*
X99396315Y-91585815D01*
X99316963Y-91682506D01*
X99257998Y-91792820D01*
X99221688Y-91912518D01*
X99209428Y-92037000D01*
X98910572Y-92037000D01*
X98898312Y-91912518D01*
X98862002Y-91792820D01*
X98803037Y-91682506D01*
X98723685Y-91585815D01*
X98626994Y-91506463D01*
X98516680Y-91447498D01*
X98396982Y-91411188D01*
X98272500Y-91398928D01*
X96672500Y-91398928D01*
X96548018Y-91411188D01*
X96428320Y-91447498D01*
X96318006Y-91506463D01*
X96221315Y-91585815D01*
X96141963Y-91682506D01*
X96082998Y-91792820D01*
X96046688Y-91912518D01*
X96034428Y-92037000D01*
X92768587Y-92037000D01*
X92755990Y-92006589D01*
X92593475Y-91763368D01*
X92386632Y-91556525D01*
X92212240Y-91440000D01*
X92386632Y-91323475D01*
X92593475Y-91116632D01*
X92755990Y-90873411D01*
X92867932Y-90603158D01*
X92883102Y-90526890D01*
X105238524Y-90526890D01*
X105283175Y-90674099D01*
X105408359Y-90936920D01*
X105582412Y-91170269D01*
X105798645Y-91365178D01*
X105924255Y-91440000D01*
X105798645Y-91514822D01*
X105582412Y-91709731D01*
X105408359Y-91943080D01*
X105283175Y-92205901D01*
X105238524Y-92353110D01*
X105359845Y-92583000D01*
X106553000Y-92583000D01*
X106553000Y-90297000D01*
X106807000Y-90297000D01*
X106807000Y-92583000D01*
X108000155Y-92583000D01*
X108121476Y-92353110D01*
X108076825Y-92205901D01*
X107951641Y-91943080D01*
X107777588Y-91709731D01*
X107561355Y-91514822D01*
X107435745Y-91440000D01*
X107561355Y-91365178D01*
X107777588Y-91170269D01*
X107951641Y-90936920D01*
X108076825Y-90674099D01*
X108121476Y-90526890D01*
X108000155Y-90297000D01*
X106807000Y-90297000D01*
X106553000Y-90297000D01*
X105359845Y-90297000D01*
X105238524Y-90526890D01*
X92883102Y-90526890D01*
X92925000Y-90316260D01*
X92925000Y-90023740D01*
X92867932Y-89736842D01*
X92755990Y-89466589D01*
X92593475Y-89223368D01*
X92386632Y-89016525D01*
X92204466Y-88894805D01*
X92321355Y-88825178D01*
X92537588Y-88630269D01*
X92711641Y-88396920D01*
X92836825Y-88134099D01*
X92881476Y-87986890D01*
X92760155Y-87757000D01*
X91567000Y-87757000D01*
X91567000Y-87777000D01*
X91313000Y-87777000D01*
X91313000Y-87757000D01*
X91293000Y-87757000D01*
X91293000Y-87503000D01*
X91313000Y-87503000D01*
X91313000Y-87483000D01*
X91567000Y-87483000D01*
X91567000Y-87503000D01*
X92760155Y-87503000D01*
X92881476Y-87273110D01*
X92836825Y-87125901D01*
X92711641Y-86863080D01*
X92537588Y-86629731D01*
X92321355Y-86434822D01*
X92204466Y-86365195D01*
X92386632Y-86243475D01*
X92593475Y-86036632D01*
X92755990Y-85793411D01*
X92867932Y-85523158D01*
X92925000Y-85236260D01*
X92925000Y-84943740D01*
X105195000Y-84943740D01*
X105195000Y-85236260D01*
X105252068Y-85523158D01*
X105364010Y-85793411D01*
X105526525Y-86036632D01*
X105733368Y-86243475D01*
X105907760Y-86360000D01*
X105733368Y-86476525D01*
X105526525Y-86683368D01*
X105364010Y-86926589D01*
X105252068Y-87196842D01*
X105195000Y-87483740D01*
X105195000Y-87776260D01*
X105252068Y-88063158D01*
X105364010Y-88333411D01*
X105526525Y-88576632D01*
X105733368Y-88783475D01*
X105915534Y-88905195D01*
X105798645Y-88974822D01*
X105582412Y-89169731D01*
X105408359Y-89403080D01*
X105283175Y-89665901D01*
X105238524Y-89813110D01*
X105359845Y-90043000D01*
X106553000Y-90043000D01*
X106553000Y-90023000D01*
X106807000Y-90023000D01*
X106807000Y-90043000D01*
X108000155Y-90043000D01*
X108121476Y-89813110D01*
X108076825Y-89665901D01*
X107951641Y-89403080D01*
X107944619Y-89393665D01*
X109055000Y-89393665D01*
X109055000Y-89676335D01*
X109110147Y-89953574D01*
X109218320Y-90214727D01*
X109375363Y-90449759D01*
X109575241Y-90649637D01*
X109728000Y-90751707D01*
X109728001Y-92128292D01*
X109575241Y-92230363D01*
X109375363Y-92430241D01*
X109218320Y-92665273D01*
X109110147Y-92926426D01*
X109055000Y-93203665D01*
X109055000Y-93486335D01*
X109110147Y-93763574D01*
X109218320Y-94024727D01*
X109375363Y-94259759D01*
X109575241Y-94459637D01*
X109810273Y-94616680D01*
X110071426Y-94724853D01*
X110348665Y-94780000D01*
X110631335Y-94780000D01*
X110908574Y-94724853D01*
X111169727Y-94616680D01*
X111404759Y-94459637D01*
X111604637Y-94259759D01*
X111761680Y-94024727D01*
X111869853Y-93763574D01*
X111925000Y-93486335D01*
X111925000Y-93203665D01*
X112230000Y-93203665D01*
X112230000Y-93486335D01*
X112285147Y-93763574D01*
X112393320Y-94024727D01*
X112550363Y-94259759D01*
X112750241Y-94459637D01*
X112985273Y-94616680D01*
X113246426Y-94724853D01*
X113523665Y-94780000D01*
X113806335Y-94780000D01*
X114083574Y-94724853D01*
X114344727Y-94616680D01*
X114579759Y-94459637D01*
X114779637Y-94259759D01*
X114936680Y-94024727D01*
X115044853Y-93763574D01*
X115100000Y-93486335D01*
X115100000Y-93203665D01*
X115405000Y-93203665D01*
X115405000Y-93486335D01*
X115460147Y-93763574D01*
X115568320Y-94024727D01*
X115725363Y-94259759D01*
X115925241Y-94459637D01*
X116160273Y-94616680D01*
X116421426Y-94724853D01*
X116698665Y-94780000D01*
X116981335Y-94780000D01*
X117258574Y-94724853D01*
X117519727Y-94616680D01*
X117754759Y-94459637D01*
X117954637Y-94259759D01*
X118111680Y-94024727D01*
X118219853Y-93763574D01*
X118275000Y-93486335D01*
X118275000Y-93203665D01*
X118580000Y-93203665D01*
X118580000Y-93486335D01*
X118635147Y-93763574D01*
X118743320Y-94024727D01*
X118900363Y-94259759D01*
X119100241Y-94459637D01*
X119335273Y-94616680D01*
X119596426Y-94724853D01*
X119873665Y-94780000D01*
X120156335Y-94780000D01*
X120433574Y-94724853D01*
X120694727Y-94616680D01*
X120929759Y-94459637D01*
X121129637Y-94259759D01*
X121286680Y-94024727D01*
X121394853Y-93763574D01*
X121450000Y-93486335D01*
X121450000Y-93203665D01*
X121394853Y-92926426D01*
X121305207Y-92710000D01*
X122434388Y-92710000D01*
X122456785Y-92937400D01*
X122523115Y-93156060D01*
X122624105Y-93345000D01*
X122523115Y-93533940D01*
X122456785Y-93752600D01*
X122434388Y-93980000D01*
X122456785Y-94207400D01*
X122523115Y-94426060D01*
X122630829Y-94627579D01*
X122775788Y-94804212D01*
X122952421Y-94949171D01*
X123153940Y-95056885D01*
X123372600Y-95123215D01*
X123543021Y-95140000D01*
X124106979Y-95140000D01*
X124277400Y-95123215D01*
X124496060Y-95056885D01*
X124697579Y-94949171D01*
X124874212Y-94804212D01*
X125019171Y-94627579D01*
X125126885Y-94426060D01*
X125193215Y-94207400D01*
X125215612Y-93980000D01*
X125193215Y-93752600D01*
X125126885Y-93533940D01*
X125025895Y-93345000D01*
X125126885Y-93156060D01*
X125193215Y-92937400D01*
X125215612Y-92710000D01*
X125193215Y-92482600D01*
X125178203Y-92433110D01*
X133053524Y-92433110D01*
X133174845Y-92663000D01*
X134493000Y-92663000D01*
X134493000Y-91463835D01*
X134747000Y-91463835D01*
X134747000Y-92663000D01*
X136065155Y-92663000D01*
X136186476Y-92433110D01*
X136094352Y-92170142D01*
X135947496Y-91918807D01*
X135754429Y-91700951D01*
X135522570Y-91524947D01*
X135260830Y-91397558D01*
X134979267Y-91323680D01*
X134747000Y-91463835D01*
X134493000Y-91463835D01*
X134260733Y-91323680D01*
X133979170Y-91397558D01*
X133717430Y-91524947D01*
X133485571Y-91700951D01*
X133292504Y-91918807D01*
X133145648Y-92170142D01*
X133053524Y-92433110D01*
X125178203Y-92433110D01*
X125129907Y-92273902D01*
X125164502Y-92209180D01*
X125200812Y-92089482D01*
X125213072Y-91965000D01*
X125213072Y-90915000D01*
X125200812Y-90790518D01*
X125164502Y-90670820D01*
X125105537Y-90560506D01*
X125026185Y-90463815D01*
X124929494Y-90384463D01*
X124819180Y-90325498D01*
X124699482Y-90289188D01*
X124575000Y-90276928D01*
X123075000Y-90276928D01*
X122950518Y-90289188D01*
X122830820Y-90325498D01*
X122720506Y-90384463D01*
X122623815Y-90463815D01*
X122544463Y-90560506D01*
X122485498Y-90670820D01*
X122449188Y-90790518D01*
X122436928Y-90915000D01*
X122436928Y-91965000D01*
X122449188Y-92089482D01*
X122485498Y-92209180D01*
X122520093Y-92273902D01*
X122456785Y-92482600D01*
X122434388Y-92710000D01*
X121305207Y-92710000D01*
X121286680Y-92665273D01*
X121129637Y-92430241D01*
X120929759Y-92230363D01*
X120694727Y-92073320D01*
X120433574Y-91965147D01*
X120156335Y-91910000D01*
X119873665Y-91910000D01*
X119596426Y-91965147D01*
X119335273Y-92073320D01*
X119100241Y-92230363D01*
X118900363Y-92430241D01*
X118743320Y-92665273D01*
X118635147Y-92926426D01*
X118580000Y-93203665D01*
X118275000Y-93203665D01*
X118219853Y-92926426D01*
X118111680Y-92665273D01*
X117954637Y-92430241D01*
X117754759Y-92230363D01*
X117519727Y-92073320D01*
X117258574Y-91965147D01*
X116981335Y-91910000D01*
X116698665Y-91910000D01*
X116421426Y-91965147D01*
X116160273Y-92073320D01*
X115925241Y-92230363D01*
X115725363Y-92430241D01*
X115568320Y-92665273D01*
X115460147Y-92926426D01*
X115405000Y-93203665D01*
X115100000Y-93203665D01*
X115044853Y-92926426D01*
X114936680Y-92665273D01*
X114779637Y-92430241D01*
X114579759Y-92230363D01*
X114344727Y-92073320D01*
X114083574Y-91965147D01*
X113806335Y-91910000D01*
X113523665Y-91910000D01*
X113246426Y-91965147D01*
X112985273Y-92073320D01*
X112750241Y-92230363D01*
X112550363Y-92430241D01*
X112393320Y-92665273D01*
X112285147Y-92926426D01*
X112230000Y-93203665D01*
X111925000Y-93203665D01*
X111869853Y-92926426D01*
X111761680Y-92665273D01*
X111604637Y-92430241D01*
X111404759Y-92230363D01*
X111252000Y-92128293D01*
X111252000Y-90751707D01*
X111404759Y-90649637D01*
X111604637Y-90449759D01*
X111761680Y-90214727D01*
X111869853Y-89953574D01*
X111925000Y-89676335D01*
X111925000Y-89393665D01*
X119215000Y-89393665D01*
X119215000Y-89676335D01*
X119270147Y-89953574D01*
X119378320Y-90214727D01*
X119535363Y-90449759D01*
X119735241Y-90649637D01*
X119970273Y-90806680D01*
X120231426Y-90914853D01*
X120508665Y-90970000D01*
X120791335Y-90970000D01*
X121068574Y-90914853D01*
X121329727Y-90806680D01*
X121564759Y-90649637D01*
X121764637Y-90449759D01*
X121921680Y-90214727D01*
X122029853Y-89953574D01*
X122085000Y-89676335D01*
X122085000Y-89393665D01*
X122029853Y-89116426D01*
X121921680Y-88855273D01*
X121764637Y-88620241D01*
X121564759Y-88420363D01*
X121329727Y-88263320D01*
X121068574Y-88155147D01*
X120791335Y-88100000D01*
X120508665Y-88100000D01*
X120231426Y-88155147D01*
X119970273Y-88263320D01*
X119735241Y-88420363D01*
X119535363Y-88620241D01*
X119378320Y-88855273D01*
X119270147Y-89116426D01*
X119215000Y-89393665D01*
X111925000Y-89393665D01*
X111869853Y-89116426D01*
X111761680Y-88855273D01*
X111604637Y-88620241D01*
X111404759Y-88420363D01*
X111169727Y-88263320D01*
X110908574Y-88155147D01*
X110631335Y-88100000D01*
X110348665Y-88100000D01*
X110071426Y-88155147D01*
X109810273Y-88263320D01*
X109575241Y-88420363D01*
X109375363Y-88620241D01*
X109218320Y-88855273D01*
X109110147Y-89116426D01*
X109055000Y-89393665D01*
X107944619Y-89393665D01*
X107777588Y-89169731D01*
X107561355Y-88974822D01*
X107444466Y-88905195D01*
X107626632Y-88783475D01*
X107833475Y-88576632D01*
X107995990Y-88333411D01*
X108107932Y-88063158D01*
X108165000Y-87776260D01*
X108165000Y-87483740D01*
X108107932Y-87196842D01*
X107995990Y-86926589D01*
X107833475Y-86683368D01*
X107626632Y-86476525D01*
X107452240Y-86360000D01*
X107626632Y-86243475D01*
X107651442Y-86218665D01*
X109055000Y-86218665D01*
X109055000Y-86501335D01*
X109110147Y-86778574D01*
X109218320Y-87039727D01*
X109375363Y-87274759D01*
X109575241Y-87474637D01*
X109810273Y-87631680D01*
X110071426Y-87739853D01*
X110348665Y-87795000D01*
X110631335Y-87795000D01*
X110908574Y-87739853D01*
X111169727Y-87631680D01*
X111404759Y-87474637D01*
X111604637Y-87274759D01*
X111761680Y-87039727D01*
X111869853Y-86778574D01*
X111925000Y-86501335D01*
X111925000Y-86218665D01*
X119215000Y-86218665D01*
X119215000Y-86501335D01*
X119270147Y-86778574D01*
X119378320Y-87039727D01*
X119535363Y-87274759D01*
X119735241Y-87474637D01*
X119970273Y-87631680D01*
X120231426Y-87739853D01*
X120508665Y-87795000D01*
X120791335Y-87795000D01*
X121068574Y-87739853D01*
X121329727Y-87631680D01*
X121564759Y-87474637D01*
X121764637Y-87274759D01*
X121921680Y-87039727D01*
X121940206Y-86995000D01*
X122434388Y-86995000D01*
X122456785Y-87222400D01*
X122523115Y-87441060D01*
X122624105Y-87630000D01*
X122523115Y-87818940D01*
X122456785Y-88037600D01*
X122434388Y-88265000D01*
X122456785Y-88492400D01*
X122523115Y-88711060D01*
X122630829Y-88912579D01*
X122775788Y-89089212D01*
X122952421Y-89234171D01*
X123153940Y-89341885D01*
X123372600Y-89408215D01*
X123543021Y-89425000D01*
X124106979Y-89425000D01*
X124277400Y-89408215D01*
X124496060Y-89341885D01*
X124697579Y-89234171D01*
X124874212Y-89089212D01*
X125019171Y-88912579D01*
X125126885Y-88711060D01*
X125193215Y-88492400D01*
X125215612Y-88265000D01*
X125193215Y-88037600D01*
X125126885Y-87818940D01*
X125025895Y-87630000D01*
X125126885Y-87441060D01*
X125193215Y-87222400D01*
X125215612Y-86995000D01*
X125193215Y-86767600D01*
X125129907Y-86558902D01*
X125164502Y-86494180D01*
X125200812Y-86374482D01*
X125213072Y-86250000D01*
X125213072Y-85200000D01*
X125200812Y-85075518D01*
X125164502Y-84955820D01*
X125105537Y-84845506D01*
X125026185Y-84748815D01*
X124929494Y-84669463D01*
X124819180Y-84610498D01*
X124699482Y-84574188D01*
X124575000Y-84561928D01*
X123075000Y-84561928D01*
X122950518Y-84574188D01*
X122830820Y-84610498D01*
X122720506Y-84669463D01*
X122623815Y-84748815D01*
X122544463Y-84845506D01*
X122485498Y-84955820D01*
X122449188Y-85075518D01*
X122436928Y-85200000D01*
X122436928Y-86250000D01*
X122449188Y-86374482D01*
X122485498Y-86494180D01*
X122520093Y-86558902D01*
X122456785Y-86767600D01*
X122434388Y-86995000D01*
X121940206Y-86995000D01*
X122029853Y-86778574D01*
X122085000Y-86501335D01*
X122085000Y-86218665D01*
X122029853Y-85941426D01*
X121921680Y-85680273D01*
X121764637Y-85445241D01*
X121564759Y-85245363D01*
X121329727Y-85088320D01*
X121068574Y-84980147D01*
X120791335Y-84925000D01*
X120508665Y-84925000D01*
X120231426Y-84980147D01*
X119970273Y-85088320D01*
X119735241Y-85245363D01*
X119535363Y-85445241D01*
X119378320Y-85680273D01*
X119270147Y-85941426D01*
X119215000Y-86218665D01*
X111925000Y-86218665D01*
X111869853Y-85941426D01*
X111761680Y-85680273D01*
X111604637Y-85445241D01*
X111404759Y-85245363D01*
X111169727Y-85088320D01*
X110908574Y-84980147D01*
X110631335Y-84925000D01*
X110348665Y-84925000D01*
X110071426Y-84980147D01*
X109810273Y-85088320D01*
X109575241Y-85245363D01*
X109375363Y-85445241D01*
X109218320Y-85680273D01*
X109110147Y-85941426D01*
X109055000Y-86218665D01*
X107651442Y-86218665D01*
X107833475Y-86036632D01*
X107995990Y-85793411D01*
X108107932Y-85523158D01*
X108165000Y-85236260D01*
X108165000Y-84943740D01*
X108107932Y-84656842D01*
X107995990Y-84386589D01*
X107833475Y-84143368D01*
X107626632Y-83936525D01*
X107444466Y-83814805D01*
X107561355Y-83745178D01*
X107777588Y-83550269D01*
X107951641Y-83316920D01*
X108076825Y-83054099D01*
X108079989Y-83043665D01*
X109055000Y-83043665D01*
X109055000Y-83326335D01*
X109110147Y-83603574D01*
X109218320Y-83864727D01*
X109375363Y-84099759D01*
X109575241Y-84299637D01*
X109810273Y-84456680D01*
X110071426Y-84564853D01*
X110348665Y-84620000D01*
X110631335Y-84620000D01*
X110908574Y-84564853D01*
X111169727Y-84456680D01*
X111404759Y-84299637D01*
X111604637Y-84099759D01*
X111761680Y-83864727D01*
X111869853Y-83603574D01*
X111925000Y-83326335D01*
X111925000Y-83043665D01*
X119215000Y-83043665D01*
X119215000Y-83326335D01*
X119270147Y-83603574D01*
X119378320Y-83864727D01*
X119535363Y-84099759D01*
X119735241Y-84299637D01*
X119970273Y-84456680D01*
X120231426Y-84564853D01*
X120508665Y-84620000D01*
X120791335Y-84620000D01*
X121068574Y-84564853D01*
X121329727Y-84456680D01*
X121564759Y-84299637D01*
X121764637Y-84099759D01*
X121921680Y-83864727D01*
X121923637Y-83860000D01*
X133002815Y-83860000D01*
X133031487Y-84151111D01*
X133116401Y-84431034D01*
X133254294Y-84689014D01*
X133439866Y-84915134D01*
X133503337Y-84967223D01*
X133401614Y-85021595D01*
X133267038Y-85132038D01*
X133156595Y-85266614D01*
X133074528Y-85420150D01*
X133023992Y-85586746D01*
X133006928Y-85760000D01*
X133006928Y-86960000D01*
X133023992Y-87133254D01*
X133074528Y-87299850D01*
X133156595Y-87453386D01*
X133267038Y-87587962D01*
X133401614Y-87698405D01*
X133555150Y-87780472D01*
X133721746Y-87831008D01*
X133895000Y-87848072D01*
X135345000Y-87848072D01*
X135518254Y-87831008D01*
X135684850Y-87780472D01*
X135838386Y-87698405D01*
X135972962Y-87587962D01*
X136083405Y-87453386D01*
X136165472Y-87299850D01*
X136216008Y-87133254D01*
X136233072Y-86960000D01*
X136233072Y-85760000D01*
X136216008Y-85586746D01*
X136165472Y-85420150D01*
X136083405Y-85266614D01*
X135972962Y-85132038D01*
X135838386Y-85021595D01*
X135736663Y-84967223D01*
X135800134Y-84915134D01*
X135985706Y-84689014D01*
X136123599Y-84431034D01*
X136208513Y-84151111D01*
X136237185Y-83860000D01*
X136208513Y-83568889D01*
X136123599Y-83288966D01*
X135985706Y-83030986D01*
X135800134Y-82804866D01*
X135574014Y-82619294D01*
X135548278Y-82605538D01*
X135754429Y-82449049D01*
X135947496Y-82231193D01*
X136094352Y-81979858D01*
X136186476Y-81716890D01*
X136065155Y-81487000D01*
X134747000Y-81487000D01*
X134747000Y-81507000D01*
X134493000Y-81507000D01*
X134493000Y-81487000D01*
X133174845Y-81487000D01*
X133053524Y-81716890D01*
X133145648Y-81979858D01*
X133292504Y-82231193D01*
X133485571Y-82449049D01*
X133691722Y-82605538D01*
X133665986Y-82619294D01*
X133439866Y-82804866D01*
X133254294Y-83030986D01*
X133116401Y-83288966D01*
X133031487Y-83568889D01*
X133002815Y-83860000D01*
X121923637Y-83860000D01*
X122029853Y-83603574D01*
X122085000Y-83326335D01*
X122085000Y-83043665D01*
X122029853Y-82766426D01*
X121921680Y-82505273D01*
X121764637Y-82270241D01*
X121564759Y-82070363D01*
X121329727Y-81913320D01*
X121068574Y-81805147D01*
X120791335Y-81750000D01*
X120508665Y-81750000D01*
X120231426Y-81805147D01*
X119970273Y-81913320D01*
X119735241Y-82070363D01*
X119535363Y-82270241D01*
X119378320Y-82505273D01*
X119270147Y-82766426D01*
X119215000Y-83043665D01*
X111925000Y-83043665D01*
X111869853Y-82766426D01*
X111761680Y-82505273D01*
X111604637Y-82270241D01*
X111404759Y-82070363D01*
X111169727Y-81913320D01*
X110908574Y-81805147D01*
X110631335Y-81750000D01*
X110348665Y-81750000D01*
X110071426Y-81805147D01*
X109810273Y-81913320D01*
X109575241Y-82070363D01*
X109375363Y-82270241D01*
X109218320Y-82505273D01*
X109110147Y-82766426D01*
X109055000Y-83043665D01*
X108079989Y-83043665D01*
X108121476Y-82906890D01*
X108000155Y-82677000D01*
X106807000Y-82677000D01*
X106807000Y-82697000D01*
X106553000Y-82697000D01*
X106553000Y-82677000D01*
X105359845Y-82677000D01*
X105238524Y-82906890D01*
X105283175Y-83054099D01*
X105408359Y-83316920D01*
X105582412Y-83550269D01*
X105798645Y-83745178D01*
X105915534Y-83814805D01*
X105733368Y-83936525D01*
X105526525Y-84143368D01*
X105364010Y-84386589D01*
X105252068Y-84656842D01*
X105195000Y-84943740D01*
X92925000Y-84943740D01*
X92867932Y-84656842D01*
X92755990Y-84386589D01*
X92593475Y-84143368D01*
X92386632Y-83936525D01*
X92212240Y-83820000D01*
X92386632Y-83703475D01*
X92593475Y-83496632D01*
X92755990Y-83253411D01*
X92867932Y-82983158D01*
X92925000Y-82696260D01*
X92925000Y-82535665D01*
X96037500Y-82535665D01*
X96037500Y-82818335D01*
X96092647Y-83095574D01*
X96200820Y-83356727D01*
X96357863Y-83591759D01*
X96557741Y-83791637D01*
X96792773Y-83948680D01*
X97053926Y-84056853D01*
X97331165Y-84112000D01*
X97613835Y-84112000D01*
X97891074Y-84056853D01*
X98152227Y-83948680D01*
X98387259Y-83791637D01*
X98587137Y-83591759D01*
X98744180Y-83356727D01*
X98852353Y-83095574D01*
X98907500Y-82818335D01*
X98907500Y-82535665D01*
X99212500Y-82535665D01*
X99212500Y-82818335D01*
X99267647Y-83095574D01*
X99375820Y-83356727D01*
X99532863Y-83591759D01*
X99732741Y-83791637D01*
X99967773Y-83948680D01*
X100228926Y-84056853D01*
X100506165Y-84112000D01*
X100788835Y-84112000D01*
X101066074Y-84056853D01*
X101327227Y-83948680D01*
X101562259Y-83791637D01*
X101762137Y-83591759D01*
X101919180Y-83356727D01*
X102027353Y-83095574D01*
X102082500Y-82818335D01*
X102082500Y-82535665D01*
X102027353Y-82258426D01*
X101919180Y-81997273D01*
X101762137Y-81762241D01*
X101562259Y-81562363D01*
X101327227Y-81405320D01*
X101066074Y-81297147D01*
X100788835Y-81242000D01*
X100506165Y-81242000D01*
X100228926Y-81297147D01*
X99967773Y-81405320D01*
X99732741Y-81562363D01*
X99532863Y-81762241D01*
X99375820Y-81997273D01*
X99267647Y-82258426D01*
X99212500Y-82535665D01*
X98907500Y-82535665D01*
X98852353Y-82258426D01*
X98744180Y-81997273D01*
X98587137Y-81762241D01*
X98387259Y-81562363D01*
X98152227Y-81405320D01*
X97891074Y-81297147D01*
X97613835Y-81242000D01*
X97331165Y-81242000D01*
X97053926Y-81297147D01*
X96792773Y-81405320D01*
X96557741Y-81562363D01*
X96357863Y-81762241D01*
X96200820Y-81997273D01*
X96092647Y-82258426D01*
X96037500Y-82535665D01*
X92925000Y-82535665D01*
X92925000Y-82403740D01*
X92867932Y-82116842D01*
X92755990Y-81846589D01*
X92593475Y-81603368D01*
X92386632Y-81396525D01*
X92212240Y-81280000D01*
X92386632Y-81163475D01*
X92593475Y-80956632D01*
X92755990Y-80713411D01*
X92867932Y-80443158D01*
X92925000Y-80156260D01*
X92925000Y-79863740D01*
X92867932Y-79576842D01*
X92755990Y-79306589D01*
X92593475Y-79063368D01*
X92386632Y-78856525D01*
X92249655Y-78765000D01*
X105870345Y-78765000D01*
X105733368Y-78856525D01*
G37*
%TD.AperFunction*%
%TD*%
M02*
