M48
; DRILL file {KiCad 5.1.7} date Thu Oct 22 23:44:30 2020
; FORMAT={-:-/ absolute / inch / decimal}
; #@! TF.CreationDate,2020-10-22T23:44:30-07:00
; #@! TF.GenerationSoftware,Kicad,Pcbnew,5.1.7
FMAT,2
INCH
T1C0.0157
T2C0.0295
T3C0.0315
T4C0.0374
T5C0.0394
%
G90
G05
T1
X4.1Y-3.95
X4.1Y-4.05
X4.125Y-4.2
X4.125Y-4.3
X4.2686Y-4.25
X4.41Y-4.38
X4.4901Y-4.6899
X4.52Y-4.63
X4.6Y-4.42
X4.6Y-4.75
X4.64Y-4.63
X4.65Y-4.7
X4.7464Y-4.3786
X4.75Y-4.54
X4.775Y-4.35
X4.775Y-4.75
X4.8951Y-4.7249
T2
X5.025Y-4.2
X5.075Y-4.2
X5.125Y-4.2
X4.875Y-3.375
X4.875Y-3.425
X4.875Y-3.475
X4.875Y-3.6
X4.875Y-3.65
X4.875Y-3.7
X4.875Y-3.825
X4.875Y-3.875
X4.875Y-3.925
X4.8Y-4.2
X4.85Y-4.2
X4.9Y-4.2
X4.35Y-4.2
X4.4Y-4.2
X4.45Y-4.2
X4.575Y-4.2
X4.625Y-4.2
X4.675Y-4.2
X4.875Y-3.15
X4.875Y-3.2
X4.875Y-3.25
T3
X3.83Y-4.81
X4.23Y-4.81
X4.35Y-3.4
X4.75Y-3.4
X3.8375Y-3.255
X3.8375Y-3.655
X3.8375Y-3.755
X3.8375Y-4.155
X4.35Y-3.15
X4.75Y-3.15
X4.475Y-4.35
X4.475Y-4.75
X3.9625Y-3.255
X3.9625Y-3.655
X4.35Y-4.35
X4.35Y-4.75
X3.83Y-4.69
X4.23Y-4.69
X4.35Y-3.675
X4.35Y-4.075
X4.35Y-3.525
X4.75Y-3.525
X4.475Y-3.675
X4.475Y-4.075
X3.9625Y-3.755
X3.9625Y-4.155
X4.6Y-3.675
X4.6Y-4.075
X4.35Y-3.275
X4.75Y-3.275
X4.725Y-3.675
X4.725Y-4.075
T4
X5.3Y-3.2031
X5.3Y-3.3016
X5.3Y-3.4
X5.3Y-4.1031
X5.3Y-4.2016
X5.3Y-4.3
X5.3Y-4.5531
X5.3Y-4.6516
X5.3Y-4.75
X5.3Y-3.6531
X5.3Y-3.7516
X5.3Y-3.85
T5
X3.6Y-3.15
X3.6Y-3.25
X3.6Y-3.35
X3.6Y-3.45
X3.6Y-3.55
X3.6Y-3.65
X3.6Y-3.75
X3.6Y-3.85
X3.6Y-3.95
X3.6Y-4.05
X3.6Y-4.15
X3.6Y-4.25
X3.6Y-4.35
X3.6Y-4.45
X3.6Y-4.55
X4.2Y-3.15
X4.2Y-3.25
X4.2Y-3.35
X4.2Y-3.45
X4.2Y-3.55
X4.2Y-3.65
X4.2Y-3.75
X4.2Y-3.85
X4.2Y-3.95
X4.2Y-4.05
X4.2Y-4.15
X4.2Y-4.25
X4.2Y-4.35
X4.2Y-4.45
X4.2Y-4.55
T0
M30
